{
copyright = "Copyright (c) 2015, Cadson Demak (info@cadsondemak.com)";
customParameters = (
{
name = vendorID;
value = CDK;
},
{
name = description;
value = "Copyright (c) 2015, Cadson Demak (info@cadsondemak.com)";
},
{
name = license;

glyphs = (
{
glyphname = A;
lastChange = "2015-11-29 23:51:21 +0000";
layers = (
{
layerId = "C023BAC7-6FF9-47E4-9D72-1131A8F8A065";
name = "Light Italic";
paths = (
{
closed = 1;
nodes = (
"40 0 LINE",
"171 215 LINE",
"523 215 LINE",
"564 0 LINE",
"590 0 LINE",
"459 699 LINE",
"437 699 LINE",
"10 0 LINE"
);
},
{
closed = 1;
nodes = (
"441 657 LINE",
"518 239 LINE",
"186 239 LINE"
);
}
);
width = 700;
}
);
leftKerningGroup = A;
note = A;
rightKerningGroup = A;
unicode = 0041;
},
{
glyphname = Aacute;
lastChange = "2015-11-29 23:51:24 +0000";
layers = (
{
layerId = "C023BAC7-6FF9-47E4-9D72-1131A8F8A065";
name = "Light Italic";
paths = (
{
closed = 1;
nodes = (
"40 0 LINE",
"171 215 LINE",
"523 215 LINE",
"564 0 LINE",
"590 0 LINE",
"459 699 LINE",
"437 699 LINE",
"10 0 LINE"
);
},
{
closed = 1;
nodes = (
"441 657 LINE",
"518 239 LINE",
"186 239 LINE"
);
},
{
closed = 1;
nodes = (
"480 768 LINE",
"593 935 LINE",
"565 935 LINE",
"458 768 LINE"
);
}
);
width = 700;
}
);
leftKerningGroup = A;
note = Aacute;
rightKerningGroup = A;
unicode = 00C1;
},
{
glyphname = Abreve;
lastChange = "2015-11-29 23:51:24 +0000";
layers = (
{
layerId = "C023BAC7-6FF9-47E4-9D72-1131A8F8A065";
name = "Light Italic";
paths = (
{
closed = 1;
nodes = (
"40 0 LINE",
"171 215 LINE",
"523 215 LINE",
"564 0 LINE",
"590 0 LINE",
"459 699 LINE",
"437 699 LINE",
"10 0 LINE"
);
},
{
closed = 1;
nodes = (
"441 657 LINE",
"518 239 LINE",
"186 239 LINE"
);
},
{
closed = 1;
nodes = (
"533 770 OFFCURVE",
"591 818 OFFCURVE",
"604 878 CURVE",
"578 878 LINE",
"568 830 OFFCURVE",
"525 793 OFFCURVE",
"466 793 CURVE SMOOTH",
"408 793 OFFCURVE",
"380 830 OFFCURVE",
"390 878 CURVE",
"368 878 LINE",
"355 818 OFFCURVE",
"393 770 OFFCURVE",
"463 770 CURVE SMOOTH"
);
}
);
width = 700;
}
);
leftKerningGroup = A;
note = Abreve;
rightKerningGroup = A;
unicode = 0102;
},
{
glyphname = Abreveacute;
lastChange = "2015-11-29 23:51:21 +0000";
layers = (
{
layerId = "C023BAC7-6FF9-47E4-9D72-1131A8F8A065";
name = "Light Italic";
paths = (
{
closed = 1;
nodes = (
"40 0 LINE",
"171 215 LINE",
"523 215 LINE",
"564 0 LINE",
"590 0 LINE",
"459 699 LINE",
"437 699 LINE",
"10 0 LINE"
);
},
{
closed = 1;
nodes = (
"441 657 LINE",
"518 239 LINE",
"186 239 LINE"
);
},
{
closed = 1;
nodes = (
"530 751 OFFCURVE",
"588 799 OFFCURVE",
"601 859 CURVE",
"577 859 LINE",
"567 811 OFFCURVE",
"524 774 OFFCURVE",
"465 774 CURVE SMOOTH",
"407 774 OFFCURVE",
"379 811 OFFCURVE",
"389 859 CURVE",
"365 859 LINE",
"352 799 OFFCURVE",
"390 751 OFFCURVE",
"460 751 CURVE SMOOTH"
);
},
{
closed = 1;
nodes = (
"471 825 LINE",
"556 945 LINE",
"528 945 LINE",
"449 825 LINE"
);
}
);
width = 700;
}
);
leftKerningGroup = A;
note = Abreveacute;
rightKerningGroup = A;
unicode = 1EAE;
},
{
glyphname = Abrevedotbelow;
lastChange = "2015-11-29 23:51:22 +0000";
layers = (
{
layerId = "C023BAC7-6FF9-47E4-9D72-1131A8F8A065";
name = "Light Italic";
paths = (
{
closed = 1;
nodes = (
"40 0 LINE",
"171 215 LINE",
"523 215 LINE",
"564 0 LINE",
"590 0 LINE",
"459 699 LINE",
"437 699 LINE",
"10 0 LINE"
);
},
{
closed = 1;
nodes = (
"290 -121 OFFCURVE",
"305 -108 OFFCURVE",
"308 -93 CURVE SMOOTH",
"311 -78 OFFCURVE",
"301 -65 OFFCURVE",
"287 -65 CURVE SMOOTH",
"272 -65 OFFCURVE",
"256 -78 OFFCURVE",
"253 -93 CURVE SMOOTH",
"250 -108 OFFCURVE",
"260 -121 OFFCURVE",
"275 -121 CURVE SMOOTH"
);
},
{
closed = 1;
nodes = (
"441 657 LINE",
"518 239 LINE",
"186 239 LINE"
);
},
{
closed = 1;
nodes = (
"536 783 OFFCURVE",
"594 831 OFFCURVE",
"607 891 CURVE",
"581 891 LINE",
"571 843 OFFCURVE",
"528 806 OFFCURVE",
"469 806 CURVE SMOOTH",
"411 806 OFFCURVE",
"383 843 OFFCURVE",
"393 891 CURVE",
"371 891 LINE",
"358 831 OFFCURVE",
"396 783 OFFCURVE",
"466 783 CURVE SMOOTH"
);
}
);
width = 700;
}
);
leftKerningGroup = A;
note = Abrevedotbelow;
rightKerningGroup = A;
unicode = 1EB6;
},
{
glyphname = Abrevegrave;
lastChange = "2015-11-29 23:51:20 +0000";
layers = (
{
layerId = "C023BAC7-6FF9-47E4-9D72-1131A8F8A065";
name = "Light Italic";
paths = (
{
closed = 1;
nodes = (
"40 0 LINE",
"171 215 LINE",
"523 215 LINE",
"564 0 LINE",
"590 0 LINE",
"459 699 LINE",
"437 699 LINE",
"10 0 LINE"
);
},
{
closed = 1;
nodes = (
"441 657 LINE",
"518 239 LINE",
"186 239 LINE"
);
},
{
closed = 1;
nodes = (
"530 751 OFFCURVE",
"588 799 OFFCURVE",
"601 859 CURVE",
"577 859 LINE",
"567 811 OFFCURVE",
"523 774 OFFCURVE",
"465 774 CURVE SMOOTH",
"406 774 OFFCURVE",
"379 811 OFFCURVE",
"389 859 CURVE",
"365 859 LINE",
"352 799 OFFCURVE",
"390 751 OFFCURVE",
"460 751 CURVE SMOOTH"
);
},
{
closed = 1;
nodes = (
"503 825 LINE",
"474 945 LINE",
"446 945 LINE",
"481 825 LINE"
);
}
);
width = 700;
}
);
leftKerningGroup = A;
note = Abrevegrave;
rightKerningGroup = A;
unicode = 1EB0;
},
{
glyphname = Abrevehookabove;
lastChange = "2015-11-29 23:51:21 +0000";
layers = (
{
layerId = "C023BAC7-6FF9-47E4-9D72-1131A8F8A065";
name = "Light Italic";
paths = (
{
closed = 1;
nodes = (
"40 0 LINE",
"171 215 LINE",
"523 215 LINE",
"564 0 LINE",
"590 0 LINE",
"459 699 LINE",
"437 699 LINE",
"10 0 LINE"
);
},
{
closed = 1;
nodes = (
"441 657 LINE",
"518 239 LINE",
"186 239 LINE"
);
},
{
closed = 1;
nodes = (
"529 750 OFFCURVE",
"587 798 OFFCURVE",
"600 858 CURVE",
"576 858 LINE",
"566 810 OFFCURVE",
"523 773 OFFCURVE",
"464 773 CURVE SMOOTH",
"406 773 OFFCURVE",
"378 810 OFFCURVE",
"388 858 CURVE",
"364 858 LINE",
"351 798 OFFCURVE",
"389 750 OFFCURVE",
"459 750 CURVE SMOOTH"
);
},
{
closed = 1;
nodes = (
"475 809 LINE",
"481 841 LINE",
"526 843 OFFCURVE",
"557 866 OFFCURVE",
"564 901 CURVE SMOOTH",
"572 938 OFFCURVE",
"556 963 OFFCURVE",
"507 963 CURVE SMOOTH",
"489 963 OFFCURVE",
"469 959 OFFCURVE",
"457 955 CURVE",
"452 932 LINE",
"464 937 OFFCURVE",
"486 941 OFFCURVE",
"503 941 CURVE SMOOTH",
"533 941 OFFCURVE",
"547 931 OFFCURVE",
"540 901 CURVE",
"534 870 OFFCURVE",
"512 859 OFFCURVE",
"464 859 CURVE",
"454 809 LINE"
);
}
);
width = 700;
}
);
leftKerningGroup = A;
note = Abrevehookabove;
rightKerningGroup = A;
unicode = 1EB2;
},
{
glyphname = Abrevetilde;
lastChange = "2015-11-29 23:51:21 +0000";
layers = (
{
layerId = "C023BAC7-6FF9-47E4-9D72-1131A8F8A065";
name = "Light Italic";
paths = (
{
closed = 1;
nodes = (
"40 0 LINE",
"171 215 LINE",
"523 215 LINE",
"564 0 LINE",
"590 0 LINE",
"459 699 LINE",
"437 699 LINE",
"10 0 LINE"
);
},
{
closed = 1;
nodes = (
"441 657 LINE",
"518 239 LINE",
"186 239 LINE"
);
},
{
closed = 1;
nodes = (
"529 750 OFFCURVE",
"587 798 OFFCURVE",
"600 858 CURVE",
"576 858 LINE",
"566 810 OFFCURVE",
"523 773 OFFCURVE",
"464 773 CURVE SMOOTH",
"406 773 OFFCURVE",
"378 810 OFFCURVE",
"388 858 CURVE",
"364 858 LINE",
"351 798 OFFCURVE",
"389 750 OFFCURVE",
"459 750 CURVE SMOOTH"
);
},
{
closed = 1;
nodes = (
"593 886 OFFCURVE",
"615 897 OFFCURVE",
"635 923 CURVE",
"641 953 LINE",
"615 918 OFFCURVE",
"594 908 OFFCURVE",
"564 908 CURVE SMOOTH",
"522 908 OFFCURVE",
"476 954 OFFCURVE",
"431 954 CURVE SMOOTH",
"397 954 OFFCURVE",
"374 943 OFFCURVE",
"355 917 CURVE",
"348 887 LINE",
"377 922 OFFCURVE",
"397 932 OFFCURVE",
"427 932 CURVE SMOOTH",
"468 932 OFFCURVE",
"510 886 OFFCURVE",
"559 886 CURVE SMOOTH"
);
}
);
width = 700;
}
);
leftKerningGroup = A;
note = Abrevetilde;
rightKerningGroup = A;
unicode = 1EB4;
},
{
glyphname = Acaron;
lastChange = "2015-11-29 23:51:24 +0000";
layers = (
{
layerId = "C023BAC7-6FF9-47E4-9D72-1131A8F8A065";
name = "Light Italic";
paths = (
{
closed = 1;
nodes = (
"40 0 LINE",
"171 215 LINE",
"523 215 LINE",
"564 0 LINE",
"590 0 LINE",
"459 699 LINE",
"437 699 LINE",
"10 0 LINE"
);
},
{
closed = 1;
nodes = (
"441 657 LINE",
"518 239 LINE",
"186 239 LINE"
);
},
{
closed = 1;
nodes = (
"477 784 LINE",
"637 935 LINE",
"604 935 LINE",
"468 806 LINE",
"388 935 LINE",
"359 935 LINE",
"455 784 LINE"
);
}
);
width = 700;
}
);
leftKerningGroup = A;
note = Acaron;
rightKerningGroup = A;
unicode = 01CD;
},
{
glyphname = Acircumflex;
lastChange = "2015-11-29 23:51:20 +0000";
layers = (
{
layerId = "C023BAC7-6FF9-47E4-9D72-1131A8F8A065";
name = "Light Italic";
paths = (
{
closed = 1;
nodes = (
"40 0 LINE",
"171 215 LINE",
"523 215 LINE",
"564 0 LINE",
"590 0 LINE",
"459 699 LINE",
"437 699 LINE",
"10 0 LINE"
);
},
{
closed = 1;
nodes = (
"441 657 LINE",
"518 239 LINE",
"186 239 LINE"
);
},
{
closed = 1;
nodes = (
"358 774 LINE",
"493 903 LINE",
"574 774 LINE",
"603 774 LINE",
"507 925 LINE",
"485 925 LINE",
"326 774 LINE"
);
}
);
width = 700;
}
);
leftKerningGroup = A;
note = Acircumflex;
rightKerningGroup = A;
unicode = 00C2;
},
{
glyphname = Acircumflexacute;
lastChange = "2015-11-29 23:51:21 +0000";
layers = (
{
layerId = "C023BAC7-6FF9-47E4-9D72-1131A8F8A065";
name = "Light Italic";
paths = (
{
closed = 1;
nodes = (
"40 0 LINE",
"171 215 LINE",
"523 215 LINE",
"564 0 LINE",
"590 0 LINE",
"459 699 LINE",
"437 699 LINE",
"10 0 LINE"
);
},
{
closed = 1;
nodes = (
"441 657 LINE",
"518 239 LINE",
"186 239 LINE"
);
},
{
closed = 1;
nodes = (
"351 747 LINE",
"480 849 LINE",
"567 747 LINE",
"598 747 LINE",
"495 868 LINE",
"473 868 LINE",
"320 747 LINE"
);
},
{
closed = 1;
nodes = (
"580 830 LINE",
"673 938 LINE",
"645 938 LINE",
"558 830 LINE"
);
}
);
width = 700;
}
);
leftKerningGroup = A;
note = Acircumflexacute;
rightKerningGroup = A;
unicode = 1EA4;
},
{
glyphname = Acircumflexdotbelow;
lastChange = "2015-11-29 23:51:21 +0000";
layers = (
{
layerId = "C023BAC7-6FF9-47E4-9D72-1131A8F8A065";
name = "Light Italic";
paths = (
{
closed = 1;
nodes = (
"40 0 LINE",
"171 215 LINE",
"523 215 LINE",
"564 0 LINE",
"590 0 LINE",
"459 699 LINE",
"437 699 LINE",
"10 0 LINE"
);
},
{
closed = 1;
nodes = (
"290 -121 OFFCURVE",
"305 -108 OFFCURVE",
"308 -93 CURVE SMOOTH",
"311 -78 OFFCURVE",
"301 -65 OFFCURVE",
"287 -65 CURVE SMOOTH",
"272 -65 OFFCURVE",
"256 -78 OFFCURVE",
"253 -93 CURVE SMOOTH",
"250 -108 OFFCURVE",
"260 -121 OFFCURVE",
"275 -121 CURVE SMOOTH"
);
},
{
closed = 1;
nodes = (
"441 657 LINE",
"518 239 LINE",
"186 239 LINE"
);
},
{
closed = 1;
nodes = (
"360 784 LINE",
"495 913 LINE",
"576 784 LINE",
"605 784 LINE",
"509 935 LINE",
"487 935 LINE",
"328 784 LINE"
);
}
);
width = 700;
}
);
leftKerningGroup = A;
note = Acircumflexdotbelow;
rightKerningGroup = A;
unicode = 1EAC;
},
{
glyphname = Acircumflexgrave;
lastChange = "2015-11-29 23:51:22 +0000";
layers = (
{
layerId = "C023BAC7-6FF9-47E4-9D72-1131A8F8A065";
name = "Light Italic";
paths = (
{
closed = 1;
nodes = (
"40 0 LINE",
"171 215 LINE",
"523 215 LINE",
"564 0 LINE",
"590 0 LINE",
"459 699 LINE",
"437 699 LINE",
"10 0 LINE"
);
},
{
closed = 1;
nodes = (
"441 657 LINE",
"518 239 LINE",
"186 239 LINE"
);
},
{
closed = 1;
nodes = (
"395 830 LINE",
"353 938 LINE",
"325 938 LINE",
"373 830 LINE"
);
},
{
closed = 1;
nodes = (
"352 747 LINE",
"481 849 LINE",
"568 747 LINE",
"598 747 LINE",
"496 868 LINE",
"474 868 LINE",
"321 747 LINE"
);
}
);
width = 700;
}
);
leftKerningGroup = A;
note = Acircumflexgrave;
rightKerningGroup = A;
unicode = 1EA6;
},
{
glyphname = Acircumflexhookabove;
lastChange = "2015-11-29 23:51:23 +0000";
layers = (
{
layerId = "C023BAC7-6FF9-47E4-9D72-1131A8F8A065";
name = "Light Italic";
paths = (
{
closed = 1;
nodes = (
"40 0 LINE",
"171 215 LINE",
"523 215 LINE",
"564 0 LINE",
"590 0 LINE",
"459 699 LINE",
"437 699 LINE",
"10 0 LINE"
);
},
{
closed = 1;
nodes = (
"441 657 LINE",
"518 239 LINE",
"186 239 LINE"
);
},
{
closed = 1;
nodes = (
"353 747 LINE",
"482 849 LINE",
"569 747 LINE",
"599 747 LINE",
"497 868 LINE",
"475 868 LINE",
"322 747 LINE"
);
},
{
closed = 1;
nodes = (
"581 820 LINE",
"587 847 LINE",
"630 849 OFFCURVE",
"661 872 OFFCURVE",
"669 907 CURVE",
"676 944 OFFCURVE",
"661 969 OFFCURVE",
"612 969 CURVE SMOOTH",
"594 969 OFFCURVE",
"574 965 OFFCURVE",
"562 961 CURVE",
"557 938 LINE",
"569 943 OFFCURVE",
"590 947 OFFCURVE",
"607 947 CURVE SMOOTH",
"637 947 OFFCURVE",
"651 937 OFFCURVE",
"645 907 CURVE SMOOTH",
"638 876 OFFCURVE",
"617 865 OFFCURVE",
"570 865 CURVE",
"560 820 LINE"
);
}
);
width = 700;
}
);
leftKerningGroup = A;
note = Acircumflexhookabove;
rightKerningGroup = A;
unicode = 1EA8;
},
{
glyphname = Acircumflextilde;
lastChange = "2015-11-29 23:51:23 +0000";
layers = (
{
layerId = "C023BAC7-6FF9-47E4-9D72-1131A8F8A065";
name = "Light Italic";
paths = (
{
closed = 1;
nodes = (
"40 0 LINE",
"171 215 LINE",
"523 215 LINE",
"564 0 LINE",
"590 0 LINE",
"459 699 LINE",
"437 699 LINE",
"10 0 LINE"
);
},
{
closed = 1;
nodes = (
"441 657 LINE",
"518 239 LINE",
"186 239 LINE"
);
},
{
closed = 1;
nodes = (
"351 747 LINE",
"480 849 LINE",
"567 747 LINE",
"597 747 LINE",
"495 868 LINE",
"473 868 LINE",
"320 747 LINE"
);
},
{
closed = 1;
nodes = (
"591 881 OFFCURVE",
"614 892 OFFCURVE",
"634 918 CURVE",
"640 948 LINE",
"614 913 OFFCURVE",
"592 903 OFFCURVE",
"563 903 CURVE SMOOTH",
"521 903 OFFCURVE",
"476 949 OFFCURVE",
"431 949 CURVE SMOOTH",
"397 949 OFFCURVE",
"373 938 OFFCURVE",
"354 912 CURVE",
"347 882 LINE",
"376 917 OFFCURVE",
"396 927 OFFCURVE",
"426 927 CURVE SMOOTH",
"467 927 OFFCURVE",
"509 881 OFFCURVE",
"558 881 CURVE SMOOTH"
);
}
);
width = 700;
}
);
leftKerningGroup = A;
note = Acircumflextilde;
rightKerningGroup = A;
unicode = 1EAA;
},
{
glyphname = Adieresis;
lastChange = "2015-11-29 23:51:23 +0000";
layers = (
{
layerId = "C023BAC7-6FF9-47E4-9D72-1131A8F8A065";
name = "Light Italic";
paths = (
{
closed = 1;
nodes = (
"40 0 LINE",
"171 215 LINE",
"523 215 LINE",
"564 0 LINE",
"590 0 LINE",
"459 699 LINE",
"437 699 LINE",
"10 0 LINE"
);
},
{
closed = 1;
nodes = (
"441 657 LINE",
"518 239 LINE",
"186 239 LINE"
);
},
{
closed = 1;
nodes = (
"381 778 OFFCURVE",
"396 791 OFFCURVE",
"400 806 CURVE",
"403 821 OFFCURVE",
"392 834 OFFCURVE",
"377 834 CURVE SMOOTH",
"362 834 OFFCURVE",
"347 821 OFFCURVE",
"344 806 CURVE",
"340 791 OFFCURVE",
"351 778 OFFCURVE",
"366 778 CURVE SMOOTH"
);
},
{
closed = 1;
nodes = (
"579 778 OFFCURVE",
"594 791 OFFCURVE",
"598 806 CURVE",
"601 821 OFFCURVE",
"590 834 OFFCURVE",
"575 834 CURVE SMOOTH",
"560 834 OFFCURVE",
"545 821 OFFCURVE",
"542 806 CURVE",
"538 791 OFFCURVE",
"549 778 OFFCURVE",
"564 778 CURVE SMOOTH"
);
}
);
width = 700;
}
);
leftKerningGroup = A;
note = Adieresis;
rightKerningGroup = A;
unicode = 00C4;
},
{
glyphname = Adotbelow;
lastChange = "2015-11-29 23:51:23 +0000";
layers = (
{
layerId = "C023BAC7-6FF9-47E4-9D72-1131A8F8A065";
name = "Light Italic";
paths = (
{
closed = 1;
nodes = (
"40 0 LINE",
"171 215 LINE",
"523 215 LINE",
"564 0 LINE",
"590 0 LINE",
"459 699 LINE",
"437 699 LINE",
"10 0 LINE"
);
},
{
closed = 1;
nodes = (
"290 -121 OFFCURVE",
"305 -108 OFFCURVE",
"308 -93 CURVE SMOOTH",
"311 -78 OFFCURVE",
"301 -65 OFFCURVE",
"287 -65 CURVE SMOOTH",
"272 -65 OFFCURVE",
"256 -78 OFFCURVE",
"253 -93 CURVE SMOOTH",
"250 -108 OFFCURVE",
"260 -121 OFFCURVE",
"275 -121 CURVE SMOOTH"
);
},
{
closed = 1;
nodes = (
"441 657 LINE",
"518 239 LINE",
"186 239 LINE"
);
}
);
width = 700;
}
);
leftKerningGroup = A;
note = Adotbelow;
rightKerningGroup = A;
unicode = 1EA0;
},
{
glyphname = Agrave;
lastChange = "2015-11-29 23:51:20 +0000";
layers = (
{
layerId = "C023BAC7-6FF9-47E4-9D72-1131A8F8A065";
name = "Light Italic";
paths = (
{
closed = 1;
nodes = (
"40 0 LINE",
"171 215 LINE",
"523 215 LINE",
"564 0 LINE",
"590 0 LINE",
"459 699 LINE",
"437 699 LINE",
"10 0 LINE"
);
},
{
closed = 1;
nodes = (
"441 657 LINE",
"518 239 LINE",
"186 239 LINE"
);
},
{
closed = 1;
nodes = (
"457 768 LINE",
"422 935 LINE",
"394 935 LINE",
"435 768 LINE"
);
}
);
width = 700;
}
);
leftKerningGroup = A;
note = Agrave;
rightKerningGroup = A;
unicode = 00C0;
},
{
glyphname = Ahookabove;
lastChange = "2015-11-29 23:51:21 +0000";
layers = (
{
layerId = "C023BAC7-6FF9-47E4-9D72-1131A8F8A065";
name = "Light Italic";
paths = (
{
closed = 1;
nodes = (
"40 0 LINE",
"171 215 LINE",
"523 215 LINE",
"564 0 LINE",
"590 0 LINE",
"459 699 LINE",
"437 699 LINE",
"10 0 LINE"
);
},
{
closed = 1;
nodes = (
"441 657 LINE",
"518 239 LINE",
"186 239 LINE"
);
},
{
closed = 1;
nodes = (
"470 744 LINE",
"479 788 LINE",
"545 791 OFFCURVE",
"584 826 OFFCURVE",
"595 875 CURVE SMOOTH",
"605 925 OFFCURVE",
"579 961 OFFCURVE",
"510 961 CURVE SMOOTH",
"490 961 OFFCURVE",
"465 957 OFFCURVE",
"453 953 CURVE",
"448 929 LINE",
"461 934 OFFCURVE",
"487 937 OFFCURVE",
"505 937 CURVE SMOOTH",
"553 937 OFFCURVE",
"578 918 OFFCURVE",
"568 874 CURVE SMOOTH",
"559 830 OFFCURVE",
"532 807 OFFCURVE",
"460 807 CURVE",
"447 744 LINE"
);
}
);
width = 700;
}
);
leftKerningGroup = A;
note = Ahookabove;
rightKerningGroup = A;
unicode = 1EA2;
},
{
glyphname = Amacron;
lastChange = "2015-11-29 23:51:21 +0000";
layers = (
{
layerId = "C023BAC7-6FF9-47E4-9D72-1131A8F8A065";
name = "Light Italic";
paths = (
{
closed = 1;
nodes = (
"40 0 LINE",
"171 215 LINE",
"523 215 LINE",
"564 0 LINE",
"590 0 LINE",
"459 699 LINE",
"437 699 LINE",
"10 0 LINE"
);
},
{
closed = 1;
nodes = (
"441 657 LINE",
"518 239 LINE",
"186 239 LINE"
);
},
{
closed = 1;
nodes = (
"613 825 LINE",
"619 849 LINE",
"341 849 LINE",
"335 825 LINE"
);
}
);
width = 700;
}
);
leftKerningGroup = A;
note = Amacron;
rightKerningGroup = A;
unicode = 0100;
},
{
glyphname = Aogonek;
lastChange = "2015-11-29 23:51:22 +0000";
layers = (
{
layerId = "C023BAC7-6FF9-47E4-9D72-1131A8F8A065";
name = "Light Italic";
paths = (
{
closed = 1;
nodes = (
"544 -206 OFFCURVE",
"558 -203 OFFCURVE",
"570 -198 CURVE",
"576 -174 LINE",
"562 -179 OFFCURVE",
"546 -182 OFFCURVE",
"529 -182 CURVE SMOOTH",
"498 -182 OFFCURVE",
"477 -164 OFFCURVE",
"485 -125 CURVE SMOOTH",
"495 -76 OFFCURVE",
"536 -36 OFFCURVE",
"590 0 CURVE",
"459 699 LINE",
"437 699 LINE",
"10 0 LINE",
"40 0 LINE",
"171 215 LINE",
"523 215 LINE",
"564 0 LINE",
"515 -27 OFFCURVE",
"470 -73 OFFCURVE",
"459 -125 CURVE SMOOTH",
"447 -179 OFFCURVE",
"481 -206 OFFCURVE",
"524 -206 CURVE SMOOTH"
);
},
{
closed = 1;
nodes = (
"441 657 LINE",
"518 239 LINE",
"186 239 LINE"
);
}
);
width = 706;
}
);
leftKerningGroup = A;
note = Aogonek;
rightKerningGroup = A;
unicode = 0104;
},
{
glyphname = Aring;
lastChange = "2015-11-29 23:51:21 +0000";
layers = (
{
layerId = "C023BAC7-6FF9-47E4-9D72-1131A8F8A065";
name = "Light Italic";
paths = (
{
closed = 1;
nodes = (
"38 0 LINE",
"169 215 LINE",
"521 215 LINE",
"562 0 LINE",
"590 0 LINE",
"462 680 LINE",
"505 688 OFFCURVE",
"545 725 OFFCURVE",
"554 769 CURVE SMOOTH",
"565 819 OFFCURVE",
"532 860 OFFCURVE",
"482 860 CURVE SMOOTH",
"432 860 OFFCURVE",
"383 819 OFFCURVE",
"372 769 CURVE SMOOTH",
"363 725 OFFCURVE",
"386 688 OFFCURVE",
"425 680 CURVE",
"10 0 LINE"
);
},
{
closed = 1;
nodes = (
"439 657 LINE",
"516 239 LINE",
"184 239 LINE"
);
},
{
closed = 1;
nodes = (
"408 702 OFFCURVE",
"386 733 OFFCURVE",
"394 769 CURVE SMOOTH",
"402 807 OFFCURVE",
"439 839 OFFCURVE",
"478 839 CURVE SMOOTH",
"517 839 OFFCURVE",
"540 807 OFFCURVE",
"532 769 CURVE SMOOTH",
"524 733 OFFCURVE",
"491 702 OFFCURVE",
"454 699 CURVE",
"442 699 LINE"
);
}
);
width = 700;
}
);
leftKerningGroup = A;
note = Aring;
rightKerningGroup = A;
unicode = 00C5;
},
{
glyphname = Aringacute;
lastChange = "2015-11-29 23:51:21 +0000";
layers = (
{
layerId = "C023BAC7-6FF9-47E4-9D72-1131A8F8A065";
name = "Light Italic";
paths = (
{
closed = 1;
nodes = (
"38 0 LINE",
"169 215 LINE",
"521 215 LINE",
"562 0 LINE",
"590 0 LINE",
"462 680 LINE",
"505 688 OFFCURVE",
"545 725 OFFCURVE",
"554 769 CURVE SMOOTH",
"565 819 OFFCURVE",
"532 860 OFFCURVE",
"482 860 CURVE SMOOTH",
"432 860 OFFCURVE",
"383 819 OFFCURVE",
"372 769 CURVE SMOOTH",
"363 725 OFFCURVE",
"386 688 OFFCURVE",
"425 680 CURVE",
"10 0 LINE"
);
},
{
closed = 1;
nodes = (
"439 657 LINE",
"516 239 LINE",
"184 239 LINE"
);
},
{
closed = 1;
nodes = (
"408 702 OFFCURVE",
"386 733 OFFCURVE",
"394 769 CURVE SMOOTH",
"402 807 OFFCURVE",
"439 839 OFFCURVE",
"478 839 CURVE SMOOTH",
"517 839 OFFCURVE",
"540 807 OFFCURVE",
"532 769 CURVE SMOOTH",
"524 733 OFFCURVE",
"491 702 OFFCURVE",
"454 699 CURVE",
"442 699 LINE"
);
},
{
closed = 1;
nodes = (
"523 894 LINE",
"636 1027 LINE",
"608 1027 LINE",
"501 894 LINE"
);
}
);
width = 700;
}
);
leftKerningGroup = A;
note = Aringacute;
rightKerningGroup = A;
unicode = 01FA;
},
{
glyphname = Atilde;
lastChange = "2015-11-29 23:51:21 +0000";
layers = (
{
layerId = "C023BAC7-6FF9-47E4-9D72-1131A8F8A065";
name = "Light Italic";
paths = (
{
closed = 1;
nodes = (
"40 0 LINE",
"171 215 LINE",
"523 215 LINE",
"564 0 LINE",
"590 0 LINE",
"459 699 LINE",
"437 699 LINE",
"10 0 LINE"
);
},
{
closed = 1;
nodes = (
"441 657 LINE",
"518 239 LINE",
"186 239 LINE"
);
},
{
closed = 1;
nodes = (
"327 829 OFFCURVE",
"359 840 OFFCURVE",
"392 840 CURVE SMOOTH",
"456 840 OFFCURVE",
"482 790 OFFCURVE",
"555 790 CURVE SMOOTH",
"592 790 OFFCURVE",
"628 802 OFFCURVE",
"654 835 CURVE",
"661 868 LINE",
"627 825 OFFCURVE",
"593 814 OFFCURVE",
"560 814 CURVE SMOOTH",
"495 814 OFFCURVE",
"465 864 OFFCURVE",
"397 864 CURVE SMOOTH",
"360 864 OFFCURVE",
"324 852 OFFCURVE",
"297 819 CURVE",
"290 786 LINE"
);
}
);
width = 700;
}
);
leftKerningGroup = A;
note = Atilde;
rightKerningGroup = A;
unicode = 00C3;
},
{
glyphname = AE;
lastChange = "2015-11-29 23:51:23 +0000";
layers = (
{
layerId = "C023BAC7-6FF9-47E4-9D72-1131A8F8A065";
name = "Light Italic";
paths = (
{
closed = 1;
nodes = (
"38 0 LINE",
"200 215 LINE",
"475 215 LINE",
"430 0 LINE",
"807 0 LINE",
"812 24 LINE",
"463 24 LINE",
"529 338 LINE",
"782 338 LINE",
"787 362 LINE",
"534 362 LINE",
"601 675 LINE",
"950 675 LINE",
"955 699 LINE",
"539 699 LINE",
"10 0 LINE"
);
},
{
closed = 1;
nodes = (
"549 675 LINE",
"573 675 LINE",
"480 239 LINE",
"218 239 LINE"
);
}
);
width = 917;
}
);
leftKerningGroup = A;
note = AE;
rightKerningGroup = E;
unicode = 00C6;
},
{
glyphname = AEacute;
lastChange = "2015-11-29 23:51:20 +0000";
layers = (
{
layerId = "C023BAC7-6FF9-47E4-9D72-1131A8F8A065";
name = "Light Italic";
paths = (
{
closed = 1;
nodes = (
"38 0 LINE",
"200 215 LINE",
"475 215 LINE",
"430 0 LINE",
"807 0 LINE",
"812 24 LINE",
"463 24 LINE",
"529 338 LINE",
"782 338 LINE",
"787 362 LINE",
"534 362 LINE",
"601 675 LINE",
"950 675 LINE",
"955 699 LINE",
"539 699 LINE",
"10 0 LINE"
);
},
{
closed = 1;
nodes = (
"549 675 LINE",
"573 675 LINE",
"480 239 LINE",
"218 239 LINE"
);
},
{
closed = 1;
nodes = (
"630 784 LINE",
"743 951 LINE",
"715 951 LINE",
"608 784 LINE"
);
}
);
width = 917;
}
);
leftKerningGroup = A;
note = AEacute;
rightKerningGroup = E;
unicode = 01FC;
},
{
glyphname = B;
lastChange = "2015-11-29 23:51:22 +0000";
layers = (
{
layerId = "C023BAC7-6FF9-47E4-9D72-1131A8F8A065";
name = "Light Italic";
paths = (
{
closed = 1;
nodes = (
"336 0 LINE SMOOTH",
"443 0 OFFCURVE",
"528 67 OFFCURVE",
"554 184 CURVE SMOOTH",
"575 278 OFFCURVE",
"534 343 OFFCURVE",
"463 358 CURVE",
"522 380 OFFCURVE",
"583 438 OFFCURVE",
"600 521 CURVE SMOOTH",
"626 642 OFFCURVE",
"575 699 OFFCURVE",
"466 699 CURVE SMOOTH",
"178 699 LINE",
"30 0 LINE"
);
},
{
closed = 1;
nodes = (
"131 346 LINE",
"395 346 LINE SMOOTH",
"500 346 OFFCURVE",
"552 298 OFFCURVE",
"528 184 CURVE SMOOTH",
"503 67 OFFCURVE",
"409 24 OFFCURVE",
"334 24 CURVE SMOOTH",
"63 24 LINE"
);
},
{
closed = 1;
nodes = (
"201 675 LINE",
"465 675 LINE SMOOTH",
"547 675 OFFCURVE",
"600 641 OFFCURVE",
"574 521 CURVE SMOOTH",
"554 424 OFFCURVE",
"478 370 OFFCURVE",
"411 370 CURVE SMOOTH",
"136 370 LINE"
);
}
);
width = 625;
}
);
note = B;
unicode = 0042;
},
{
glyphname = C;
lastChange = "2015-11-29 23:51:21 +0000";
layers = (
{
layerId = "C023BAC7-6FF9-47E4-9D72-1131A8F8A065";
name = "Light Italic";
paths = (
{
closed = 1;
nodes = (
"466 -15 OFFCURVE",
"556 9 OFFCURVE",
"633 72 CURVE",
"639 103 LINE",
"557 34 OFFCURVE",
"470 9 OFFCURVE",
"372 9 CURVE SMOOTH",
"182 9 OFFCURVE",
"65 139 OFFCURVE",
"110 349 CURVE SMOOTH",
"154 558 OFFCURVE",
"330 690 OFFCURVE",
"517 690 CURVE SMOOTH",
"608 690 OFFCURVE",
"686 664 OFFCURVE",
"736 603 CURVE",
"743 632 LINE",
"692 687 OFFCURVE",
"616 714 OFFCURVE",
"522 714 CURVE SMOOTH",
"312 714 OFFCURVE",
"133 567 OFFCURVE",
"84 349 CURVE SMOOTH",
"36 137 OFFCURVE",
"162 -15 OFFCURVE",
"367 -15 CURVE SMOOTH"
);
}
);
width = 728;
}
);
leftKerningGroup = C;
note = C;
rightKerningGroup = C;
unicode = 0043;
},
{
glyphname = Cacute;
lastChange = "2015-11-29 23:51:22 +0000";
layers = (
{
layerId = "C023BAC7-6FF9-47E4-9D72-1131A8F8A065";
name = "Light Italic";
paths = (
{
closed = 1;
nodes = (
"466 -15 OFFCURVE",
"556 9 OFFCURVE",
"633 72 CURVE",
"639 103 LINE",
"557 34 OFFCURVE",
"470 9 OFFCURVE",
"372 9 CURVE SMOOTH",
"182 9 OFFCURVE",
"65 139 OFFCURVE",
"110 349 CURVE SMOOTH",
"154 558 OFFCURVE",
"330 690 OFFCURVE",
"517 690 CURVE SMOOTH",
"608 690 OFFCURVE",
"686 664 OFFCURVE",
"736 603 CURVE",
"743 632 LINE",
"692 687 OFFCURVE",
"616 714 OFFCURVE",
"522 714 CURVE SMOOTH",
"312 714 OFFCURVE",
"133 567 OFFCURVE",
"84 349 CURVE SMOOTH",
"36 137 OFFCURVE",
"162 -15 OFFCURVE",
"367 -15 CURVE SMOOTH"
);
},
{
closed = 1;
nodes = (
"519 792 LINE",
"632 959 LINE",
"604 959 LINE",
"497 792 LINE"
);
}
);
width = 728;
}
);
leftKerningGroup = C;
note = Cacute;
rightKerningGroup = C;
unicode = 0106;
},
{
glyphname = Ccaron;
lastChange = "2015-11-29 23:51:21 +0000";
layers = (
{
layerId = "C023BAC7-6FF9-47E4-9D72-1131A8F8A065";
name = "Light Italic";
paths = (
{
closed = 1;
nodes = (
"466 -15 OFFCURVE",
"556 9 OFFCURVE",
"633 72 CURVE",
"639 103 LINE",
"557 34 OFFCURVE",
"470 9 OFFCURVE",
"372 9 CURVE SMOOTH",
"182 9 OFFCURVE",
"65 139 OFFCURVE",
"110 349 CURVE SMOOTH",
"154 558 OFFCURVE",
"330 690 OFFCURVE",
"517 690 CURVE SMOOTH",
"608 690 OFFCURVE",
"686 664 OFFCURVE",
"736 603 CURVE",
"743 632 LINE",
"692 687 OFFCURVE",
"616 714 OFFCURVE",
"522 714 CURVE SMOOTH",
"312 714 OFFCURVE",
"133 567 OFFCURVE",
"84 349 CURVE SMOOTH",
"36 137 OFFCURVE",
"162 -15 OFFCURVE",
"367 -15 CURVE SMOOTH"
);
},
{
closed = 1;
nodes = (
"547 798 LINE",
"707 949 LINE",
"674 949 LINE",
"538 820 LINE",
"458 949 LINE",
"429 949 LINE",
"525 798 LINE"
);
}
);
width = 728;
}
);
leftKerningGroup = C;
note = Ccaron;
rightKerningGroup = C;
unicode = 010C;
},
{
glyphname = Ccedilla;
lastChange = "2015-11-29 23:51:24 +0000";
layers = (
{
layerId = "C023BAC7-6FF9-47E4-9D72-1131A8F8A065";
name = "Light Italic";
paths = (
{
closed = 1;
nodes = (
"378 -248 OFFCURVE",
"418 -212 OFFCURVE",
"429 -162 CURVE SMOOTH",
"439 -113 OFFCURVE",
"417 -77 OFFCURVE",
"352 -74 CURVE",
"387 -15 LINE",
"478 -12 OFFCURVE",
"561 13 OFFCURVE",
"633 72 CURVE",
"639 103 LINE",
"557 34 OFFCURVE",
"470 9 OFFCURVE",
"372 9 CURVE SMOOTH",
"182 9 OFFCURVE",
"65 139 OFFCURVE",
"110 349 CURVE SMOOTH",
"154 558 OFFCURVE",
"330 690 OFFCURVE",
"517 690 CURVE SMOOTH",
"608 690 OFFCURVE",
"686 664 OFFCURVE",
"736 603 CURVE",
"743 632 LINE",
"692 687 OFFCURVE",
"616 714 OFFCURVE",
"522 714 CURVE SMOOTH",
"312 714 OFFCURVE",
"133 567 OFFCURVE",
"84 349 CURVE SMOOTH",
"36 139 OFFCURVE",
"159 -11 OFFCURVE",
"359 -14 CURVE",
"313 -93 LINE",
"394 -93 OFFCURVE",
"413 -117 OFFCURVE",
"403 -161 CURVE SMOOTH",
"394 -205 OFFCURVE",
"362 -224 OFFCURVE",
"314 -224 CURVE SMOOTH",
"296 -224 OFFCURVE",
"272 -221 OFFCURVE",
"261 -216 CURVE",
"255 -240 LINE",
"266 -244 OFFCURVE",
"289 -248 OFFCURVE",
"309 -248 CURVE SMOOTH"
);
}
);
width = 728;
}
);
leftKerningGroup = C;
note = Ccedilla;
rightKerningGroup = C;
unicode = 00C7;
},
{
glyphname = Ccircumflex;
lastChange = "2015-11-29 23:51:22 +0000";
layers = (
{
layerId = "C023BAC7-6FF9-47E4-9D72-1131A8F8A065";
name = "Light Italic";
paths = (
{
closed = 1;
nodes = (
"466 -15 OFFCURVE",
"556 9 OFFCURVE",
"633 72 CURVE",
"639 103 LINE",
"557 34 OFFCURVE",
"470 9 OFFCURVE",
"372 9 CURVE SMOOTH",
"182 9 OFFCURVE",
"65 139 OFFCURVE",
"110 349 CURVE SMOOTH",
"154 558 OFFCURVE",
"330 690 OFFCURVE",
"517 690 CURVE SMOOTH",
"608 690 OFFCURVE",
"686 664 OFFCURVE",
"736 603 CURVE",
"743 632 LINE",
"692 687 OFFCURVE",
"616 714 OFFCURVE",
"522 714 CURVE SMOOTH",
"312 714 OFFCURVE",
"133 567 OFFCURVE",
"84 349 CURVE SMOOTH",
"36 137 OFFCURVE",
"162 -15 OFFCURVE",
"367 -15 CURVE SMOOTH"
);
},
{
closed = 1;
nodes = (
"423 786 LINE",
"558 915 LINE",
"639 786 LINE",
"668 786 LINE",
"572 937 LINE",
"550 937 LINE",
"391 786 LINE"
);
}
);
width = 728;
}
);
leftKerningGroup = C;
note = Ccircumflex;
rightKerningGroup = C;
unicode = 0108;
},
{
glyphname = Cdotaccent;
lastChange = "2015-11-29 23:51:21 +0000";
layers = (
{
layerId = "C023BAC7-6FF9-47E4-9D72-1131A8F8A065";
name = "Light Italic";
paths = (
{
closed = 1;
nodes = (
"466 -15 OFFCURVE",
"556 9 OFFCURVE",
"633 72 CURVE",
"639 103 LINE",
"557 34 OFFCURVE",
"470 9 OFFCURVE",
"372 9 CURVE SMOOTH",
"182 9 OFFCURVE",
"65 139 OFFCURVE",
"110 349 CURVE SMOOTH",
"154 558 OFFCURVE",
"330 690 OFFCURVE",
"517 690 CURVE SMOOTH",
"608 690 OFFCURVE",
"686 664 OFFCURVE",
"736 603 CURVE",
"743 632 LINE",
"692 687 OFFCURVE",
"616 714 OFFCURVE",
"522 714 CURVE SMOOTH",
"312 714 OFFCURVE",
"133 567 OFFCURVE",
"84 349 CURVE SMOOTH",
"36 137 OFFCURVE",
"162 -15 OFFCURVE",
"367 -15 CURVE SMOOTH"
);
},
{
closed = 1;
nodes = (
"559 802 OFFCURVE",
"574 815 OFFCURVE",
"578 830 CURVE",
"581 845 OFFCURVE",
"570 858 OFFCURVE",
"555 858 CURVE SMOOTH",
"540 858 OFFCURVE",
"525 845 OFFCURVE",
"522 830 CURVE",
"518 815 OFFCURVE",
"529 802 OFFCURVE",
"544 802 CURVE SMOOTH"
);
}
);
width = 728;
}
);
leftKerningGroup = C;
note = Cdotaccent;
rightKerningGroup = C;
unicode = 010A;
},
{
glyphname = D;
lastChange = "2015-11-29 23:51:24 +0000";
layers = (
{
layerId = "C023BAC7-6FF9-47E4-9D72-1131A8F8A065";
name = "Light Italic";
paths = (
{
closed = 1;
nodes = (
"208 0 LINE SMOOTH",
"457 0 OFFCURVE",
"609 114 OFFCURVE",
"661 353 CURVE SMOOTH",
"707 566 OFFCURVE",
"601 699 OFFCURVE",
"377 699 CURVE SMOOTH",
"178 699 LINE",
"30 0 LINE"
);
},
{
closed = 1;
nodes = (
"201 675 LINE",
"367 675 LINE SMOOTH",
"589 675 OFFCURVE",
"678 556 OFFCURVE",
"635 353 CURVE SMOOTH",
"589 137 OFFCURVE",
"446 24 OFFCURVE",
"201 24 CURVE SMOOTH",
"63 24 LINE"
);
}
);
width = 696;
}
);
note = D;
rightKerningGroup = D;
unicode = 0044;
},
{
glyphname = Eth;
lastChange = "2015-11-29 23:51:22 +0000";
layers = (
{
layerId = "C023BAC7-6FF9-47E4-9D72-1131A8F8A065";
name = "Light Italic";
paths = (
{
closed = 1;
nodes = (
"246 0 LINE SMOOTH",
"495 0 OFFCURVE",
"649 117 OFFCURVE",
"700 353 CURVE SMOOTH",
"745 566 OFFCURVE",
"640 699 OFFCURVE",
"416 699 CURVE SMOOTH",
"217 699 LINE",
"145 361 LINE",
"66 361 LINE",
"61 337 LINE",
"140 337 LINE",
"69 0 LINE"
);
},
{
closed = 1;
nodes = (
"168 337 LINE",
"394 337 LINE",
"399 361 LINE",
"173 361 LINE",
"240 675 LINE",
"406 675 LINE SMOOTH",
"628 675 OFFCURVE",
"717 556 OFFCURVE",
"674 353 CURVE SMOOTH",
"628 137 OFFCURVE",
"485 24 OFFCURVE",
"240 24 CURVE SMOOTH",
"102 24 LINE"
);
}
);
width = 715;
}
);
note = Eth;
rightKerningGroup = D;
unicode = 00D0;
},
{
glyphname = Dcaron;
lastChange = "2015-11-29 23:51:22 +0000";
layers = (
{
layerId = "C023BAC7-6FF9-47E4-9D72-1131A8F8A065";
name = "Light Italic";
paths = (
{
closed = 1;
nodes = (
"208 0 LINE SMOOTH",
"457 0 OFFCURVE",
"609 114 OFFCURVE",
"661 353 CURVE SMOOTH",
"707 566 OFFCURVE",
"601 699 OFFCURVE",
"377 699 CURVE SMOOTH",
"178 699 LINE",
"30 0 LINE"
);
},
{
closed = 1;
nodes = (
"201 675 LINE",
"367 675 LINE SMOOTH",
"589 675 OFFCURVE",
"678 556 OFFCURVE",
"635 353 CURVE SMOOTH",
"589 137 OFFCURVE",
"446 24 OFFCURVE",
"201 24 CURVE SMOOTH",
"63 24 LINE"
);
},
{
closed = 1;
nodes = (
"413 798 LINE",
"573 949 LINE",
"540 949 LINE",
"404 820 LINE",
"324 949 LINE",
"295 949 LINE",
"391 798 LINE"
);
}
);
width = 696;
}
);
note = Dcaron;
rightKerningGroup = D;
unicode = 010E;
},
{
glyphname = Dcroat;
lastChange = "2015-11-29 23:51:20 +0000";
layers = (
{
layerId = "C023BAC7-6FF9-47E4-9D72-1131A8F8A065";
name = "Light Italic";
paths = (
{
closed = 1;
nodes = (
"236 0 LINE SMOOTH",
"481 0 OFFCURVE",
"639 117 OFFCURVE",
"690 353 CURVE SMOOTH",
"735 566 OFFCURVE",
"630 699 OFFCURVE",
"406 699 CURVE SMOOTH",
"207 699 LINE",
"135 361 LINE",
"56 361 LINE",
"51 337 LINE",
"130 337 LINE",
"59 0 LINE"
);
},
{
closed = 1;
nodes = (
"158 337 LINE",
"384 337 LINE",
"389 361 LINE",
"163 361 LINE",
"230 675 LINE",
"394 675 LINE SMOOTH",
"616 675 OFFCURVE",
"707 556 OFFCURVE",
"664 353 CURVE SMOOTH",
"618 137 OFFCURVE",
"475 24 OFFCURVE",
"230 24 CURVE SMOOTH",
"92 24 LINE"
);
}
);
width = 725;
}
);
note = Dcroat;
rightKerningGroup = D;
unicode = 0110;
},
{
glyphname = Ddotbelow;
lastChange = "2015-11-29 23:51:20 +0000";
layers = (
{
layerId = "C023BAC7-6FF9-47E4-9D72-1131A8F8A065";
name = "Light Italic";
paths = (
{
closed = 1;
nodes = (
"208 0 LINE SMOOTH",
"457 0 OFFCURVE",
"609 114 OFFCURVE",
"661 353 CURVE SMOOTH",
"707 566 OFFCURVE",
"601 699 OFFCURVE",
"377 699 CURVE SMOOTH",
"178 699 LINE",
"30 0 LINE"
);
},
{
closed = 1;
nodes = (
"214 -121 OFFCURVE",
"229 -108 OFFCURVE",
"232 -93 CURVE SMOOTH",
"235 -78 OFFCURVE",
"225 -65 OFFCURVE",
"211 -65 CURVE SMOOTH",
"196 -65 OFFCURVE",
"180 -78 OFFCURVE",
"177 -93 CURVE SMOOTH",
"174 -108 OFFCURVE",
"184 -121 OFFCURVE",
"199 -121 CURVE SMOOTH"
);
},
{
closed = 1;
nodes = (
"201 675 LINE",
"367 675 LINE SMOOTH",
"589 675 OFFCURVE",
"678 556 OFFCURVE",
"635 353 CURVE SMOOTH",
"589 137 OFFCURVE",
"446 24 OFFCURVE",
"201 24 CURVE SMOOTH",
"63 24 LINE"
);
}
);
width = 696;
}
);
note = Ddotbelow;
rightKerningGroup = D;
unicode = 1E0C;
},
{
glyphname = Dlinebelow;
lastChange = "2015-11-29 23:51:22 +0000";
layers = (
{
layerId = "C023BAC7-6FF9-47E4-9D72-1131A8F8A065";
name = "Light Italic";
paths = (
{
closed = 1;
nodes = (
"208 0 LINE SMOOTH",
"457 0 OFFCURVE",
"609 114 OFFCURVE",
"661 353 CURVE SMOOTH",
"707 566 OFFCURVE",
"601 699 OFFCURVE",
"377 699 CURVE SMOOTH",
"178 699 LINE",
"30 0 LINE"
);
},
{
closed = 1;
nodes = (
"319 -110 LINE",
"324 -86 LINE",
"47 -86 LINE",
"42 -110 LINE"
);
},
{
closed = 1;
nodes = (
"201 675 LINE",
"367 675 LINE SMOOTH",
"589 675 OFFCURVE",
"678 556 OFFCURVE",
"635 353 CURVE SMOOTH",
"589 137 OFFCURVE",
"446 24 OFFCURVE",
"201 24 CURVE SMOOTH",
"63 24 LINE"
);
}
);
width = 696;
}
);
note = Dlinebelow;
rightKerningGroup = D;
unicode = 1E0E;
},
{
glyphname = E;
lastChange = "2015-11-29 23:51:23 +0000";
layers = (
{
layerId = "C023BAC7-6FF9-47E4-9D72-1131A8F8A065";
name = "Light Italic";
paths = (
{
closed = 1;
nodes = (
"457 0 LINE",
"462 24 LINE",
"63 24 LINE",
"129 338 LINE",
"432 338 LINE",
"437 362 LINE",
"134 362 LINE",
"201 675 LINE",
"600 675 LINE",
"605 699 LINE",
"178 699 LINE",
"30 0 LINE"
);
}
);
width = 557;
}
);
leftKerningGroup = E;
note = E;
rightKerningGroup = E;
unicode = 0045;
},
{
glyphname = Eacute;
lastChange = "2015-11-29 23:51:24 +0000";
layers = (
{
layerId = "C023BAC7-6FF9-47E4-9D72-1131A8F8A065";
name = "Light Italic";
paths = (
{
closed = 1;
nodes = (
"457 0 LINE",
"462 24 LINE",
"63 24 LINE",
"129 338 LINE",
"432 338 LINE",
"437 362 LINE",
"134 362 LINE",
"201 675 LINE",
"600 675 LINE",
"605 699 LINE",
"178 699 LINE",
"30 0 LINE"
);
},
{
closed = 1;
nodes = (
"381 792 LINE",
"494 959 LINE",
"466 959 LINE",
"359 792 LINE"
);
}
);
width = 557;
}
);
leftKerningGroup = E;
note = Eacute;
rightKerningGroup = E;
unicode = 00C9;
},
{
glyphname = Ebreve;
lastChange = "2015-11-29 23:51:24 +0000";
layers = (
{
layerId = "C023BAC7-6FF9-47E4-9D72-1131A8F8A065";
name = "Light Italic";
paths = (
{
closed = 1;
nodes = (
"457 0 LINE",
"462 24 LINE",
"63 24 LINE",
"129 338 LINE",
"432 338 LINE",
"437 362 LINE",
"134 362 LINE",
"201 675 LINE",
"600 675 LINE",
"605 699 LINE",
"178 699 LINE",
"30 0 LINE"
);
},
{
closed = 1;
nodes = (
"466 770 OFFCURVE",
"524 818 OFFCURVE",
"537 878 CURVE",
"511 878 LINE",
"501 830 OFFCURVE",
"458 793 OFFCURVE",
"399 793 CURVE SMOOTH",
"341 793 OFFCURVE",
"313 830 OFFCURVE",
"323 878 CURVE",
"301 878 LINE",
"288 818 OFFCURVE",
"326 770 OFFCURVE",
"396 770 CURVE SMOOTH"
);
}
);
width = 567;
}
);
leftKerningGroup = E;
note = Ebreve;
rightKerningGroup = E;
unicode = 0114;
},
{
glyphname = Ecaron;
lastChange = "2015-11-29 23:51:22 +0000";
layers = (
{
layerId = "C023BAC7-6FF9-47E4-9D72-1131A8F8A065";
name = "Light Italic";
paths = (
{
closed = 1;
nodes = (
"457 0 LINE",
"462 24 LINE",
"63 24 LINE",
"129 338 LINE",
"432 338 LINE",
"437 362 LINE",
"134 362 LINE",
"201 675 LINE",
"600 675 LINE",
"605 699 LINE",
"178 699 LINE",
"30 0 LINE"
);
},
{
closed = 1;
nodes = (
"403 798 LINE",
"563 949 LINE",
"530 949 LINE",
"394 820 LINE",
"314 949 LINE",
"285 949 LINE",
"381 798 LINE"
);
}
);
width = 567;
}
);
leftKerningGroup = E;
note = Ecaron;
rightKerningGroup = E;
unicode = 011A;
},
{
glyphname = Ecircumflex;
lastChange = "2015-11-29 23:51:20 +0000";
layers = (
{
layerId = "C023BAC7-6FF9-47E4-9D72-1131A8F8A065";
name = "Light Italic";
paths = (
{
closed = 1;
nodes = (
"457 0 LINE",
"462 24 LINE",
"63 24 LINE",
"129 338 LINE",
"432 338 LINE",
"437 362 LINE",
"134 362 LINE",
"201 675 LINE",
"600 675 LINE",
"605 699 LINE",
"178 699 LINE",
"30 0 LINE"
);
},
{
closed = 1;
nodes = (
"299 774 LINE",
"434 903 LINE",
"515 774 LINE",
"544 774 LINE",
"448 925 LINE",
"426 925 LINE",
"267 774 LINE"
);
}
);
width = 567;
}
);
leftKerningGroup = E;
note = Ecircumflex;
rightKerningGroup = E;
unicode = 00CA;
},
{
glyphname = Ecircumflexacute;
lastChange = "2015-11-29 23:51:21 +0000";
layers = (
{
layerId = "C023BAC7-6FF9-47E4-9D72-1131A8F8A065";
name = "Light Italic";
paths = (
{
closed = 1;
nodes = (
"457 0 LINE",
"462 24 LINE",
"63 24 LINE",
"129 338 LINE",
"432 338 LINE",
"437 362 LINE",
"134 362 LINE",
"201 675 LINE",
"600 675 LINE",
"605 699 LINE",
"178 699 LINE",
"30 0 LINE"
);
},
{
closed = 1;
nodes = (
"278 757 LINE",
"407 859 LINE",
"494 757 LINE",
"525 757 LINE",
"422 878 LINE",
"400 878 LINE",
"247 757 LINE"
);
},
{
closed = 1;
nodes = (
"507 840 LINE",
"600 948 LINE",
"572 948 LINE",
"485 840 LINE"
);
}
);
width = 567;
}
);
leftKerningGroup = E;
note = Ecircumflexacute;
rightKerningGroup = E;
unicode = 1EBE;
},
{
glyphname = Ecircumflexdotbelow;
lastChange = "2015-11-29 23:51:24 +0000";
layers = (
{
layerId = "C023BAC7-6FF9-47E4-9D72-1131A8F8A065";
name = "Light Italic";
paths = (
{
closed = 1;
nodes = (
"457 0 LINE",
"462 24 LINE",
"63 24 LINE",
"129 338 LINE",
"432 338 LINE",
"437 362 LINE",
"134 362 LINE",
"201 675 LINE",
"600 675 LINE",
"605 699 LINE",
"178 699 LINE",
"30 0 LINE"
);
},
{
closed = 1;
nodes = (
"223 -121 OFFCURVE",
"238 -108 OFFCURVE",
"241 -93 CURVE SMOOTH",
"244 -78 OFFCURVE",
"234 -65 OFFCURVE",
"220 -65 CURVE SMOOTH",
"205 -65 OFFCURVE",
"189 -78 OFFCURVE",
"186 -93 CURVE SMOOTH",
"183 -108 OFFCURVE",
"193 -121 OFFCURVE",
"208 -121 CURVE SMOOTH"
);
},
{
closed = 1;
nodes = (
"293 784 LINE",
"428 913 LINE",
"509 784 LINE",
"538 784 LINE",
"442 935 LINE",
"420 935 LINE",
"261 784 LINE"
);
}
);
width = 567;
}
);
leftKerningGroup = E;
note = Ecircumflexdotbelow;
rightKerningGroup = E;
unicode = 1EC6;
},
{
glyphname = Ecircumflexgrave;
lastChange = "2015-11-29 23:51:21 +0000";
layers = (
{
layerId = "C023BAC7-6FF9-47E4-9D72-1131A8F8A065";
name = "Light Italic";
paths = (
{
closed = 1;
nodes = (
"457 0 LINE",
"462 24 LINE",
"63 24 LINE",
"129 338 LINE",
"432 338 LINE",
"437 362 LINE",
"134 362 LINE",
"201 675 LINE",
"600 675 LINE",
"605 699 LINE",
"178 699 LINE",
"30 0 LINE"
);
},
{
closed = 1;
nodes = (
"340 840 LINE",
"298 948 LINE",
"270 948 LINE",
"318 840 LINE"
);
},
{
closed = 1;
nodes = (
"297 757 LINE",
"426 859 LINE",
"513 757 LINE",
"543 757 LINE",
"441 878 LINE",
"419 878 LINE",
"266 757 LINE"
);
}
);
width = 567;
}
);
leftKerningGroup = E;
note = Ecircumflexgrave;
rightKerningGroup = E;
unicode = 1EC0;
},
{
glyphname = Ecircumflexhookabove;
lastChange = "2015-11-29 23:51:24 +0000";
layers = (
{
layerId = "C023BAC7-6FF9-47E4-9D72-1131A8F8A065";
name = "Light Italic";
paths = (
{
closed = 1;
nodes = (
"457 0 LINE",
"462 24 LINE",
"63 24 LINE",
"129 338 LINE",
"432 338 LINE",
"437 362 LINE",
"134 362 LINE",
"201 675 LINE",
"600 675 LINE",
"605 699 LINE",
"178 699 LINE",
"30 0 LINE"
);
},
{
closed = 1;
nodes = (
"289 757 LINE",
"418 859 LINE",
"505 757 LINE",
"535 757 LINE",
"433 878 LINE",
"411 878 LINE",
"258 757 LINE"
);
},
{
closed = 1;
nodes = (
"517 830 LINE",
"523 857 LINE",
"566 859 OFFCURVE",
"597 882 OFFCURVE",
"605 917 CURVE",
"612 954 OFFCURVE",
"597 979 OFFCURVE",
"548 979 CURVE SMOOTH",
"530 979 OFFCURVE",
"510 975 OFFCURVE",
"498 971 CURVE",
"493 948 LINE",
"505 953 OFFCURVE",
"526 957 OFFCURVE",
"543 957 CURVE SMOOTH",
"573 957 OFFCURVE",
"587 947 OFFCURVE",
"581 917 CURVE SMOOTH",
"574 886 OFFCURVE",
"553 875 OFFCURVE",
"506 875 CURVE",
"496 830 LINE"
);
}
);
width = 567;
}
);
leftKerningGroup = E;
note = Ecircumflexhookabove;
rightKerningGroup = E;
unicode = 1EC2;
},
{
glyphname = Ecircumflextilde;
lastChange = "2015-11-29 23:51:21 +0000";
layers = (
{
layerId = "C023BAC7-6FF9-47E4-9D72-1131A8F8A065";
name = "Light Italic";
paths = (
{
closed = 1;
nodes = (
"457 0 LINE",
"462 24 LINE",
"63 24 LINE",
"129 338 LINE",
"432 338 LINE",
"437 362 LINE",
"134 362 LINE",
"201 675 LINE",
"600 675 LINE",
"605 699 LINE",
"178 699 LINE",
"30 0 LINE"
);
},
{
closed = 1;
nodes = (
"290 757 LINE",
"419 859 LINE",
"506 757 LINE",
"536 757 LINE",
"434 878 LINE",
"412 878 LINE",
"259 757 LINE"
);
},
{
closed = 1;
nodes = (
"530 891 OFFCURVE",
"553 902 OFFCURVE",
"573 928 CURVE",
"579 958 LINE",
"553 923 OFFCURVE",
"531 913 OFFCURVE",
"502 913 CURVE SMOOTH",
"460 913 OFFCURVE",
"415 959 OFFCURVE",
"370 959 CURVE SMOOTH",
"336 959 OFFCURVE",
"312 948 OFFCURVE",
"293 922 CURVE",
"286 892 LINE",
"315 927 OFFCURVE",
"335 937 OFFCURVE",
"365 937 CURVE SMOOTH",
"406 937 OFFCURVE",
"448 891 OFFCURVE",
"497 891 CURVE SMOOTH"
);
}
);
width = 567;
}
);
leftKerningGroup = E;
note = Ecircumflextilde;
rightKerningGroup = E;
unicode = 1EC4;
},
{
glyphname = Edieresis;
lastChange = "2015-11-29 23:51:22 +0000";
layers = (
{
layerId = "C023BAC7-6FF9-47E4-9D72-1131A8F8A065";
name = "Light Italic";
paths = (
{
closed = 1;
nodes = (
"457 0 LINE",
"462 24 LINE",
"63 24 LINE",
"129 338 LINE",
"432 338 LINE",
"437 362 LINE",
"134 362 LINE",
"201 675 LINE",
"600 675 LINE",
"605 699 LINE",
"178 699 LINE",
"30 0 LINE"
);
},
{
closed = 1;
nodes = (
"310 802 OFFCURVE",
"325 815 OFFCURVE",
"329 830 CURVE",
"332 845 OFFCURVE",
"321 858 OFFCURVE",
"306 858 CURVE SMOOTH",
"291 858 OFFCURVE",
"276 845 OFFCURVE",
"273 830 CURVE",
"269 815 OFFCURVE",
"280 802 OFFCURVE",
"295 802 CURVE SMOOTH"
);
},
{
closed = 1;
nodes = (
"508 802 OFFCURVE",
"523 815 OFFCURVE",
"527 830 CURVE",
"530 845 OFFCURVE",
"519 858 OFFCURVE",
"504 858 CURVE SMOOTH",
"489 858 OFFCURVE",
"474 845 OFFCURVE",
"471 830 CURVE",
"467 815 OFFCURVE",
"478 802 OFFCURVE",
"493 802 CURVE SMOOTH"
);
}
);
width = 567;
}
);
leftKerningGroup = E;
note = Edieresis;
rightKerningGroup = E;
unicode = 00CB;
},
{
glyphname = Edotaccent;
lastChange = "2015-11-29 23:51:21 +0000";
layers = (
{
layerId = "C023BAC7-6FF9-47E4-9D72-1131A8F8A065";
name = "Light Italic";
paths = (
{
closed = 1;
nodes = (
"457 0 LINE",
"462 24 LINE",
"63 24 LINE",
"129 338 LINE",
"432 338 LINE",
"437 362 LINE",
"134 362 LINE",
"201 675 LINE",
"600 675 LINE",
"605 699 LINE",
"178 699 LINE",
"30 0 LINE"
);
},
{
closed = 1;
nodes = (
"408 802 OFFCURVE",
"423 815 OFFCURVE",
"427 830 CURVE",
"430 845 OFFCURVE",
"419 858 OFFCURVE",
"404 858 CURVE SMOOTH",
"389 858 OFFCURVE",
"374 845 OFFCURVE",
"371 830 CURVE",
"367 815 OFFCURVE",
"378 802 OFFCURVE",
"393 802 CURVE SMOOTH"
);
}
);
width = 567;
}
);
leftKerningGroup = E;
note = Edotaccent;
rightKerningGroup = E;
unicode = 0116;
},
{
glyphname = Edotbelow;
lastChange = "2015-11-29 23:51:23 +0000";
layers = (
{
layerId = "C023BAC7-6FF9-47E4-9D72-1131A8F8A065";
name = "Light Italic";
paths = (
{
closed = 1;
nodes = (
"457 0 LINE",
"462 24 LINE",
"63 24 LINE",
"129 338 LINE",
"432 338 LINE",
"437 362 LINE",
"134 362 LINE",
"201 675 LINE",
"600 675 LINE",
"605 699 LINE",
"178 699 LINE",
"30 0 LINE"
);
},
{
closed = 1;
nodes = (
"206 -121 OFFCURVE",
"221 -108 OFFCURVE",
"224 -93 CURVE SMOOTH",
"227 -78 OFFCURVE",
"217 -65 OFFCURVE",
"203 -65 CURVE SMOOTH",
"188 -65 OFFCURVE",
"172 -78 OFFCURVE",
"169 -93 CURVE SMOOTH",
"166 -108 OFFCURVE",
"176 -121 OFFCURVE",
"191 -121 CURVE SMOOTH"
);
}
);
width = 567;
}
);
leftKerningGroup = E;
note = Edotbelow;
rightKerningGroup = E;
unicode = 1EB8;
},
{
glyphname = Egrave;
lastChange = "2015-11-29 23:51:24 +0000";
layers = (
{
layerId = "C023BAC7-6FF9-47E4-9D72-1131A8F8A065";
name = "Light Italic";
paths = (
{
closed = 1;
nodes = (
"457 0 LINE",
"462 24 LINE",
"63 24 LINE",
"129 338 LINE",
"432 338 LINE",
"437 362 LINE",
"134 362 LINE",
"201 675 LINE",
"600 675 LINE",
"605 699 LINE",
"178 699 LINE",
"30 0 LINE"
);
},
{
closed = 1;
nodes = (
"419 792 LINE",
"384 959 LINE",
"356 959 LINE",
"397 792 LINE"
);
}
);
width = 567;
}
);
leftKerningGroup = E;
note = Egrave;
rightKerningGroup = E;
unicode = 00C8;
},
{
glyphname = Ehookabove;
lastChange = "2015-11-29 23:51:21 +0000";
layers = (
{
layerId = "C023BAC7-6FF9-47E4-9D72-1131A8F8A065";
name = "Light Italic";
paths = (
{
closed = 1;
nodes = (
"457 0 LINE",
"462 24 LINE",
"63 24 LINE",
"129 338 LINE",
"432 338 LINE",
"437 362 LINE",
"134 362 LINE",
"201 675 LINE",
"600 675 LINE",
"605 699 LINE",
"178 699 LINE",
"30 0 LINE"
);
},
{
closed = 1;
nodes = (
"394 784 LINE",
"403 828 LINE",
"469 831 OFFCURVE",
"508 866 OFFCURVE",
"519 915 CURVE SMOOTH",
"529 965 OFFCURVE",
"503 1001 OFFCURVE",
"434 1001 CURVE SMOOTH",
"414 1001 OFFCURVE",
"389 997 OFFCURVE",
"377 993 CURVE",
"372 969 LINE",
"385 974 OFFCURVE",
"411 977 OFFCURVE",
"429 977 CURVE SMOOTH",
"477 977 OFFCURVE",
"502 958 OFFCURVE",
"492 914 CURVE SMOOTH",
"483 870 OFFCURVE",
"456 847 OFFCURVE",
"384 847 CURVE",
"371 784 LINE"
);
}
);
width = 567;
}
);
leftKerningGroup = E;
note = Ehookabove;
rightKerningGroup = E;
unicode = 1EBA;
},
{
glyphname = Emacron;
lastChange = "2015-11-29 23:51:24 +0000";
layers = (
{
layerId = "C023BAC7-6FF9-47E4-9D72-1131A8F8A065";
name = "Light Italic";
paths = (
{
closed = 1;
nodes = (
"457 0 LINE",
"462 24 LINE",
"63 24 LINE",
"129 338 LINE",
"432 338 LINE",
"437 362 LINE",
"134 362 LINE",
"201 675 LINE",
"600 675 LINE",
"605 699 LINE",
"178 699 LINE",
"30 0 LINE"
);
},
{
closed = 1;
nodes = (
"552 825 LINE",
"558 849 LINE",
"280 849 LINE",
"274 825 LINE"
);
}
);
width = 567;
}
);
leftKerningGroup = E;
note = Emacron;
rightKerningGroup = E;
unicode = 0112;
},
{
glyphname = Eogonek;
lastChange = "2015-11-29 23:51:23 +0000";
layers = (
{
layerId = "C023BAC7-6FF9-47E4-9D72-1131A8F8A065";
name = "Light Italic";
paths = (
{
closed = 1;
nodes = (
"406 -206 OFFCURVE",
"420 -203 OFFCURVE",
"432 -198 CURVE",
"438 -174 LINE",
"424 -179 OFFCURVE",
"408 -182 OFFCURVE",
"391 -182 CURVE SMOOTH",
"360 -182 OFFCURVE",
"339 -164 OFFCURVE",
"347 -125 CURVE SMOOTH",
"357 -76 OFFCURVE",
"398 -36 OFFCURVE",
"452 0 CURVE",
"457 0 LINE",
"462 24 LINE",
"63 24 LINE",
"129 338 LINE",
"432 338 LINE",
"437 362 LINE",
"134 362 LINE",
"201 675 LINE",
"600 675 LINE",
"605 699 LINE",
"178 699 LINE",
"30 0 LINE",
"424 0 LINE",
"377 -27 OFFCURVE",
"332 -73 OFFCURVE",
"321 -125 CURVE SMOOTH",
"309 -179 OFFCURVE",
"343 -206 OFFCURVE",
"386 -206 CURVE SMOOTH"
);
}
);
width = 567;
}
);
leftKerningGroup = E;
note = Eogonek;
rightKerningGroup = E;
unicode = 0118;
},
{
glyphname = Etilde;
lastChange = "2015-11-29 23:51:22 +0000";
layers = (
{
layerId = "C023BAC7-6FF9-47E4-9D72-1131A8F8A065";
name = "Light Italic";
paths = (
{
closed = 1;
nodes = (
"457 0 LINE",
"462 24 LINE",
"63 24 LINE",
"129 338 LINE",
"432 338 LINE",
"437 362 LINE",
"134 362 LINE",
"201 675 LINE",
"600 675 LINE",
"605 699 LINE",
"178 699 LINE",
"30 0 LINE"
);
},
{
closed = 1;
nodes = (
"249 827 OFFCURVE",
"281 838 OFFCURVE",
"314 838 CURVE SMOOTH",
"378 838 OFFCURVE",
"404 788 OFFCURVE",
"477 788 CURVE SMOOTH",
"514 788 OFFCURVE",
"550 800 OFFCURVE",
"576 833 CURVE",
"583 866 LINE",
"549 823 OFFCURVE",
"515 812 OFFCURVE",
"482 812 CURVE SMOOTH",
"417 812 OFFCURVE",
"387 862 OFFCURVE",
"319 862 CURVE SMOOTH",
"282 862 OFFCURVE",
"246 850 OFFCURVE",
"219 817 CURVE",
"212 784 LINE"
);
}
);
width = 567;
}
);
leftKerningGroup = E;
note = Etilde;
rightKerningGroup = E;
unicode = 1EBC;
},
{
glyphname = F;
lastChange = "2015-11-29 23:51:21 +0000";
layers = (
{
layerId = "C023BAC7-6FF9-47E4-9D72-1131A8F8A065";
name = "Light Italic";
paths = (
{
closed = 1;
nodes = (
"58 0 LINE",
"129 338 LINE",
"432 338 LINE",
"437 362 LINE",
"134 362 LINE",
"201 675 LINE",
"600 675 LINE",
"605 699 LINE",
"178 699 LINE",
"30 0 LINE"
);
}
);
width = 547;
}
);
note = F;
unicode = 0046;
},
{
glyphname = G;
lastChange = "2015-11-29 23:51:22 +0000";
layers = (
{
layerId = "C023BAC7-6FF9-47E4-9D72-1131A8F8A065";
name = "Light Italic";
paths = (
{
closed = 1;
nodes = (
"466 -15 OFFCURVE",
"560 8 OFFCURVE",
"633 72 CURVE",
"695 363 LINE",
"490 363 LINE",
"485 339 LINE",
"662 339 LINE",
"606 77 LINE",
"533 28 OFFCURVE",
"461 9 OFFCURVE",
"372 9 CURVE SMOOTH",
"178 9 OFFCURVE",
"65 139 OFFCURVE",
"110 349 CURVE SMOOTH",
"154 558 OFFCURVE",
"330 690 OFFCURVE",
"517 690 CURVE SMOOTH",
"615 690 OFFCURVE",
"686 666 OFFCURVE",
"736 605 CURVE",
"742 635 LINE",
"691 690 OFFCURVE",
"616 714 OFFCURVE",
"522 714 CURVE SMOOTH",
"317 714 OFFCURVE",
"130 568 OFFCURVE",
"84 349 CURVE SMOOTH",
"37 131 OFFCURVE",
"162 -15 OFFCURVE",
"367 -15 CURVE SMOOTH"
);
}
);
width = 728;
}
);
leftKerningGroup = C;
note = G;
unicode = 0047;
},
{
glyphname = Gbreve;
lastChange = "2015-11-29 23:51:21 +0000";
layers = (
{
layerId = "C023BAC7-6FF9-47E4-9D72-1131A8F8A065";
name = "Light Italic";
paths = (
{
closed = 1;
nodes = (
"466 -15 OFFCURVE",
"560 8 OFFCURVE",
"633 72 CURVE",
"695 363 LINE",
"490 363 LINE",
"485 339 LINE",
"662 339 LINE",
"606 77 LINE",
"533 28 OFFCURVE",
"461 9 OFFCURVE",
"372 9 CURVE SMOOTH",
"178 9 OFFCURVE",
"65 139 OFFCURVE",
"110 349 CURVE SMOOTH",
"154 558 OFFCURVE",
"330 690 OFFCURVE",
"517 690 CURVE SMOOTH",
"615 690 OFFCURVE",
"686 666 OFFCURVE",
"736 605 CURVE",
"742 635 LINE",
"691 690 OFFCURVE",
"616 714 OFFCURVE",
"522 714 CURVE SMOOTH",
"317 714 OFFCURVE",
"130 568 OFFCURVE",
"84 349 CURVE SMOOTH",
"37 131 OFFCURVE",
"162 -15 OFFCURVE",
"367 -15 CURVE SMOOTH"
);
},
{
closed = 1;
nodes = (
"583 746 OFFCURVE",
"641 794 OFFCURVE",
"654 854 CURVE",
"628 854 LINE",
"618 806 OFFCURVE",
"575 769 OFFCURVE",
"516 769 CURVE SMOOTH",
"458 769 OFFCURVE",
"430 806 OFFCURVE",
"440 854 CURVE",
"418 854 LINE",
"405 794 OFFCURVE",
"443 746 OFFCURVE",
"513 746 CURVE SMOOTH"
);
}
);
width = 728;
}
);
leftKerningGroup = C;
note = Gbreve;
unicode = 011E;
},
{
glyphname = Gcaron;
lastChange = "2015-11-29 23:51:24 +0000";
layers = (
{
layerId = "C023BAC7-6FF9-47E4-9D72-1131A8F8A065";
name = "Light Italic";
paths = (
{
closed = 1;
nodes = (
"466 -15 OFFCURVE",
"560 8 OFFCURVE",
"633 72 CURVE",
"695 363 LINE",
"490 363 LINE",
"485 339 LINE",
"662 339 LINE",
"606 77 LINE",
"533 28 OFFCURVE",
"461 9 OFFCURVE",
"372 9 CURVE SMOOTH",
"178 9 OFFCURVE",
"65 139 OFFCURVE",
"110 349 CURVE SMOOTH",
"154 558 OFFCURVE",
"330 690 OFFCURVE",
"517 690 CURVE SMOOTH",
"615 690 OFFCURVE",
"686 666 OFFCURVE",
"736 605 CURVE",
"742 635 LINE",
"691 690 OFFCURVE",
"616 714 OFFCURVE",
"522 714 CURVE SMOOTH",
"317 714 OFFCURVE",
"130 568 OFFCURVE",
"84 349 CURVE SMOOTH",
"37 131 OFFCURVE",
"162 -15 OFFCURVE",
"367 -15 CURVE SMOOTH"
);
},
{
closed = 1;
nodes = (
"545 784 LINE",
"705 935 LINE",
"672 935 LINE",
"536 806 LINE",
"456 935 LINE",
"427 935 LINE",
"523 784 LINE"
);
}
);
width = 728;
}
);
leftKerningGroup = C;
note = Gcaron;
unicode = 01E6;
},
{
glyphname = Gcircumflex;
lastChange = "2015-11-29 23:51:20 +0000";
layers = (
{
layerId = "C023BAC7-6FF9-47E4-9D72-1131A8F8A065";
name = "Light Italic";
paths = (
{
closed = 1;
nodes = (
"466 -15 OFFCURVE",
"560 8 OFFCURVE",
"633 72 CURVE",
"695 363 LINE",
"490 363 LINE",
"485 339 LINE",
"662 339 LINE",
"606 77 LINE",
"533 28 OFFCURVE",
"461 9 OFFCURVE",
"372 9 CURVE SMOOTH",
"178 9 OFFCURVE",
"65 139 OFFCURVE",
"110 349 CURVE SMOOTH",
"154 558 OFFCURVE",
"330 690 OFFCURVE",
"517 690 CURVE SMOOTH",
"615 690 OFFCURVE",
"686 666 OFFCURVE",
"736 605 CURVE",
"742 635 LINE",
"691 690 OFFCURVE",
"616 714 OFFCURVE",
"522 714 CURVE SMOOTH",
"317 714 OFFCURVE",
"130 568 OFFCURVE",
"84 349 CURVE SMOOTH",
"37 131 OFFCURVE",
"162 -15 OFFCURVE",
"367 -15 CURVE SMOOTH"
);
},
{
closed = 1;
nodes = (
"423 774 LINE",
"558 903 LINE",
"639 774 LINE",
"668 774 LINE",
"572 925 LINE",
"550 925 LINE",
"391 774 LINE"
);
}
);
width = 728;
}
);
leftKerningGroup = C;
note = Gcircumflex;
unicode = 011C;
},
{
glyphname = Gcommaaccent;
lastChange = "2015-11-29 23:51:22 +0000";
layers = (
{
layerId = "C023BAC7-6FF9-47E4-9D72-1131A8F8A065";
name = "Light Italic";
paths = (
{
closed = 1;
nodes = (
"466 -15 OFFCURVE",
"560 8 OFFCURVE",
"633 72 CURVE",
"695 363 LINE",
"490 363 LINE",
"485 339 LINE",
"662 339 LINE",
"606 77 LINE",
"533 28 OFFCURVE",
"461 9 OFFCURVE",
"372 9 CURVE SMOOTH",
"178 9 OFFCURVE",
"65 139 OFFCURVE",
"110 349 CURVE SMOOTH",
"154 558 OFFCURVE",
"330 690 OFFCURVE",
"517 690 CURVE SMOOTH",
"615 690 OFFCURVE",
"686 666 OFFCURVE",
"736 605 CURVE",
"742 635 LINE",
"691 690 OFFCURVE",
"616 714 OFFCURVE",
"522 714 CURVE SMOOTH",
"317 714 OFFCURVE",
"130 568 OFFCURVE",
"84 349 CURVE SMOOTH",
"37 131 OFFCURVE",
"162 -15 OFFCURVE",
"367 -15 CURVE SMOOTH"
);
},
{
closed = 1;
nodes = (
"246 -259 LINE",
"372 -70 LINE",
"341 -70 LINE",
"221 -259 LINE"
);
}
);
width = 728;
}
);
leftKerningGroup = C;
note = Gcommaaccent;
unicode = 0122;
},
{
glyphname = Gdotaccent;
lastChange = "2015-11-29 23:51:21 +0000";
layers = (
{
layerId = "C023BAC7-6FF9-47E4-9D72-1131A8F8A065";
name = "Light Italic";
paths = (
{
closed = 1;
nodes = (
"466 -15 OFFCURVE",
"560 8 OFFCURVE",
"633 72 CURVE",
"695 363 LINE",
"490 363 LINE",
"485 339 LINE",
"662 339 LINE",
"606 77 LINE",
"533 28 OFFCURVE",
"461 9 OFFCURVE",
"372 9 CURVE SMOOTH",
"178 9 OFFCURVE",
"65 139 OFFCURVE",
"110 349 CURVE SMOOTH",
"154 558 OFFCURVE",
"330 690 OFFCURVE",
"517 690 CURVE SMOOTH",
"615 690 OFFCURVE",
"686 666 OFFCURVE",
"736 605 CURVE",
"742 635 LINE",
"691 690 OFFCURVE",
"616 714 OFFCURVE",
"522 714 CURVE SMOOTH",
"317 714 OFFCURVE",
"130 568 OFFCURVE",
"84 349 CURVE SMOOTH",
"37 131 OFFCURVE",
"162 -15 OFFCURVE",
"367 -15 CURVE SMOOTH"
);
},
{
closed = 1;
nodes = (
"542 763 OFFCURVE",
"557 776 OFFCURVE",
"561 791 CURVE",
"564 806 OFFCURVE",
"553 819 OFFCURVE",
"538 819 CURVE SMOOTH",
"523 819 OFFCURVE",
"508 806 OFFCURVE",
"505 791 CURVE",
"501 776 OFFCURVE",
"512 763 OFFCURVE",
"527 763 CURVE SMOOTH"
);
}
);
width = 728;
}
);
leftKerningGroup = C;
note = Gdotaccent;
unicode = 0120;
},
{
glyphname = Gmacron;
lastChange = "2015-11-29 23:51:22 +0000";
layers = (
{
layerId = "C023BAC7-6FF9-47E4-9D72-1131A8F8A065";
name = "Light Italic";
paths = (
{
closed = 1;
nodes = (
"466 -15 OFFCURVE",
"560 8 OFFCURVE",
"633 72 CURVE",
"695 363 LINE",
"490 363 LINE",
"485 339 LINE",
"662 339 LINE",
"606 77 LINE",
"533 28 OFFCURVE",
"461 9 OFFCURVE",
"372 9 CURVE SMOOTH",
"178 9 OFFCURVE",
"65 139 OFFCURVE",
"110 349 CURVE SMOOTH",
"154 558 OFFCURVE",
"330 690 OFFCURVE",
"517 690 CURVE SMOOTH",
"615 690 OFFCURVE",
"686 666 OFFCURVE",
"736 605 CURVE",
"742 635 LINE",
"691 690 OFFCURVE",
"616 714 OFFCURVE",
"522 714 CURVE SMOOTH",
"317 714 OFFCURVE",
"130 568 OFFCURVE",
"84 349 CURVE SMOOTH",
"37 131 OFFCURVE",
"162 -15 OFFCURVE",
"367 -15 CURVE SMOOTH"
);
},
{
closed = 1;
nodes = (
"692 813 LINE",
"698 837 LINE",
"420 837 LINE",
"414 813 LINE"
);
}
);
width = 728;
}
);
leftKerningGroup = C;
note = Gmacron;
unicode = 1E20;
},
{
glyphname = H;
lastChange = "2015-11-29 23:51:21 +0000";
layers = (
{
layerId = "C023BAC7-6FF9-47E4-9D72-1131A8F8A065";
name = "Light Italic";
paths = (
{
closed = 1;
nodes = (
"58 0 LINE",
"131 345 LINE",
"587 345 LINE",
"514 0 LINE",
"542 0 LINE",
"690 699 LINE",
"662 699 LINE",
"592 369 LINE",
"136 369 LINE",
"206 699 LINE",
"178 699 LINE",
"30 0 LINE"
);
}
);
width = 672;
}
);
note = H;
unicode = 0048;
},
{
glyphname = Hbar;
lastChange = "2015-11-29 23:51:22 +0000";
layers = (
{
layerId = "C023BAC7-6FF9-47E4-9D72-1131A8F8A065";
name = "Light Italic";
paths = (
{
closed = 1;
nodes = (
"67 0 LINE",
"140 345 LINE",
"596 345 LINE",
"523 0 LINE",
"551 0 LINE",
"661 519 LINE",
"724 519 LINE",
"729 543 LINE",
"666 543 LINE",
"699 699 LINE",
"671 699 LINE",
"638 543 LINE",
"182 543 LINE",
"215 699 LINE",
"187 699 LINE",
"154 543 LINE",
"105 543 LINE",
"100 519 LINE",
"149 519 LINE",
"39 0 LINE"
);
},
{
closed = 1;
nodes = (
"177 519 LINE",
"633 519 LINE",
"601 369 LINE",
"145 369 LINE"
);
}
);
width = 704;
}
);
note = Hbar;
unicode = 0126;
},
{
glyphname = Hbrevebelow;
lastChange = "2015-11-29 23:51:20 +0000";
layers = (
{
layerId = "C023BAC7-6FF9-47E4-9D72-1131A8F8A065";
name = "Light Italic";
paths = (
{
closed = 1;
nodes = (
"58 0 LINE",
"131 345 LINE",
"587 345 LINE",
"514 0 LINE",
"542 0 LINE",
"690 699 LINE",
"662 699 LINE",
"592 369 LINE",
"136 369 LINE",
"206 699 LINE",
"178 699 LINE",
"30 0 LINE"
);
},
{
closed = 1;
nodes = (
"325 -175 OFFCURVE",
"384 -127 OFFCURVE",
"396 -67 CURVE",
"372 -67 LINE",
"362 -115 OFFCURVE",
"319 -152 OFFCURVE",
"261 -152 CURVE SMOOTH",
"203 -152 OFFCURVE",
"175 -115 OFFCURVE",
"185 -67 CURVE",
"161 -67 LINE",
"149 -127 OFFCURVE",
"186 -175 OFFCURVE",
"256 -175 CURVE SMOOTH"
);
}
);
width = 672;
}
);
note = Hbrevebelow;
unicode = 1E2A;
},
{
glyphname = Hcircumflex;
lastChange = "2015-11-29 23:51:22 +0000";
layers = (
{
layerId = "C023BAC7-6FF9-47E4-9D72-1131A8F8A065";
name = "Light Italic";
paths = (
{
closed = 1;
nodes = (
"58 0 LINE",
"131 345 LINE",
"587 345 LINE",
"514 0 LINE",
"542 0 LINE",
"690 699 LINE",
"662 699 LINE",
"592 369 LINE",
"136 369 LINE",
"206 699 LINE",
"178 699 LINE",
"30 0 LINE"
);
},
{
closed = 1;
nodes = (
"349 798 LINE",
"484 927 LINE",
"565 798 LINE",
"594 798 LINE",
"498 949 LINE",
"476 949 LINE",
"317 798 LINE"
);
}
);
width = 672;
}
);
note = Hcircumflex;
unicode = 0124;
},
{
glyphname = Hdotbelow;
lastChange = "2015-11-29 23:51:23 +0000";
layers = (
{
layerId = "C023BAC7-6FF9-47E4-9D72-1131A8F8A065";
name = "Light Italic";
paths = (
{
closed = 1;
nodes = (
"58 0 LINE",
"131 345 LINE",
"587 345 LINE",
"514 0 LINE",
"542 0 LINE",
"690 699 LINE",
"662 699 LINE",
"592 369 LINE",
"136 369 LINE",
"206 699 LINE",
"178 699 LINE",
"30 0 LINE"
);
},
{
closed = 1;
nodes = (
"276 -121 OFFCURVE",
"291 -108 OFFCURVE",
"294 -93 CURVE SMOOTH",
"297 -78 OFFCURVE",
"287 -65 OFFCURVE",
"273 -65 CURVE SMOOTH",
"258 -65 OFFCURVE",
"242 -78 OFFCURVE",
"239 -93 CURVE SMOOTH",
"236 -108 OFFCURVE",
"246 -121 OFFCURVE",
"261 -121 CURVE SMOOTH"
);
}
);
width = 672;
}
);
note = Hdotbelow;
unicode = 1E24;
},
{
glyphname = I;
lastChange = "2015-11-29 23:51:22 +0000";
layers = (
{
layerId = "C023BAC7-6FF9-47E4-9D72-1131A8F8A065";
name = "Light Italic";
paths = (
{
closed = 1;
nodes = (
"58 0 LINE",
"206 699 LINE",
"178 699 LINE",
"30 0 LINE"
);
}
);
width = 188;
}
);
note = I;
unicode = 0049;
},
{
glyphname = IJ;
lastChange = "2015-11-29 23:51:22 +0000";
layers = (
{
layerId = "C023BAC7-6FF9-47E4-9D72-1131A8F8A065";
name = "Light Italic";
paths = (
{
closed = 1;
nodes = (
"365 -15 OFFCURVE",
"434 28 OFFCURVE",
"456 128 CURVE SMOOTH",
"577 699 LINE",
"549 699 LINE",
"428 128 LINE SMOOTH",
"410 46 OFFCURVE",
"357 8 OFFCURVE",
"279 8 CURVE SMOOTH",
"256 8 OFFCURVE",
"219 13 OFFCURVE",
"200 20 CURVE",
"195 -4 LINE",
"214 -10 OFFCURVE",
"249 -15 OFFCURVE",
"281 -15 CURVE SMOOTH"
);
},
{
closed = 1;
nodes = (
"58 0 LINE",
"206 699 LINE",
"178 699 LINE",
"30 0 LINE"
);
}
);
width = 554;
}
);
note = IJ;
rightKerningGroup = J;
unicode = 0132;
},
{
glyphname = Iacute;
lastChange = "2015-11-29 23:51:24 +0000";
layers = (
{
layerId = "C023BAC7-6FF9-47E4-9D72-1131A8F8A065";
name = "Light Italic";
paths = (
{
closed = 1;
nodes = (
"58 0 LINE",
"206 699 LINE",
"178 699 LINE",
"30 0 LINE"
);
},
{
closed = 1;
nodes = (
"219 768 LINE",
"332 935 LINE",
"304 935 LINE",
"197 768 LINE"
);
}
);
width = 188;
}
);
note = Iacute;
unicode = 00CD;
},
{
glyphname = Ibreve;
lastChange = "2015-11-29 23:51:23 +0000";
layers = (
{
layerId = "C023BAC7-6FF9-47E4-9D72-1131A8F8A065";
name = "Light Italic";
paths = (
{
closed = 1;
nodes = (
"58 0 LINE",
"206 699 LINE",
"178 699 LINE",
"30 0 LINE"
);
},
{
closed = 1;
nodes = (
"278 777 OFFCURVE",
"336 825 OFFCURVE",
"349 885 CURVE",
"323 885 LINE",
"313 837 OFFCURVE",
"270 800 OFFCURVE",
"211 800 CURVE SMOOTH",
"153 800 OFFCURVE",
"125 837 OFFCURVE",
"135 885 CURVE",
"113 885 LINE",
"100 825 OFFCURVE",
"138 777 OFFCURVE",
"208 777 CURVE SMOOTH"
);
}
);
width = 188;
}
);
note = Ibreve;
unicode = 012C;
},
{
glyphname = Icaron;
lastChange = "2015-11-29 23:51:23 +0000";
layers = (
{
layerId = "C023BAC7-6FF9-47E4-9D72-1131A8F8A065";
name = "Light Italic";
paths = (
{
closed = 1;
nodes = (
"58 0 LINE",
"206 699 LINE",
"178 699 LINE",
"30 0 LINE"
);
},
{
closed = 1;
nodes = (
"221 784 LINE",
"381 935 LINE",
"348 935 LINE",
"212 806 LINE",
"132 935 LINE",
"103 935 LINE",
"199 784 LINE"
);
}
);
width = 188;
}
);
note = Icaron;
unicode = 01CF;
},
{
glyphname = Icircumflex;
lastChange = "2015-11-29 23:51:23 +0000";
layers = (
{
layerId = "C023BAC7-6FF9-47E4-9D72-1131A8F8A065";
name = "Light Italic";
paths = (
{
closed = 1;
nodes = (
"58 0 LINE",
"206 699 LINE",
"178 699 LINE",
"30 0 LINE"
);
},
{
closed = 1;
nodes = (
"102 774 LINE",
"237 903 LINE",
"318 774 LINE",
"347 774 LINE",
"251 925 LINE",
"229 925 LINE",
"70 774 LINE"
);
}
);
width = 188;
}
);
note = Icircumflex;
unicode = 00CE;
},
{
glyphname = Idieresis;
lastChange = "2015-11-29 23:51:23 +0000";
layers = (
{
layerId = "C023BAC7-6FF9-47E4-9D72-1131A8F8A065";
name = "Light Italic";
paths = (
{
closed = 1;
nodes = (
"58 0 LINE",
"206 699 LINE",
"178 699 LINE",
"30 0 LINE"
);
},
{
closed = 1;
nodes = (
"130 802 OFFCURVE",
"145 815 OFFCURVE",
"149 830 CURVE",
"152 845 OFFCURVE",
"141 858 OFFCURVE",
"126 858 CURVE SMOOTH",
"111 858 OFFCURVE",
"96 845 OFFCURVE",
"93 830 CURVE",
"89 815 OFFCURVE",
"100 802 OFFCURVE",
"115 802 CURVE SMOOTH"
);
},
{
closed = 1;
nodes = (
"328 802 OFFCURVE",
"343 815 OFFCURVE",
"347 830 CURVE",
"350 845 OFFCURVE",
"339 858 OFFCURVE",
"324 858 CURVE SMOOTH",
"309 858 OFFCURVE",
"294 845 OFFCURVE",
"291 830 CURVE",
"287 815 OFFCURVE",
"298 802 OFFCURVE",
"313 802 CURVE SMOOTH"
);
}
);
width = 188;
}
);
note = Idieresis;
unicode = 00CF;
},
{
glyphname = Idotaccent;
lastChange = "2015-11-29 23:51:23 +0000";
layers = (
{
layerId = "C023BAC7-6FF9-47E4-9D72-1131A8F8A065";
name = "Light Italic";
paths = (
{
closed = 1;
nodes = (
"58 0 LINE",
"206 699 LINE",
"178 699 LINE",
"30 0 LINE"
);
},
{
closed = 1;
nodes = (
"221 763 OFFCURVE",
"236 776 OFFCURVE",
"240 791 CURVE",
"243 806 OFFCURVE",
"232 819 OFFCURVE",
"217 819 CURVE SMOOTH",
"202 819 OFFCURVE",
"187 806 OFFCURVE",
"184 791 CURVE",
"180 776 OFFCURVE",
"191 763 OFFCURVE",
"206 763 CURVE SMOOTH"
);
}
);
width = 188;
}
);
note = Idotaccent;
unicode = 0130;
},
{
glyphname = Idotbelow;
lastChange = "2015-11-29 23:51:23 +0000";
layers = (
{
layerId = "C023BAC7-6FF9-47E4-9D72-1131A8F8A065";
name = "Light Italic";
paths = (
{
closed = 1;
nodes = (
"58 0 LINE",
"206 699 LINE",
"178 699 LINE",
"30 0 LINE"
);
},
{
closed = 1;
nodes = (
"34 -121 OFFCURVE",
"49 -108 OFFCURVE",
"52 -93 CURVE SMOOTH",
"55 -78 OFFCURVE",
"45 -65 OFFCURVE",
"31 -65 CURVE SMOOTH",
"16 -65 OFFCURVE",
"0 -78 OFFCURVE",
"-3 -93 CURVE SMOOTH",
"-6 -108 OFFCURVE",
"4 -121 OFFCURVE",
"19 -121 CURVE SMOOTH"
);
}
);
width = 188;
}
);
note = Idotbelow;
unicode = 1ECA;
},
{
glyphname = Igrave;
lastChange = "2015-11-29 23:51:21 +0000";
layers = (
{
layerId = "C023BAC7-6FF9-47E4-9D72-1131A8F8A065";
name = "Light Italic";
paths = (
{
closed = 1;
nodes = (
"58 0 LINE",
"206 699 LINE",
"178 699 LINE",
"30 0 LINE"
);
},
{
closed = 1;
nodes = (
"226 792 LINE",
"191 959 LINE",
"163 959 LINE",
"204 792 LINE"
);
}
);
width = 188;
}
);
note = Igrave;
unicode = 00CC;
},
{
glyphname = Ihookabove;
lastChange = "2015-11-29 23:51:22 +0000";
layers = (
{
layerId = "C023BAC7-6FF9-47E4-9D72-1131A8F8A065";
name = "Light Italic";
paths = (
{
closed = 1;
nodes = (
"58 0 LINE",
"206 699 LINE",
"178 699 LINE",
"30 0 LINE"
);
},
{
closed = 1;
nodes = (
"223 784 LINE",
"232 828 LINE",
"298 831 OFFCURVE",
"337 866 OFFCURVE",
"348 915 CURVE SMOOTH",
"358 965 OFFCURVE",
"332 1001 OFFCURVE",
"263 1001 CURVE SMOOTH",
"243 1001 OFFCURVE",
"218 997 OFFCURVE",
"206 993 CURVE",
"201 969 LINE",
"214 974 OFFCURVE",
"240 977 OFFCURVE",
"258 977 CURVE SMOOTH",
"306 977 OFFCURVE",
"331 958 OFFCURVE",
"321 914 CURVE SMOOTH",
"312 870 OFFCURVE",
"285 847 OFFCURVE",
"213 847 CURVE",
"200 784 LINE"
);
}
);
width = 188;
}
);
note = Ihookabove;
unicode = 1EC8;
},
{
glyphname = Imacron;
lastChange = "2015-11-29 23:51:23 +0000";
layers = (
{
layerId = "C023BAC7-6FF9-47E4-9D72-1131A8F8A065";
name = "Light Italic";
paths = (
{
closed = 1;
nodes = (
"58 0 LINE",
"206 699 LINE",
"178 699 LINE",
"30 0 LINE"
);
},
{
closed = 1;
nodes = (
"345 765 LINE",
"351 789 LINE",
"73 789 LINE",
"67 765 LINE"
);
}
);
width = 188;
}
);
note = Imacron;
unicode = 012A;
},
{
glyphname = Iogonek;
lastChange = "2015-11-29 23:51:24 +0000";
layers = (
{
layerId = "C023BAC7-6FF9-47E4-9D72-1131A8F8A065";
name = "Light Italic";
paths = (
{
closed = 1;
nodes = (
"58 0 LINE",
"206 699 LINE",
"178 699 LINE",
"30 0 LINE"
);
},
{
closed = 1;
nodes = (
"12 -206 OFFCURVE",
"26 -203 OFFCURVE",
"38 -198 CURVE",
"44 -174 LINE",
"30 -179 OFFCURVE",
"14 -182 OFFCURVE",
"-3 -182 CURVE SMOOTH",
"-34 -182 OFFCURVE",
"-55 -164 OFFCURVE",
"-47 -125 CURVE SMOOTH",
"-37 -76 OFFCURVE",
"4 -36 OFFCURVE",
"58 0 CURVE",
"30 0 LINE",
"-17 -27 OFFCURVE",
"-62 -73 OFFCURVE",
"-73 -125 CURVE SMOOTH",
"-85 -179 OFFCURVE",
"-51 -206 OFFCURVE",
"-8 -206 CURVE SMOOTH"
);
}
);
width = 188;
}
);
note = Iogonek;
unicode = 012E;
},
{
glyphname = Itilde;
lastChange = "2015-11-29 23:51:20 +0000";
layers = (
{
layerId = "C023BAC7-6FF9-47E4-9D72-1131A8F8A065";
name = "Light Italic";
paths = (
{
closed = 1;
nodes = (
"58 0 LINE",
"206 699 LINE",
"178 699 LINE",
"30 0 LINE"
);
},
{
closed = 1;
nodes = (
"71 829 OFFCURVE",
"103 840 OFFCURVE",
"136 840 CURVE SMOOTH",
"200 840 OFFCURVE",
"226 790 OFFCURVE",
"299 790 CURVE SMOOTH",
"336 790 OFFCURVE",
"372 802 OFFCURVE",
"398 835 CURVE",
"405 868 LINE",
"371 825 OFFCURVE",
"337 814 OFFCURVE",
"304 814 CURVE SMOOTH",
"239 814 OFFCURVE",
"209 864 OFFCURVE",
"141 864 CURVE SMOOTH",
"104 864 OFFCURVE",
"68 852 OFFCURVE",
"41 819 CURVE",
"34 786 LINE"
);
}
);
width = 188;
}
);
note = Itilde;
unicode = 0128;
},
{
glyphname = J;
lastChange = "2015-11-29 23:51:23 +0000";
layers = (
{
layerId = "C023BAC7-6FF9-47E4-9D72-1131A8F8A065";
name = "Light Italic";
paths = (
{
closed = 1;
nodes = (
"159 -15 OFFCURVE",
"228 28 OFFCURVE",
"250 128 CURVE SMOOTH",
"371 699 LINE",
"343 699 LINE",
"222 128 LINE SMOOTH",
"204 46 OFFCURVE",
"151 8 OFFCURVE",
"73 8 CURVE SMOOTH",
"50 8 OFFCURVE",
"13 13 OFFCURVE",
"-6 20 CURVE",
"-11 -4 LINE",
"8 -10 OFFCURVE",
"43 -15 OFFCURVE",
"75 -15 CURVE SMOOTH"
);
}
);
width = 348;
}
);
note = J;
rightKerningGroup = J;
unicode = 004A;
},
{
glyphname = Jcircumflex;
lastChange = "2015-11-29 23:51:21 +0000";
layers = (
{
layerId = "C023BAC7-6FF9-47E4-9D72-1131A8F8A065";
name = "Light Italic";
paths = (
{
closed = 1;
nodes = (
"159 -15 OFFCURVE",
"228 28 OFFCURVE",
"250 128 CURVE SMOOTH",
"371 699 LINE",
"343 699 LINE",
"222 128 LINE SMOOTH",
"204 46 OFFCURVE",
"151 8 OFFCURVE",
"73 8 CURVE SMOOTH",
"50 8 OFFCURVE",
"13 13 OFFCURVE",
"-6 20 CURVE",
"-11 -4 LINE",
"8 -10 OFFCURVE",
"43 -15 OFFCURVE",
"75 -15 CURVE SMOOTH"
);
},
{
closed = 1;
nodes = (
"267 774 LINE",
"402 903 LINE",
"483 774 LINE",
"512 774 LINE",
"416 925 LINE",
"394 925 LINE",
"235 774 LINE"
);
}
);
width = 348;
}
);
note = Jcircumflex;
rightKerningGroup = J;
unicode = 0134;
},
{
glyphname = K;
lastChange = "2015-11-29 23:51:22 +0000";
layers = (
{
layerId = "C023BAC7-6FF9-47E4-9D72-1131A8F8A065";
name = "Light Italic";
paths = (
{
closed = 1;
nodes = (
"58 0 LINE",
"132 350 LINE",
"440 0 LINE",
"475 0 LINE",
"166 350 LINE",
"605 699 LINE",
"566 699 LINE",
"133 356 LINE",
"206 699 LINE",
"178 699 LINE",
"30 0 LINE"
);
}
);
width = 589;
}
);
leftKerningGroup = K;
note = K;
rightKerningGroup = K;
unicode = 004B;
},
{
glyphname = Kcommaaccent;
lastChange = "2015-11-29 23:51:22 +0000";
layers = (
{
layerId = "C023BAC7-6FF9-47E4-9D72-1131A8F8A065";
name = "Light Italic";
paths = (
{
closed = 1;
nodes = (
"58 0 LINE",
"132 350 LINE",
"440 0 LINE",
"475 0 LINE",
"166 350 LINE",
"605 699 LINE",
"566 699 LINE",
"133 356 LINE",
"206 699 LINE",
"178 699 LINE",
"30 0 LINE"
);
},
{
closed = 1;
nodes = (
"99 -259 LINE",
"225 -70 LINE",
"194 -70 LINE",
"74 -259 LINE"
);
}
);
width = 589;
}
);
leftKerningGroup = K;
note = Kcommaaccent;
rightKerningGroup = K;
unicode = 0136;
},
{
glyphname = L;
lastChange = "2015-11-29 23:51:22 +0000";
layers = (
{
layerId = "C023BAC7-6FF9-47E4-9D72-1131A8F8A065";
name = "Light Italic";
paths = (
{
closed = 1;
nodes = (
"457 0 LINE",
"462 24 LINE",
"63 24 LINE",
"206 699 LINE",
"178 699 LINE",
"30 0 LINE"
);
}
);
width = 547;
}
);
note = L;
rightKerningGroup = L;
unicode = 004C;
},
{
glyphname = Lacute;
lastChange = "2015-11-29 23:51:23 +0000";
layers = (
{
layerId = "C023BAC7-6FF9-47E4-9D72-1131A8F8A065";
name = "Light Italic";
paths = (
{
closed = 1;
nodes = (
"457 0 LINE",
"462 24 LINE",
"63 24 LINE",
"206 699 LINE",
"178 699 LINE",
"30 0 LINE"
);
},
{
closed = 1;
nodes = (
"219 768 LINE",
"332 935 LINE",
"304 935 LINE",
"197 768 LINE"
);
}
);
width = 547;
}
);
note = Lacute;
rightKerningGroup = L;
unicode = 0139;
},
{
glyphname = Lcaron;
lastChange = "2015-11-29 23:51:22 +0000";
layers = (
{
layerId = "C023BAC7-6FF9-47E4-9D72-1131A8F8A065";
name = "Light Italic";
paths = (
{
closed = 1;
nodes = (
"457 0 LINE",
"462 24 LINE",
"63 24 LINE",
"206 699 LINE",
"178 699 LINE",
"30 0 LINE"
);
},
{
closed = 1;
nodes = (
"319 504 LINE",
"445 693 LINE",
"414 693 LINE",
"294 504 LINE"
);
}
);
width = 547;
}
);
note = Lcaron;
rightKerningGroup = L;
unicode = 013D;
},
{
glyphname = Lcommaaccent;
lastChange = "2015-11-29 23:51:23 +0000";
layers = (
{
layerId = "C023BAC7-6FF9-47E4-9D72-1131A8F8A065";
name = "Light Italic";
paths = (
{
closed = 1;
nodes = (
"457 0 LINE",
"462 24 LINE",
"63 24 LINE",
"206 699 LINE",
"178 699 LINE",
"30 0 LINE"
);
},
{
closed = 1;
nodes = (
"121 -259 LINE",
"247 -70 LINE",
"216 -70 LINE",
"96 -259 LINE"
);
}
);
width = 547;
}
);
note = Lcommaaccent;
rightKerningGroup = L;
unicode = 013B;
},
{
glyphname = Ldot;
lastChange = "2015-11-29 23:51:23 +0000";
layers = (
{
layerId = "C023BAC7-6FF9-47E4-9D72-1131A8F8A065";
name = "Light Italic";
paths = (
{
closed = 1;
nodes = (
"457 0 LINE",
"462 24 LINE",
"63 24 LINE",
"206 699 LINE",
"178 699 LINE",
"30 0 LINE"
);
},
{
closed = 1;
nodes = (
"356 344 OFFCURVE",
"371 357 OFFCURVE",
"375 372 CURVE",
"378 387 OFFCURVE",
"367 400 OFFCURVE",
"352 400 CURVE SMOOTH",
"337 400 OFFCURVE",
"322 387 OFFCURVE",
"319 372 CURVE",
"315 357 OFFCURVE",
"326 344 OFFCURVE",
"341 344 CURVE SMOOTH"
);
}
);
width = 547;
}
);
note = Ldot;
rightKerningGroup = L;
unicode = 013F;
},
{
glyphname = Ldotbelow;
lastChange = "2015-11-29 23:51:23 +0000";
layers = (
{
layerId = "C023BAC7-6FF9-47E4-9D72-1131A8F8A065";
name = "Light Italic";
paths = (
{
closed = 1;
nodes = (
"457 0 LINE",
"462 24 LINE",
"63 24 LINE",
"206 699 LINE",
"178 699 LINE",
"30 0 LINE"
);
},
{
closed = 1;
nodes = (
"229 -121 OFFCURVE",
"244 -108 OFFCURVE",
"247 -93 CURVE SMOOTH",
"250 -78 OFFCURVE",
"240 -65 OFFCURVE",
"226 -65 CURVE SMOOTH",
"211 -65 OFFCURVE",
"195 -78 OFFCURVE",
"192 -93 CURVE SMOOTH",
"189 -108 OFFCURVE",
"199 -121 OFFCURVE",
"214 -121 CURVE SMOOTH"
);
}
);
width = 547;
}
);
note = Ldotbelow;
rightKerningGroup = L;
unicode = 1E36;
},
{
glyphname = Ldotbelowmacron;
lastChange = "2015-11-29 23:51:22 +0000";
layers = (
{
layerId = "C023BAC7-6FF9-47E4-9D72-1131A8F8A065";
name = "Light Italic";
paths = (
{
closed = 1;
nodes = (
"457 0 LINE",
"462 24 LINE",
"63 24 LINE",
"206 699 LINE",
"178 699 LINE",
"30 0 LINE"
);
},
{
closed = 1;
nodes = (
"232 -121 OFFCURVE",
"247 -108 OFFCURVE",
"250 -93 CURVE SMOOTH",
"253 -78 OFFCURVE",
"243 -65 OFFCURVE",
"229 -65 CURVE SMOOTH",
"214 -65 OFFCURVE",
"198 -78 OFFCURVE",
"195 -93 CURVE SMOOTH",
"192 -108 OFFCURVE",
"202 -121 OFFCURVE",
"217 -121 CURVE SMOOTH"
);
},
{
closed = 1;
nodes = (
"353 803 LINE",
"359 827 LINE",
"81 827 LINE",
"75 803 LINE"
);
}
);
width = 547;
}
);
note = Ldotbelowmacron;
rightKerningGroup = L;
unicode = 1E38;
},
{
glyphname = Llinebelow;
lastChange = "2015-11-29 23:51:22 +0000";
layers = (
{
layerId = "C023BAC7-6FF9-47E4-9D72-1131A8F8A065";
name = "Light Italic";
paths = (
{
closed = 1;
nodes = (
"457 0 LINE",
"462 24 LINE",
"63 24 LINE",
"206 699 LINE",
"178 699 LINE",
"30 0 LINE"
);
},
{
closed = 1;
nodes = (
"367 -110 LINE",
"372 -86 LINE",
"95 -86 LINE",
"90 -110 LINE"
);
}
);
width = 547;
}
);
note = Llinebelow;
rightKerningGroup = L;
unicode = 1E3A;
},
{
glyphname = Lslash;
lastChange = "2015-11-29 23:51:22 +0000";
layers = (
{
layerId = "C023BAC7-6FF9-47E4-9D72-1131A8F8A065";
name = "Light Italic";
paths = (
{
closed = 1;
nodes = (
"534 0 LINE",
"539 24 LINE",
"140 24 LINE",
"208 347 LINE",
"406 428 LINE",
"412 454 LINE",
"214 373 LINE",
"283 699 LINE",
"255 699 LINE",
"183 360 LINE",
"44 304 LINE",
"39 278 LINE",
"177 334 LINE",
"107 0 LINE"
);
}
);
width = 624;
}
);
note = Lslash;
rightKerningGroup = L;
unicode = 0141;
},
{
glyphname = M;
lastChange = "2015-11-29 23:51:23 +0000";
layers = (
{
layerId = "C023BAC7-6FF9-47E4-9D72-1131A8F8A065";
name = "Light Italic";
paths = (
{
closed = 1;
nodes = (
"60 0 LINE",
"196 642 LINE",
"352 0 LINE",
"371 0 LINE",
"799 642 LINE",
"663 0 LINE",
"689 0 LINE",
"837 699 LINE",
"805 699 LINE",
"369 46 LINE",
"210 699 LINE",
"178 699 LINE",
"30 0 LINE"
);
}
);
width = 819;
}
);
note = M;
unicode = 004D;
},
{
glyphname = Mdotbelow;
lastChange = "2015-11-29 23:51:21 +0000";
layers = (
{
layerId = "C023BAC7-6FF9-47E4-9D72-1131A8F8A065";
name = "Light Italic";
paths = (
{
closed = 1;
nodes = (
"60 0 LINE",
"196 642 LINE",
"352 0 LINE",
"371 0 LINE",
"799 642 LINE",
"663 0 LINE",
"689 0 LINE",
"837 699 LINE",
"805 699 LINE",
"369 46 LINE",
"210 699 LINE",
"178 699 LINE",
"30 0 LINE"
);
},
{
closed = 1;
nodes = (
"350 -121 OFFCURVE",
"365 -108 OFFCURVE",
"368 -93 CURVE SMOOTH",
"371 -78 OFFCURVE",
"361 -65 OFFCURVE",
"347 -65 CURVE SMOOTH",
"332 -65 OFFCURVE",
"316 -78 OFFCURVE",
"313 -93 CURVE SMOOTH",
"310 -108 OFFCURVE",
"320 -121 OFFCURVE",
"335 -121 CURVE SMOOTH"
);
}
);
width = 819;
}
);
note = Mdotbelow;
unicode = 1E42;
},
{
glyphname = N;
lastChange = "2015-11-29 23:51:21 +0000";
layers = (
{
layerId = "C023BAC7-6FF9-47E4-9D72-1131A8F8A065";
name = "Light Italic";
paths = (
{
closed = 1;
nodes = (
"60 0 LINE",
"197 649 LINE",
"511 0 LINE",
"533 0 LINE",
"681 699 LINE",
"653 699 LINE",
"516 52 LINE",
"203 699 LINE",
"178 699 LINE",
"30 0 LINE"
);
}
);
width = 663;
}
);
note = N;
unicode = 004E;
},
{
glyphname = Nacute;
lastChange = "2015-11-29 23:51:24 +0000";
layers = (
{
layerId = "C023BAC7-6FF9-47E4-9D72-1131A8F8A065";
name = "Light Italic";
paths = (
{
closed = 1;
nodes = (
"60 0 LINE",
"197 649 LINE",
"511 0 LINE",
"533 0 LINE",
"681 699 LINE",
"653 699 LINE",
"516 52 LINE",
"203 699 LINE",
"178 699 LINE",
"30 0 LINE"
);
},
{
closed = 1;
nodes = (
"467 780 LINE",
"580 947 LINE",
"552 947 LINE",
"445 780 LINE"
);
}
);
width = 663;
}
);
note = Nacute;
unicode = 0143;
},
{
glyphname = Ncaron;
lastChange = "2015-11-29 23:51:22 +0000";
layers = (
{
layerId = "C023BAC7-6FF9-47E4-9D72-1131A8F8A065";
name = "Light Italic";
paths = (
{
closed = 1;
nodes = (
"60 0 LINE",
"197 649 LINE",
"511 0 LINE",
"533 0 LINE",
"681 699 LINE",
"653 699 LINE",
"516 52 LINE",
"203 699 LINE",
"178 699 LINE",
"30 0 LINE"
);
},
{
closed = 1;
nodes = (
"459 786 LINE",
"619 937 LINE",
"586 937 LINE",
"450 808 LINE",
"370 937 LINE",
"341 937 LINE",
"437 786 LINE"
);
}
);
width = 663;
}
);
note = Ncaron;
unicode = 0147;
},
{
glyphname = Ncommaaccent;
lastChange = "2015-11-29 23:51:20 +0000";
layers = (
{
layerId = "C023BAC7-6FF9-47E4-9D72-1131A8F8A065";
name = "Light Italic";
paths = (
{
closed = 1;
nodes = (
"60 0 LINE",
"197 649 LINE",
"511 0 LINE",
"533 0 LINE",
"681 699 LINE",
"653 699 LINE",
"516 52 LINE",
"203 699 LINE",
"178 699 LINE",
"30 0 LINE"
);
},
{
closed = 1;
nodes = (
"187 -259 LINE",
"313 -70 LINE",
"282 -70 LINE",
"162 -259 LINE"
);
}
);
width = 663;
}
);
note = Ncommaaccent;
unicode = 0145;
},
{
glyphname = Ndotaccent;
lastChange = "2015-11-29 23:51:23 +0000";
layers = (
{
layerId = "C023BAC7-6FF9-47E4-9D72-1131A8F8A065";
name = "Light Italic";
paths = (
{
closed = 1;
nodes = (
"60 0 LINE",
"197 649 LINE",
"511 0 LINE",
"533 0 LINE",
"681 699 LINE",
"653 699 LINE",
"516 52 LINE",
"203 699 LINE",
"178 699 LINE",
"30 0 LINE"
);
},
{
closed = 1;
nodes = (
"483 790 OFFCURVE",
"498 803 OFFCURVE",
"502 818 CURVE",
"505 833 OFFCURVE",
"494 846 OFFCURVE",
"479 846 CURVE SMOOTH",
"464 846 OFFCURVE",
"449 833 OFFCURVE",
"446 818 CURVE",
"442 803 OFFCURVE",
"453 790 OFFCURVE",
"468 790 CURVE SMOOTH"
);
}
);
width = 663;
}
);
note = Ndotaccent;
unicode = 1E44;
},
{
glyphname = Ndotbelow;
lastChange = "2015-11-29 23:51:21 +0000";
layers = (
{
layerId = "C023BAC7-6FF9-47E4-9D72-1131A8F8A065";
name = "Light Italic";
paths = (
{
closed = 1;
nodes = (
"60 0 LINE",
"197 649 LINE",
"511 0 LINE",
"533 0 LINE",
"681 699 LINE",
"653 699 LINE",
"516 52 LINE",
"203 699 LINE",
"178 699 LINE",
"30 0 LINE"
);
},
{
closed = 1;
nodes = (
"281 -121 OFFCURVE",
"296 -108 OFFCURVE",
"299 -93 CURVE SMOOTH",
"302 -78 OFFCURVE",
"292 -65 OFFCURVE",
"278 -65 CURVE SMOOTH",
"263 -65 OFFCURVE",
"247 -78 OFFCURVE",
"244 -93 CURVE SMOOTH",
"241 -108 OFFCURVE",
"251 -121 OFFCURVE",
"266 -121 CURVE SMOOTH"
);
}
);
width = 663;
}
);
note = Ndotbelow;
unicode = 1E46;
},
{
glyphname = Eng;
lastChange = "2015-11-29 23:51:23 +0000";
layers = (
{
layerId = "C023BAC7-6FF9-47E4-9D72-1131A8F8A065";
name = "Light Italic";
paths = (
{
closed = 1;
nodes = (
"440 -231 OFFCURVE",
"492 -191 OFFCURVE",
"512 -96 CURVE SMOOTH",
"681 699 LINE",
"653 699 LINE",
"516 52 LINE",
"203 699 LINE",
"178 699 LINE",
"30 0 LINE",
"58 0 LINE",
"195 649 LINE",
"506 6 LINE",
"484 -98 LINE SMOOTH",
"470 -166 OFFCURVE",
"437 -207 OFFCURVE",
"362 -207 CURVE SMOOTH",
"345 -207 OFFCURVE",
"328 -205 OFFCURVE",
"313 -200 CURVE",
"308 -225 LINE",
"325 -229 OFFCURVE",
"344 -231 OFFCURVE",
"365 -231 CURVE SMOOTH"
);
}
);
width = 663;
}
);
note = Eng;
unicode = 014A;
},
{
glyphname = Nlinebelow;
lastChange = "2015-11-29 23:51:22 +0000";
layers = (
{
layerId = "C023BAC7-6FF9-47E4-9D72-1131A8F8A065";
name = "Light Italic";
paths = (
{
closed = 1;
nodes = (
"60 0 LINE",
"197 649 LINE",
"511 0 LINE",
"533 0 LINE",
"681 699 LINE",
"653 699 LINE",
"516 52 LINE",
"203 699 LINE",
"178 699 LINE",
"30 0 LINE"
);
},
{
closed = 1;
nodes = (
"415 -110 LINE",
"420 -86 LINE",
"143 -86 LINE",
"138 -110 LINE"
);
}
);
width = 663;
}
);
note = Nlinebelow;
unicode = 1E48;
},
{
glyphname = Ntilde;
lastChange = "2015-11-29 23:51:22 +0000";
layers = (
{
layerId = "C023BAC7-6FF9-47E4-9D72-1131A8F8A065";
name = "Light Italic";
paths = (
{
closed = 1;
nodes = (
"60 0 LINE",
"197 649 LINE",
"511 0 LINE",
"533 0 LINE",
"681 699 LINE",
"653 699 LINE",
"516 52 LINE",
"203 699 LINE",
"178 699 LINE",
"30 0 LINE"
);
},
{
closed = 1;
nodes = (
"318 853 OFFCURVE",
"350 864 OFFCURVE",
"383 864 CURVE SMOOTH",
"447 864 OFFCURVE",
"473 814 OFFCURVE",
"546 814 CURVE SMOOTH",
"583 814 OFFCURVE",
"619 826 OFFCURVE",
"645 859 CURVE",
"652 892 LINE",
"618 849 OFFCURVE",
"584 838 OFFCURVE",
"551 838 CURVE SMOOTH",
"486 838 OFFCURVE",
"456 888 OFFCURVE",
"388 888 CURVE SMOOTH",
"351 888 OFFCURVE",
"315 876 OFFCURVE",
"288 843 CURVE",
"281 810 LINE"
);
}
);
width = 663;
}
);
note = Ntilde;
unicode = 00D1;
},
{
glyphname = O;
lastChange = "2015-11-29 23:51:21 +0000";
layers = (
{
layerId = "C023BAC7-6FF9-47E4-9D72-1131A8F8A065";
name = "Light Italic";
paths = (
{
closed = 1;
nodes = (
"580 -15 OFFCURVE",
"759 131 OFFCURVE",
"806 349 CURVE SMOOTH",
"852 568 OFFCURVE",
"727 714 OFFCURVE",
"522 714 CURVE SMOOTH",
"311 714 OFFCURVE",
"130 568 OFFCURVE",
"84 349 CURVE SMOOTH",
"37 131 OFFCURVE",
"162 -15 OFFCURVE",
"367 -15 CURVE SMOOTH"
);
},
{
closed = 1;
nodes = (
"180 9 OFFCURVE",
"65 139 OFFCURVE",
"110 349 CURVE SMOOTH",
"154 558 OFFCURVE",
"330 690 OFFCURVE",
"517 690 CURVE SMOOTH",
"713 690 OFFCURVE",
"824 558 OFFCURVE",
"780 349 CURVE SMOOTH",
"735 139 OFFCURVE",
"556 9 OFFCURVE",
"372 9 CURVE SMOOTH"
);
}
);
width = 842;
}
);
leftKerningGroup = O;
note = O;
rightKerningGroup = O;
unicode = 004F;
},
{
glyphname = Oacute;
lastChange = "2015-11-29 23:51:23 +0000";
layers = (
{
layerId = "C023BAC7-6FF9-47E4-9D72-1131A8F8A065";
name = "Light Italic";
paths = (
{
closed = 1;
nodes = (
"580 -15 OFFCURVE",
"759 131 OFFCURVE",
"806 349 CURVE SMOOTH",
"852 568 OFFCURVE",
"727 714 OFFCURVE",
"522 714 CURVE SMOOTH",
"311 714 OFFCURVE",
"130 568 OFFCURVE",
"84 349 CURVE SMOOTH",
"37 131 OFFCURVE",
"162 -15 OFFCURVE",
"367 -15 CURVE SMOOTH"
);
},
{
closed = 1;
nodes = (
"180 9 OFFCURVE",
"65 139 OFFCURVE",
"110 349 CURVE SMOOTH",
"154 558 OFFCURVE",
"330 690 OFFCURVE",
"517 690 CURVE SMOOTH",
"713 690 OFFCURVE",
"824 558 OFFCURVE",
"780 349 CURVE SMOOTH",
"735 139 OFFCURVE",
"556 9 OFFCURVE",
"372 9 CURVE SMOOTH"
);
},
{
closed = 1;
nodes = (
"532 792 LINE",
"645 959 LINE",
"617 959 LINE",
"510 792 LINE"
);
}
);
width = 842;
}
);
leftKerningGroup = O;
note = Oacute;
rightKerningGroup = O;
unicode = 00D3;
},
{
glyphname = Obreve;
lastChange = "2015-11-29 23:51:23 +0000";
layers = (
{
layerId = "C023BAC7-6FF9-47E4-9D72-1131A8F8A065";
name = "Light Italic";
paths = (
{
closed = 1;
nodes = (
"580 -15 OFFCURVE",
"759 131 OFFCURVE",
"806 349 CURVE SMOOTH",
"852 568 OFFCURVE",
"727 714 OFFCURVE",
"522 714 CURVE SMOOTH",
"311 714 OFFCURVE",
"130 568 OFFCURVE",
"84 349 CURVE SMOOTH",
"37 131 OFFCURVE",
"162 -15 OFFCURVE",
"367 -15 CURVE SMOOTH"
);
},
{
closed = 1;
nodes = (
"180 9 OFFCURVE",
"65 139 OFFCURVE",
"110 349 CURVE SMOOTH",
"154 558 OFFCURVE",
"330 690 OFFCURVE",
"517 690 CURVE SMOOTH",
"713 690 OFFCURVE",
"824 558 OFFCURVE",
"780 349 CURVE SMOOTH",
"735 139 OFFCURVE",
"556 9 OFFCURVE",
"372 9 CURVE SMOOTH"
);
},
{
closed = 1;
nodes = (
"601 758 OFFCURVE",
"659 806 OFFCURVE",
"672 866 CURVE",
"646 866 LINE",
"636 818 OFFCURVE",
"593 781 OFFCURVE",
"534 781 CURVE SMOOTH",
"476 781 OFFCURVE",
"448 818 OFFCURVE",
"458 866 CURVE",
"436 866 LINE",
"423 806 OFFCURVE",
"461 758 OFFCURVE",
"531 758 CURVE SMOOTH"
);
}
);
width = 842;
}
);
leftKerningGroup = O;
note = Obreve;
rightKerningGroup = O;
unicode = 014E;
},
{
glyphname = Ocaron;
lastChange = "2015-11-29 23:51:21 +0000";
layers = (
{
layerId = "C023BAC7-6FF9-47E4-9D72-1131A8F8A065";
name = "Light Italic";
paths = (
{
closed = 1;
nodes = (
"580 -15 OFFCURVE",
"759 131 OFFCURVE",
"806 349 CURVE SMOOTH",
"852 568 OFFCURVE",
"727 714 OFFCURVE",
"522 714 CURVE SMOOTH",
"311 714 OFFCURVE",
"130 568 OFFCURVE",
"84 349 CURVE SMOOTH",
"37 131 OFFCURVE",
"162 -15 OFFCURVE",
"367 -15 CURVE SMOOTH"
);
},
{
closed = 1;
nodes = (
"180 9 OFFCURVE",
"65 139 OFFCURVE",
"110 349 CURVE SMOOTH",
"154 558 OFFCURVE",
"330 690 OFFCURVE",
"517 690 CURVE SMOOTH",
"713 690 OFFCURVE",
"824 558 OFFCURVE",
"780 349 CURVE SMOOTH",
"735 139 OFFCURVE",
"556 9 OFFCURVE",
"372 9 CURVE SMOOTH"
);
},
{
closed = 1;
nodes = (
"548 784 LINE",
"708 935 LINE",
"675 935 LINE",
"539 806 LINE",
"459 935 LINE",
"430 935 LINE",
"526 784 LINE"
);
}
);
width = 842;
}
);
leftKerningGroup = O;
note = Ocaron;
rightKerningGroup = O;
unicode = 01D1;
},
{
glyphname = Ocircumflex;
lastChange = "2015-11-29 23:51:22 +0000";
layers = (
{
layerId = "C023BAC7-6FF9-47E4-9D72-1131A8F8A065";
name = "Light Italic";
paths = (
{
closed = 1;
nodes = (
"580 -15 OFFCURVE",
"759 131 OFFCURVE",
"806 349 CURVE SMOOTH",
"852 568 OFFCURVE",
"727 714 OFFCURVE",
"522 714 CURVE SMOOTH",
"311 714 OFFCURVE",
"130 568 OFFCURVE",
"84 349 CURVE SMOOTH",
"37 131 OFFCURVE",
"162 -15 OFFCURVE",
"367 -15 CURVE SMOOTH"
);
},
{
closed = 1;
nodes = (
"180 9 OFFCURVE",
"65 139 OFFCURVE",
"110 349 CURVE SMOOTH",
"154 558 OFFCURVE",
"330 690 OFFCURVE",
"517 690 CURVE SMOOTH",
"713 690 OFFCURVE",
"824 558 OFFCURVE",
"780 349 CURVE SMOOTH",
"735 139 OFFCURVE",
"556 9 OFFCURVE",
"372 9 CURVE SMOOTH"
);
},
{
closed = 1;
nodes = (
"429 798 LINE",
"564 927 LINE",
"645 798 LINE",
"674 798 LINE",
"578 949 LINE",
"556 949 LINE",
"397 798 LINE"
);
}
);
width = 842;
}
);
leftKerningGroup = O;
note = Ocircumflex;
rightKerningGroup = O;
unicode = 00D4;
},
{
glyphname = Ocircumflexacute;
lastChange = "2015-11-29 23:51:22 +0000";
layers = (
{
layerId = "C023BAC7-6FF9-47E4-9D72-1131A8F8A065";
name = "Light Italic";
paths = (
{
closed = 1;
nodes = (
"580 -15 OFFCURVE",
"759 131 OFFCURVE",
"806 349 CURVE SMOOTH",
"852 568 OFFCURVE",
"727 714 OFFCURVE",
"522 714 CURVE SMOOTH",
"311 714 OFFCURVE",
"130 568 OFFCURVE",
"84 349 CURVE SMOOTH",
"37 131 OFFCURVE",
"162 -15 OFFCURVE",
"367 -15 CURVE SMOOTH"
);
},
{
closed = 1;
nodes = (
"180 9 OFFCURVE",
"65 139 OFFCURVE",
"110 349 CURVE SMOOTH",
"154 558 OFFCURVE",
"330 690 OFFCURVE",
"517 690 CURVE SMOOTH",
"713 690 OFFCURVE",
"824 558 OFFCURVE",
"780 349 CURVE SMOOTH",
"735 139 OFFCURVE",
"556 9 OFFCURVE",
"372 9 CURVE SMOOTH"
);
},
{
closed = 1;
nodes = (
"424 757 LINE",
"553 859 LINE",
"640 757 LINE",
"671 757 LINE",
"568 878 LINE",
"546 878 LINE",
"393 757 LINE"
);
},
{
closed = 1;
nodes = (
"653 840 LINE",
"746 948 LINE",
"718 948 LINE",
"631 840 LINE"
);
}
);
width = 842;
}
);
leftKerningGroup = O;
note = Ocircumflexacute;
rightKerningGroup = O;
unicode = 1ED0;
},
{
glyphname = Ocircumflexdotbelow;
lastChange = "2015-11-29 23:51:23 +0000";
layers = (
{
layerId = "C023BAC7-6FF9-47E4-9D72-1131A8F8A065";
name = "Light Italic";
paths = (
{
closed = 1;
nodes = (
"580 -15 OFFCURVE",
"759 131 OFFCURVE",
"806 349 CURVE SMOOTH",
"852 568 OFFCURVE",
"727 714 OFFCURVE",
"522 714 CURVE SMOOTH",
"311 714 OFFCURVE",
"130 568 OFFCURVE",
"84 349 CURVE SMOOTH",
"37 131 OFFCURVE",
"162 -15 OFFCURVE",
"367 -15 CURVE SMOOTH"
);
},
{
closed = 1;
nodes = (
"361 -121 OFFCURVE",
"376 -108 OFFCURVE",
"379 -93 CURVE SMOOTH",
"382 -78 OFFCURVE",
"372 -65 OFFCURVE",
"358 -65 CURVE SMOOTH",
"343 -65 OFFCURVE",
"327 -78 OFFCURVE",
"324 -93 CURVE SMOOTH",
"321 -108 OFFCURVE",
"331 -121 OFFCURVE",
"346 -121 CURVE SMOOTH"
);
},
{
closed = 1;
nodes = (
"180 9 OFFCURVE",
"65 139 OFFCURVE",
"110 349 CURVE SMOOTH",
"154 558 OFFCURVE",
"330 690 OFFCURVE",
"517 690 CURVE SMOOTH",
"713 690 OFFCURVE",
"824 558 OFFCURVE",
"780 349 CURVE SMOOTH",
"735 139 OFFCURVE",
"556 9 OFFCURVE",
"372 9 CURVE SMOOTH"
);
},
{
closed = 1;
nodes = (
"431 784 LINE",
"566 913 LINE",
"647 784 LINE",
"676 784 LINE",
"580 935 LINE",
"558 935 LINE",
"399 784 LINE"
);
}
);
width = 842;
}
);
leftKerningGroup = O;
note = Ocircumflexdotbelow;
rightKerningGroup = O;
unicode = 1ED8;
},
{
glyphname = Ocircumflexgrave;
lastChange = "2015-11-29 23:51:22 +0000";
layers = (
{
layerId = "C023BAC7-6FF9-47E4-9D72-1131A8F8A065";
name = "Light Italic";
paths = (
{
closed = 1;
nodes = (
"580 -15 OFFCURVE",
"759 131 OFFCURVE",
"806 349 CURVE SMOOTH",
"852 568 OFFCURVE",
"727 714 OFFCURVE",
"522 714 CURVE SMOOTH",
"311 714 OFFCURVE",
"130 568 OFFCURVE",
"84 349 CURVE SMOOTH",
"37 131 OFFCURVE",
"162 -15 OFFCURVE",
"367 -15 CURVE SMOOTH"
);
},
{
closed = 1;
nodes = (
"180 9 OFFCURVE",
"65 139 OFFCURVE",
"110 349 CURVE SMOOTH",
"154 558 OFFCURVE",
"330 690 OFFCURVE",
"517 690 CURVE SMOOTH",
"713 690 OFFCURVE",
"824 558 OFFCURVE",
"780 349 CURVE SMOOTH",
"735 139 OFFCURVE",
"556 9 OFFCURVE",
"372 9 CURVE SMOOTH"
);
},
{
closed = 1;
nodes = (
"453 840 LINE",
"411 948 LINE",
"383 948 LINE",
"431 840 LINE"
);
},
{
closed = 1;
nodes = (
"410 757 LINE",
"539 859 LINE",
"626 757 LINE",
"656 757 LINE",
"554 878 LINE",
"532 878 LINE",
"379 757 LINE"
);
}
);
width = 842;
}
);
leftKerningGroup = O;
note = Ocircumflexgrave;
rightKerningGroup = O;
unicode = 1ED2;
},
{
glyphname = Ocircumflexhookabove;
lastChange = "2015-11-29 23:51:23 +0000";
layers = (
{
layerId = "C023BAC7-6FF9-47E4-9D72-1131A8F8A065";
name = "Light Italic";
paths = (
{
closed = 1;
nodes = (
"580 -15 OFFCURVE",
"759 131 OFFCURVE",
"806 349 CURVE SMOOTH",
"852 568 OFFCURVE",
"727 714 OFFCURVE",
"522 714 CURVE SMOOTH",
"311 714 OFFCURVE",
"130 568 OFFCURVE",
"84 349 CURVE SMOOTH",
"37 131 OFFCURVE",
"162 -15 OFFCURVE",
"367 -15 CURVE SMOOTH"
);
},
{
closed = 1;
nodes = (
"180 9 OFFCURVE",
"65 139 OFFCURVE",
"110 349 CURVE SMOOTH",
"154 558 OFFCURVE",
"330 690 OFFCURVE",
"517 690 CURVE SMOOTH",
"713 690 OFFCURVE",
"824 558 OFFCURVE",
"780 349 CURVE SMOOTH",
"735 139 OFFCURVE",
"556 9 OFFCURVE",
"372 9 CURVE SMOOTH"
);
},
{
closed = 1;
nodes = (
"420 757 LINE",
"549 859 LINE",
"636 757 LINE",
"666 757 LINE",
"564 878 LINE",
"542 878 LINE",
"389 757 LINE"
);
},
{
closed = 1;
nodes = (
"648 830 LINE",
"654 857 LINE",
"697 859 OFFCURVE",
"728 882 OFFCURVE",
"736 917 CURVE",
"743 954 OFFCURVE",
"728 979 OFFCURVE",
"679 979 CURVE SMOOTH",
"661 979 OFFCURVE",
"641 975 OFFCURVE",
"629 971 CURVE",
"624 948 LINE",
"636 953 OFFCURVE",
"657 957 OFFCURVE",
"674 957 CURVE SMOOTH",
"704 957 OFFCURVE",
"718 947 OFFCURVE",
"712 917 CURVE SMOOTH",
"705 886 OFFCURVE",
"684 875 OFFCURVE",
"637 875 CURVE",
"627 830 LINE"
);
}
);
width = 842;
}
);
leftKerningGroup = O;
note = Ocircumflexhookabove;
rightKerningGroup = O;
unicode = 1ED4;
},
{
glyphname = Ocircumflextilde;
lastChange = "2015-11-29 23:51:22 +0000";
layers = (
{
layerId = "C023BAC7-6FF9-47E4-9D72-1131A8F8A065";
name = "Light Italic";
paths = (
{
closed = 1;
nodes = (
"580 -15 OFFCURVE",
"759 131 OFFCURVE",
"806 349 CURVE SMOOTH",
"852 568 OFFCURVE",
"727 714 OFFCURVE",
"522 714 CURVE SMOOTH",
"311 714 OFFCURVE",
"130 568 OFFCURVE",
"84 349 CURVE SMOOTH",
"37 131 OFFCURVE",
"162 -15 OFFCURVE",
"367 -15 CURVE SMOOTH"
);
},
{
closed = 1;
nodes = (
"180 9 OFFCURVE",
"65 139 OFFCURVE",
"110 349 CURVE SMOOTH",
"154 558 OFFCURVE",
"330 690 OFFCURVE",
"517 690 CURVE SMOOTH",
"713 690 OFFCURVE",
"824 558 OFFCURVE",
"780 349 CURVE SMOOTH",
"735 139 OFFCURVE",
"556 9 OFFCURVE",
"372 9 CURVE SMOOTH"
);
},
{
closed = 1;
nodes = (
"602 760 OFFCURVE",
"660 808 OFFCURVE",
"673 868 CURVE",
"649 868 LINE",
"639 820 OFFCURVE",
"596 783 OFFCURVE",
"537 783 CURVE SMOOTH",
"479 783 OFFCURVE",
"451 820 OFFCURVE",
"461 868 CURVE",
"437 868 LINE",
"424 808 OFFCURVE",
"462 760 OFFCURVE",
"532 760 CURVE SMOOTH"
);
},
{
closed = 1;
nodes = (
"666 896 OFFCURVE",
"688 907 OFFCURVE",
"708 933 CURVE",
"714 963 LINE",
"688 928 OFFCURVE",
"667 918 OFFCURVE",
"637 918 CURVE SMOOTH",
"595 918 OFFCURVE",
"549 964 OFFCURVE",
"504 964 CURVE SMOOTH",
"470 964 OFFCURVE",
"447 953 OFFCURVE",
"428 927 CURVE",
"421 897 LINE",
"450 932 OFFCURVE",
"470 942 OFFCURVE",
"500 942 CURVE SMOOTH",
"541 942 OFFCURVE",
"583 896 OFFCURVE",
"632 896 CURVE SMOOTH"
);
}
);
width = 842;
}
);
leftKerningGroup = O;
note = Ocircumflextilde;
rightKerningGroup = O;
unicode = 1ED6;
},
{
glyphname = Odieresis;
lastChange = "2015-11-29 23:51:20 +0000";
layers = (
{
layerId = "C023BAC7-6FF9-47E4-9D72-1131A8F8A065";
name = "Light Italic";
paths = (
{
closed = 1;
nodes = (
"580 -15 OFFCURVE",
"759 131 OFFCURVE",
"806 349 CURVE SMOOTH",
"852 568 OFFCURVE",
"727 714 OFFCURVE",
"522 714 CURVE SMOOTH",
"311 714 OFFCURVE",
"130 568 OFFCURVE",
"84 349 CURVE SMOOTH",
"37 131 OFFCURVE",
"162 -15 OFFCURVE",
"367 -15 CURVE SMOOTH"
);
},
{
closed = 1;
nodes = (
"180 9 OFFCURVE",
"65 139 OFFCURVE",
"110 349 CURVE SMOOTH",
"154 558 OFFCURVE",
"330 690 OFFCURVE",
"517 690 CURVE SMOOTH",
"713 690 OFFCURVE",
"824 558 OFFCURVE",
"780 349 CURVE SMOOTH",
"735 139 OFFCURVE",
"556 9 OFFCURVE",
"372 9 CURVE SMOOTH"
);
},
{
closed = 1;
nodes = (
"457 802 OFFCURVE",
"472 815 OFFCURVE",
"476 830 CURVE",
"479 845 OFFCURVE",
"468 858 OFFCURVE",
"453 858 CURVE SMOOTH",
"438 858 OFFCURVE",
"423 845 OFFCURVE",
"420 830 CURVE",
"416 815 OFFCURVE",
"427 802 OFFCURVE",
"442 802 CURVE SMOOTH"
);
},
{
closed = 1;
nodes = (
"655 802 OFFCURVE",
"670 815 OFFCURVE",
"674 830 CURVE",
"677 845 OFFCURVE",
"666 858 OFFCURVE",
"651 858 CURVE SMOOTH",
"636 858 OFFCURVE",
"621 845 OFFCURVE",
"618 830 CURVE",
"614 815 OFFCURVE",
"625 802 OFFCURVE",
"640 802 CURVE SMOOTH"
);
}
);
width = 842;
}
);
leftKerningGroup = O;
note = Odieresis;
rightKerningGroup = O;
unicode = 00D6;
},
{
glyphname = Odotbelow;
lastChange = "2015-11-29 23:51:23 +0000";
layers = (
{
layerId = "C023BAC7-6FF9-47E4-9D72-1131A8F8A065";
name = "Light Italic";
paths = (
{
closed = 1;
nodes = (
"580 -15 OFFCURVE",
"759 131 OFFCURVE",
"806 349 CURVE SMOOTH",
"852 568 OFFCURVE",
"727 714 OFFCURVE",
"522 714 CURVE SMOOTH",
"311 714 OFFCURVE",
"130 568 OFFCURVE",
"84 349 CURVE SMOOTH",
"37 131 OFFCURVE",
"162 -15 OFFCURVE",
"367 -15 CURVE SMOOTH"
);
},
{
closed = 1;
nodes = (
"361 -121 OFFCURVE",
"376 -108 OFFCURVE",
"379 -93 CURVE SMOOTH",
"382 -78 OFFCURVE",
"372 -65 OFFCURVE",
"358 -65 CURVE SMOOTH",
"343 -65 OFFCURVE",
"327 -78 OFFCURVE",
"324 -93 CURVE SMOOTH",
"321 -108 OFFCURVE",
"331 -121 OFFCURVE",
"346 -121 CURVE SMOOTH"
);
},
{
closed = 1;
nodes = (
"180 9 OFFCURVE",
"65 139 OFFCURVE",
"110 349 CURVE SMOOTH",
"154 558 OFFCURVE",
"330 690 OFFCURVE",
"517 690 CURVE SMOOTH",
"713 690 OFFCURVE",
"824 558 OFFCURVE",
"780 349 CURVE SMOOTH",
"735 139 OFFCURVE",
"556 9 OFFCURVE",
"372 9 CURVE SMOOTH"
);
}
);
width = 842;
}
);
leftKerningGroup = O;
note = Odotbelow;
rightKerningGroup = O;
unicode = 1ECC;
},
{
glyphname = Ograve;
lastChange = "2015-11-29 23:51:21 +0000";
layers = (
{
layerId = "C023BAC7-6FF9-47E4-9D72-1131A8F8A065";
name = "Light Italic";
paths = (
{
closed = 1;
nodes = (
"580 -15 OFFCURVE",
"759 131 OFFCURVE",
"806 349 CURVE SMOOTH",
"852 568 OFFCURVE",
"727 714 OFFCURVE",
"522 714 CURVE SMOOTH",
"311 714 OFFCURVE",
"130 568 OFFCURVE",
"84 349 CURVE SMOOTH",
"37 131 OFFCURVE",
"162 -15 OFFCURVE",
"367 -15 CURVE SMOOTH"
);
},
{
closed = 1;
nodes = (
"180 9 OFFCURVE",
"65 139 OFFCURVE",
"110 349 CURVE SMOOTH",
"154 558 OFFCURVE",
"330 690 OFFCURVE",
"517 690 CURVE SMOOTH",
"713 690 OFFCURVE",
"824 558 OFFCURVE",
"780 349 CURVE SMOOTH",
"735 139 OFFCURVE",
"556 9 OFFCURVE",
"372 9 CURVE SMOOTH"
);
},
{
closed = 1;
nodes = (
"571 792 LINE",
"536 959 LINE",
"508 959 LINE",
"549 792 LINE"
);
}
);
width = 842;
}
);
leftKerningGroup = O;
note = Ograve;
rightKerningGroup = O;
unicode = 00D2;
},
{
glyphname = Ohookabove;
lastChange = "2015-11-29 23:51:21 +0000";
layers = (
{
layerId = "C023BAC7-6FF9-47E4-9D72-1131A8F8A065";
name = "Light Italic";
paths = (
{
closed = 1;
nodes = (
"580 -15 OFFCURVE",
"759 131 OFFCURVE",
"806 349 CURVE SMOOTH",
"852 568 OFFCURVE",
"727 714 OFFCURVE",
"522 714 CURVE SMOOTH",
"311 714 OFFCURVE",
"130 568 OFFCURVE",
"84 349 CURVE SMOOTH",
"37 131 OFFCURVE",
"162 -15 OFFCURVE",
"367 -15 CURVE SMOOTH"
);
},
{
closed = 1;
nodes = (
"180 9 OFFCURVE",
"65 139 OFFCURVE",
"110 349 CURVE SMOOTH",
"154 558 OFFCURVE",
"330 690 OFFCURVE",
"517 690 CURVE SMOOTH",
"713 690 OFFCURVE",
"824 558 OFFCURVE",
"780 349 CURVE SMOOTH",
"735 139 OFFCURVE",
"556 9 OFFCURVE",
"372 9 CURVE SMOOTH"
);
},
{
closed = 1;
nodes = (
"539 784 LINE",
"548 828 LINE",
"614 831 OFFCURVE",
"653 866 OFFCURVE",
"664 915 CURVE SMOOTH",
"674 965 OFFCURVE",
"648 1001 OFFCURVE",
"579 1001 CURVE SMOOTH",
"559 1001 OFFCURVE",
"534 997 OFFCURVE",
"522 993 CURVE",
"517 969 LINE",
"530 974 OFFCURVE",
"556 977 OFFCURVE",
"574 977 CURVE SMOOTH",
"622 977 OFFCURVE",
"647 958 OFFCURVE",
"637 914 CURVE SMOOTH",
"628 870 OFFCURVE",
"601 847 OFFCURVE",
"529 847 CURVE",
"516 784 LINE"
);
}
);
width = 842;
}
);
leftKerningGroup = O;
note = Ohookabove;
rightKerningGroup = O;
unicode = 1ECE;
},
{
glyphname = Ohorn;
lastChange = "2015-11-29 23:51:23 +0000";
layers = (
{
layerId = "C023BAC7-6FF9-47E4-9D72-1131A8F8A065";
name = "Light Italic";
paths = (
{
closed = 1;
nodes = (
"581 -15 OFFCURVE",
"759 131 OFFCURVE",
"806 349 CURVE SMOOTH",
"827 450 OFFCURVE",
"811 536 OFFCURVE",
"769 599 CURVE",
"829 610 OFFCURVE",
"883 657 OFFCURVE",
"894 710 CURVE SMOOTH",
"902 747 LINE",
"878 747 LINE",
"870 710 LINE SMOOTH",
"860 663 OFFCURVE",
"810 622 OFFCURVE",
"752 620 CURVE",
"701 680 OFFCURVE",
"621 714 OFFCURVE",
"522 714 CURVE SMOOTH",
"308 714 OFFCURVE",
"130 568 OFFCURVE",
"84 349 CURVE SMOOTH",
"37 131 OFFCURVE",
"165 -15 OFFCURVE",
"367 -15 CURVE SMOOTH"
);
},
{
closed = 1;
nodes = (
"188 9 OFFCURVE",
"65 139 OFFCURVE",
"110 349 CURVE SMOOTH",
"154 558 OFFCURVE",
"330 690 OFFCURVE",
"517 690 CURVE SMOOTH",
"714 690 OFFCURVE",
"824 558 OFFCURVE",
"780 349 CURVE SMOOTH",
"735 139 OFFCURVE",
"556 9 OFFCURVE",
"372 9 CURVE SMOOTH"
);
}
);
width = 824;
}
);
leftKerningGroup = O;
note = Ohorn;
rightKerningGroup = O;
unicode = 01A0;
},
{
glyphname = Ohornacute;
lastChange = "2015-11-29 23:51:20 +0000";
layers = (
{
layerId = "C023BAC7-6FF9-47E4-9D72-1131A8F8A065";
name = "Light Italic";
paths = (
{
closed = 1;
nodes = (
"581 -15 OFFCURVE",
"759 131 OFFCURVE",
"806 349 CURVE SMOOTH",
"827 450 OFFCURVE",
"811 536 OFFCURVE",
"769 599 CURVE",
"829 610 OFFCURVE",
"883 657 OFFCURVE",
"894 710 CURVE SMOOTH",
"902 747 LINE",
"878 747 LINE",
"870 710 LINE SMOOTH",
"860 663 OFFCURVE",
"810 622 OFFCURVE",
"752 620 CURVE",
"701 680 OFFCURVE",
"621 714 OFFCURVE",
"522 714 CURVE SMOOTH",
"308 714 OFFCURVE",
"130 568 OFFCURVE",
"84 349 CURVE SMOOTH",
"37 131 OFFCURVE",
"165 -15 OFFCURVE",
"367 -15 CURVE SMOOTH"
);
},
{
closed = 1;
nodes = (
"188 9 OFFCURVE",
"65 139 OFFCURVE",
"110 349 CURVE SMOOTH",
"154 558 OFFCURVE",
"330 690 OFFCURVE",
"517 690 CURVE SMOOTH",
"714 690 OFFCURVE",
"824 558 OFFCURVE",
"780 349 CURVE SMOOTH",
"735 139 OFFCURVE",
"556 9 OFFCURVE",
"372 9 CURVE SMOOTH"
);
},
{
closed = 1;
nodes = (
"557 783 LINE",
"670 950 LINE",
"642 950 LINE",
"535 783 LINE"
);
}
);
width = 834;
}
);
leftKerningGroup = O;
note = Ohornacute;
rightKerningGroup = O;
unicode = 1EDA;
},
{
glyphname = Ohorndotbelow;
lastChange = "2015-11-29 23:51:20 +0000";
layers = (
{
layerId = "C023BAC7-6FF9-47E4-9D72-1131A8F8A065";
name = "Light Italic";
paths = (
{
closed = 1;
nodes = (
"581 -15 OFFCURVE",
"759 131 OFFCURVE",
"806 349 CURVE SMOOTH",
"827 450 OFFCURVE",
"811 536 OFFCURVE",
"769 599 CURVE",
"829 610 OFFCURVE",
"883 657 OFFCURVE",
"894 710 CURVE SMOOTH",
"902 747 LINE",
"878 747 LINE",
"870 710 LINE SMOOTH",
"860 663 OFFCURVE",
"810 622 OFFCURVE",
"752 620 CURVE",
"701 680 OFFCURVE",
"621 714 OFFCURVE",
"522 714 CURVE SMOOTH",
"308 714 OFFCURVE",
"130 568 OFFCURVE",
"84 349 CURVE SMOOTH",
"37 131 OFFCURVE",
"165 -15 OFFCURVE",
"367 -15 CURVE SMOOTH"
);
},
{
closed = 1;
nodes = (
"369 -121 OFFCURVE",
"384 -108 OFFCURVE",
"387 -93 CURVE SMOOTH",
"390 -78 OFFCURVE",
"380 -65 OFFCURVE",
"366 -65 CURVE SMOOTH",
"351 -65 OFFCURVE",
"335 -78 OFFCURVE",
"332 -93 CURVE SMOOTH",
"329 -108 OFFCURVE",
"339 -121 OFFCURVE",
"354 -121 CURVE SMOOTH"
);
},
{
closed = 1;
nodes = (
"188 9 OFFCURVE",
"65 139 OFFCURVE",
"110 349 CURVE SMOOTH",
"154 558 OFFCURVE",
"330 690 OFFCURVE",
"517 690 CURVE SMOOTH",
"714 690 OFFCURVE",
"824 558 OFFCURVE",
"780 349 CURVE SMOOTH",
"735 139 OFFCURVE",
"556 9 OFFCURVE",
"372 9 CURVE SMOOTH"
);
}
);
width = 834;
}
);
leftKerningGroup = O;
note = Ohorndotbelow;
rightKerningGroup = O;
unicode = 1EE2;
},
{
glyphname = Ohorngrave;
lastChange = "2015-11-29 23:51:23 +0000";
layers = (
{
layerId = "C023BAC7-6FF9-47E4-9D72-1131A8F8A065";
name = "Light Italic";
paths = (
{
closed = 1;
nodes = (
"581 -15 OFFCURVE",
"759 131 OFFCURVE",
"806 349 CURVE SMOOTH",
"827 450 OFFCURVE",
"811 536 OFFCURVE",
"769 599 CURVE",
"829 610 OFFCURVE",
"883 657 OFFCURVE",
"894 710 CURVE SMOOTH",
"902 747 LINE",
"878 747 LINE",
"870 710 LINE SMOOTH",
"860 663 OFFCURVE",
"810 622 OFFCURVE",
"752 620 CURVE",
"701 680 OFFCURVE",
"621 714 OFFCURVE",
"522 714 CURVE SMOOTH",
"308 714 OFFCURVE",
"130 568 OFFCURVE",
"84 349 CURVE SMOOTH",
"37 131 OFFCURVE",
"165 -15 OFFCURVE",
"367 -15 CURVE SMOOTH"
);
},
{
closed = 1;
nodes = (
"188 9 OFFCURVE",
"65 139 OFFCURVE",
"110 349 CURVE SMOOTH",
"154 558 OFFCURVE",
"330 690 OFFCURVE",
"517 690 CURVE SMOOTH",
"714 690 OFFCURVE",
"824 558 OFFCURVE",
"780 349 CURVE SMOOTH",
"735 139 OFFCURVE",
"556 9 OFFCURVE",
"372 9 CURVE SMOOTH"
);
},
{
closed = 1;
nodes = (
"565 783 LINE",
"530 950 LINE",
"502 950 LINE",
"543 783 LINE"
);
}
);
width = 834;
}
);
leftKerningGroup = O;
note = Ohorngrave;
rightKerningGroup = O;
unicode = 1EDC;
},
{
glyphname = Ohornhookabove;
lastChange = "2015-11-29 23:51:23 +0000";
layers = (
{
layerId = "C023BAC7-6FF9-47E4-9D72-1131A8F8A065";
name = "Light Italic";
paths = (
{
closed = 1;
nodes = (
"581 -15 OFFCURVE",
"759 131 OFFCURVE",
"806 349 CURVE SMOOTH",
"827 450 OFFCURVE",
"811 536 OFFCURVE",
"769 599 CURVE",
"829 610 OFFCURVE",
"883 657 OFFCURVE",
"894 710 CURVE SMOOTH",
"902 747 LINE",
"878 747 LINE",
"870 710 LINE SMOOTH",
"860 663 OFFCURVE",
"810 622 OFFCURVE",
"752 620 CURVE",
"701 680 OFFCURVE",
"621 714 OFFCURVE",
"522 714 CURVE SMOOTH",
"308 714 OFFCURVE",
"130 568 OFFCURVE",
"84 349 CURVE SMOOTH",
"37 131 OFFCURVE",
"165 -15 OFFCURVE",
"367 -15 CURVE SMOOTH"
);
},
{
closed = 1;
nodes = (
"188 9 OFFCURVE",
"65 139 OFFCURVE",
"110 349 CURVE SMOOTH",
"154 558 OFFCURVE",
"330 690 OFFCURVE",
"517 690 CURVE SMOOTH",
"714 690 OFFCURVE",
"824 558 OFFCURVE",
"780 349 CURVE SMOOTH",
"735 139 OFFCURVE",
"556 9 OFFCURVE",
"372 9 CURVE SMOOTH"
);
},
{
closed = 1;
nodes = (
"557 784 LINE",
"566 828 LINE",
"632 831 OFFCURVE",
"671 866 OFFCURVE",
"682 915 CURVE SMOOTH",
"692 965 OFFCURVE",
"666 1001 OFFCURVE",
"597 1001 CURVE SMOOTH",
"577 1001 OFFCURVE",
"552 997 OFFCURVE",
"540 993 CURVE",
"535 969 LINE",
"548 974 OFFCURVE",
"574 977 OFFCURVE",
"592 977 CURVE SMOOTH",
"640 977 OFFCURVE",
"665 958 OFFCURVE",
"655 914 CURVE SMOOTH",
"646 870 OFFCURVE",
"619 847 OFFCURVE",
"547 847 CURVE",
"534 784 LINE"
);
}
);
width = 834;
}
);
leftKerningGroup = O;
note = Ohornhookabove;
rightKerningGroup = O;
unicode = 1EDE;
},
{
glyphname = Ohorntilde;
lastChange = "2015-11-29 23:51:23 +0000";
layers = (
{
layerId = "C023BAC7-6FF9-47E4-9D72-1131A8F8A065";
name = "Light Italic";
paths = (
{
closed = 1;
nodes = (
"581 -15 OFFCURVE",
"759 131 OFFCURVE",
"806 349 CURVE SMOOTH",
"827 450 OFFCURVE",
"811 536 OFFCURVE",
"769 599 CURVE",
"829 610 OFFCURVE",
"883 657 OFFCURVE",
"894 710 CURVE SMOOTH",
"902 747 LINE",
"878 747 LINE",
"870 710 LINE SMOOTH",
"860 663 OFFCURVE",
"810 622 OFFCURVE",
"752 620 CURVE",
"701 680 OFFCURVE",
"621 714 OFFCURVE",
"522 714 CURVE SMOOTH",
"308 714 OFFCURVE",
"130 568 OFFCURVE",
"84 349 CURVE SMOOTH",
"37 131 OFFCURVE",
"165 -15 OFFCURVE",
"367 -15 CURVE SMOOTH"
);
},
{
closed = 1;
nodes = (
"188 9 OFFCURVE",
"65 139 OFFCURVE",
"110 349 CURVE SMOOTH",
"154 558 OFFCURVE",
"330 690 OFFCURVE",
"517 690 CURVE SMOOTH",
"714 690 OFFCURVE",
"824 558 OFFCURVE",
"780 349 CURVE SMOOTH",
"735 139 OFFCURVE",
"556 9 OFFCURVE",
"372 9 CURVE SMOOTH"
);
},
{
closed = 1;
nodes = (
"409 827 OFFCURVE",
"441 838 OFFCURVE",
"474 838 CURVE SMOOTH",
"538 838 OFFCURVE",
"564 788 OFFCURVE",
"637 788 CURVE SMOOTH",
"674 788 OFFCURVE",
"710 800 OFFCURVE",
"736 833 CURVE",
"743 866 LINE",
"709 823 OFFCURVE",
"675 812 OFFCURVE",
"642 812 CURVE SMOOTH",
"577 812 OFFCURVE",
"547 862 OFFCURVE",
"479 862 CURVE SMOOTH",
"442 862 OFFCURVE",
"406 850 OFFCURVE",
"379 817 CURVE",
"372 784 LINE"
);
}
);
width = 834;
}
);
leftKerningGroup = O;
note = Ohorntilde;
rightKerningGroup = O;
unicode = 1EE0;
},
{
glyphname = Ohungarumlaut;
lastChange = "2015-11-29 23:51:20 +0000";
layers = (
{
layerId = "C023BAC7-6FF9-47E4-9D72-1131A8F8A065";
name = "Light Italic";
paths = (
{
closed = 1;
nodes = (
"580 -15 OFFCURVE",
"759 131 OFFCURVE",
"806 349 CURVE SMOOTH",
"852 568 OFFCURVE",
"727 714 OFFCURVE",
"522 714 CURVE SMOOTH",
"311 714 OFFCURVE",
"130 568 OFFCURVE",
"84 349 CURVE SMOOTH",
"37 131 OFFCURVE",
"162 -15 OFFCURVE",
"367 -15 CURVE SMOOTH"
);
},
{
closed = 1;
nodes = (
"180 9 OFFCURVE",
"65 139 OFFCURVE",
"110 349 CURVE SMOOTH",
"154 558 OFFCURVE",
"330 690 OFFCURVE",
"517 690 CURVE SMOOTH",
"713 690 OFFCURVE",
"824 558 OFFCURVE",
"780 349 CURVE SMOOTH",
"735 139 OFFCURVE",
"556 9 OFFCURVE",
"372 9 CURVE SMOOTH"
);
},
{
closed = 1;
nodes = (
"440 780 LINE",
"553 947 LINE",
"525 947 LINE",
"419 780 LINE"
);
},
{
closed = 1;
nodes = (
"607 780 LINE",
"720 947 LINE",
"692 947 LINE",
"585 780 LINE"
);
}
);
width = 842;
}
);
leftKerningGroup = O;
note = Ohungarumlaut;
rightKerningGroup = O;
unicode = 0150;
},
{
glyphname = Omacron;
lastChange = "2015-11-29 23:51:23 +0000";
layers = (
{
layerId = "C023BAC7-6FF9-47E4-9D72-1131A8F8A065";
name = "Light Italic";
paths = (
{
closed = 1;
nodes = (
"580 -15 OFFCURVE",
"759 131 OFFCURVE",
"806 349 CURVE SMOOTH",
"852 568 OFFCURVE",
"727 714 OFFCURVE",
"522 714 CURVE SMOOTH",
"311 714 OFFCURVE",
"130 568 OFFCURVE",
"84 349 CURVE SMOOTH",
"37 131 OFFCURVE",
"162 -15 OFFCURVE",
"367 -15 CURVE SMOOTH"
);
},
{
closed = 1;
nodes = (
"180 9 OFFCURVE",
"65 139 OFFCURVE",
"110 349 CURVE SMOOTH",
"154 558 OFFCURVE",
"330 690 OFFCURVE",
"517 690 CURVE SMOOTH",
"713 690 OFFCURVE",
"824 558 OFFCURVE",
"780 349 CURVE SMOOTH",
"735 139 OFFCURVE",
"556 9 OFFCURVE",
"372 9 CURVE SMOOTH"
);
},
{
closed = 1;
nodes = (
"663 813 LINE",
"669 837 LINE",
"391 837 LINE",
"385 813 LINE"
);
}
);
width = 842;
}
);
leftKerningGroup = O;
note = Omacron;
rightKerningGroup = O;
unicode = 014C;
},
{
glyphname = Oslash;
lastChange = "2015-11-29 23:51:23 +0000";
layers = (
{
layerId = "C023BAC7-6FF9-47E4-9D72-1131A8F8A065";
name = "Light Italic";
paths = (
{
closed = 1;
nodes = (
"198 -86 LINE",
"252 2 LINE",
"287 -9 OFFCURVE",
"325 -15 OFFCURVE",
"367 -15 CURVE SMOOTH",
"583 -15 OFFCURVE",
"759 131 OFFCURVE",
"806 349 CURVE SMOOTH",
"839 508 OFFCURVE",
"783 629 OFFCURVE",
"671 683 CURVE",
"733 784 LINE",
"705 784 LINE",
"649 692 LINE",
"611 706 OFFCURVE",
"568 714 OFFCURVE",
"522 714 CURVE SMOOTH",
"317 714 OFFCURVE",
"132 577 OFFCURVE",
"84 349 CURVE SMOOTH",
"49 185 OFFCURVE",
"110 62 OFFCURVE",
"230 11 CURVE",
"170 -86 LINE"
);
},
{
closed = 1;
nodes = (
"136 81 OFFCURVE",
"77 193 OFFCURVE",
"110 349 CURVE SMOOTH",
"154 558 OFFCURVE",
"330 690 OFFCURVE",
"517 690 CURVE SMOOTH",
"560 690 OFFCURVE",
"600 683 OFFCURVE",
"635 669 CURVE",
"244 34 LINE"
);
},
{
closed = 1;
nodes = (
"334 9 OFFCURVE",
"298 14 OFFCURVE",
"266 25 CURVE",
"657 660 LINE",
"760 613 OFFCURVE",
"812 499 OFFCURVE",
"780 349 CURVE SMOOTH",
"735 139 OFFCURVE",
"556 9 OFFCURVE",
"372 9 CURVE SMOOTH"
);
}
);
width = 842;
}
);
leftKerningGroup = O;
note = Oslash;
rightKerningGroup = O;
unicode = 00D8;
},
{
glyphname = Oslashacute;
lastChange = "2015-11-29 23:51:22 +0000";
layers = (
{
layerId = "C023BAC7-6FF9-47E4-9D72-1131A8F8A065";
name = "Light Italic";
paths = (
{
closed = 1;
nodes = (
"198 -86 LINE",
"252 2 LINE",
"287 -9 OFFCURVE",
"325 -15 OFFCURVE",
"367 -15 CURVE SMOOTH",
"583 -15 OFFCURVE",
"759 131 OFFCURVE",
"806 349 CURVE SMOOTH",
"839 508 OFFCURVE",
"783 629 OFFCURVE",
"671 683 CURVE",
"733 784 LINE",
"705 784 LINE",
"649 692 LINE",
"611 706 OFFCURVE",
"568 714 OFFCURVE",
"522 714 CURVE SMOOTH",
"317 714 OFFCURVE",
"132 577 OFFCURVE",
"84 349 CURVE SMOOTH",
"49 185 OFFCURVE",
"110 62 OFFCURVE",
"230 11 CURVE",
"170 -86 LINE"
);
},
{
closed = 1;
nodes = (
"136 81 OFFCURVE",
"77 193 OFFCURVE",
"110 349 CURVE SMOOTH",
"154 558 OFFCURVE",
"330 690 OFFCURVE",
"517 690 CURVE SMOOTH",
"560 690 OFFCURVE",
"600 683 OFFCURVE",
"635 669 CURVE",
"244 34 LINE"
);
},
{
closed = 1;
nodes = (
"334 9 OFFCURVE",
"298 14 OFFCURVE",
"266 25 CURVE",
"657 660 LINE",
"760 613 OFFCURVE",
"812 499 OFFCURVE",
"780 349 CURVE SMOOTH",
"735 139 OFFCURVE",
"556 9 OFFCURVE",
"372 9 CURVE SMOOTH"
);
},
{
closed = 1;
nodes = (
"557 784 LINE",
"670 951 LINE",
"642 951 LINE",
"535 784 LINE"
);
}
);
width = 842;
}
);
leftKerningGroup = O;
note = Oslashacute;
rightKerningGroup = O;
unicode = 01FE;
},
{
glyphname = Otilde;
lastChange = "2015-11-29 23:51:24 +0000";
layers = (
{
layerId = "C023BAC7-6FF9-47E4-9D72-1131A8F8A065";
name = "Light Italic";
paths = (
{
closed = 1;
nodes = (
"580 -15 OFFCURVE",
"759 131 OFFCURVE",
"806 349 CURVE SMOOTH",
"852 568 OFFCURVE",
"727 714 OFFCURVE",
"522 714 CURVE SMOOTH",
"311 714 OFFCURVE",
"130 568 OFFCURVE",
"84 349 CURVE SMOOTH",
"37 131 OFFCURVE",
"162 -15 OFFCURVE",
"367 -15 CURVE SMOOTH"
);
},
{
closed = 1;
nodes = (
"180 9 OFFCURVE",
"65 139 OFFCURVE",
"110 349 CURVE SMOOTH",
"154 558 OFFCURVE",
"330 690 OFFCURVE",
"517 690 CURVE SMOOTH",
"713 690 OFFCURVE",
"824 558 OFFCURVE",
"780 349 CURVE SMOOTH",
"735 139 OFFCURVE",
"556 9 OFFCURVE",
"372 9 CURVE SMOOTH"
);
},
{
closed = 1;
nodes = (
"403 853 OFFCURVE",
"435 864 OFFCURVE",
"468 864 CURVE SMOOTH",
"532 864 OFFCURVE",
"558 814 OFFCURVE",
"631 814 CURVE SMOOTH",
"668 814 OFFCURVE",
"704 826 OFFCURVE",
"730 859 CURVE",
"737 892 LINE",
"703 849 OFFCURVE",
"669 838 OFFCURVE",
"636 838 CURVE SMOOTH",
"571 838 OFFCURVE",
"541 888 OFFCURVE",
"473 888 CURVE SMOOTH",
"436 888 OFFCURVE",
"400 876 OFFCURVE",
"373 843 CURVE",
"366 810 LINE"
);
}
);
width = 842;
}
);
leftKerningGroup = O;
note = Otilde;
rightKerningGroup = O;
unicode = 00D5;
},
{
glyphname = OE;
lastChange = "2015-11-29 23:51:22 +0000";
layers = (
{
layerId = "C023BAC7-6FF9-47E4-9D72-1131A8F8A065";
name = "Light Italic";
paths = (
{
closed = 1;
nodes = (
"775 0 LINE",
"780 24 LINE",
"441 24 LINE",
"507 338 LINE",
"750 338 LINE",
"755 362 LINE",
"512 362 LINE",
"579 675 LINE",
"918 675 LINE",
"923 699 LINE",
"519 699 LINE SMOOTH",
"305 699 OFFCURVE",
"131 573 OFFCURVE",
"84 349 CURVE SMOOTH",
"38 131 OFFCURVE",
"171 0 OFFCURVE",
"371 0 CURVE SMOOTH"
);
},
{
closed = 1;
nodes = (
"192 24 OFFCURVE",
"65 139 OFFCURVE",
"110 349 CURVE SMOOTH",
"154 558 OFFCURVE",
"327 675 OFFCURVE",
"514 675 CURVE SMOOTH",
"551 675 LINE",
"413 24 LINE",
"376 24 LINE SMOOTH"
);
}
);
width = 885;
}
);
leftKerningGroup = O;
note = OE;
rightKerningGroup = E;
unicode = 0152;
},
{
glyphname = P;
lastChange = "2015-11-29 23:51:23 +0000";
layers = (
{
layerId = "C023BAC7-6FF9-47E4-9D72-1131A8F8A065";
name = "Light Italic";
paths = (
{
closed = 1;
nodes = (
"58 0 LINE",
"128 333 LINE",
"339 333 LINE SMOOTH",
"481 333 OFFCURVE",
"561 385 OFFCURVE",
"589 516 CURVE SMOOTH",
"617 647 OFFCURVE",
"553 699 OFFCURVE",
"417 699 CURVE SMOOTH",
"178 699 LINE",
"30 0 LINE"
);
},
{
closed = 1;
nodes = (
"201 675 LINE",
"415 675 LINE SMOOTH",
"525 675 OFFCURVE",
"591 646 OFFCURVE",
"563 516 CURVE SMOOTH",
"536 386 OFFCURVE",
"445 357 OFFCURVE",
"347 357 CURVE SMOOTH",
"133 357 LINE"
);
}
);
width = 570;
}
);
note = P;
unicode = 0050;
},
{
glyphname = Thorn;
lastChange = "2015-11-29 23:51:21 +0000";
layers = (
{
layerId = "C023BAC7-6FF9-47E4-9D72-1131A8F8A065";
name = "Light Italic";
paths = (
{
closed = 1;
nodes = (
"58 0 LINE",
"93 167 LINE",
"304 167 LINE SMOOTH",
"447 167 OFFCURVE",
"526 219 OFFCURVE",
"554 350 CURVE SMOOTH",
"582 481 OFFCURVE",
"514 533 OFFCURVE",
"382 533 CURVE SMOOTH",
"171 533 LINE",
"206 699 LINE",
"178 699 LINE",
"30 0 LINE"
);
},
{
closed = 1;
nodes = (
"166 509 LINE",
"380 509 LINE SMOOTH",
"482 509 OFFCURVE",
"556 480 OFFCURVE",
"528 350 CURVE SMOOTH",
"500 220 OFFCURVE",
"414 191 OFFCURVE",
"312 191 CURVE SMOOTH",
"98 191 LINE"
);
}
);
width = 590;
}
);
note = Thorn;
unicode = 00DE;
},
{
glyphname = Q;
lastChange = "2015-11-29 23:51:22 +0000";
layers = (
{
layerId = "C023BAC7-6FF9-47E4-9D72-1131A8F8A065";
name = "Light Italic";
paths = (
{
closed = 1;
nodes = (
"737 0 LINE",
"742 24 LINE",
"504 24 LINE",
"652 62 OFFCURVE",
"770 182 OFFCURVE",
"806 349 CURVE SMOOTH",
"852 568 OFFCURVE",
"727 714 OFFCURVE",
"522 714 CURVE SMOOTH",
"312 714 OFFCURVE",
"130 568 OFFCURVE",
"84 349 CURVE SMOOTH",
"39 137 OFFCURVE",
"160 0 OFFCURVE",
"376 0 CURVE SMOOTH"
);
},
{
closed = 1;
nodes = (
"187 24 OFFCURVE",
"65 139 OFFCURVE",
"110 349 CURVE SMOOTH",
"154 558 OFFCURVE",
"330 690 OFFCURVE",
"517 690 CURVE SMOOTH",
"710 690 OFFCURVE",
"824 558 OFFCURVE",
"780 349 CURVE SMOOTH",
"735 139 OFFCURVE",
"553 24 OFFCURVE",
"376 24 CURVE SMOOTH"
);
}
);
width = 847;
}
);
leftKerningGroup = O;
note = Q;
rightKerningGroup = O;
unicode = 0051;
},
{
glyphname = R;
lastChange = "2015-11-29 23:51:23 +0000";
layers = (
{
layerId = "C023BAC7-6FF9-47E4-9D72-1131A8F8A065";
name = "Light Italic";
paths = (
{
closed = 1;
nodes = (
"58 0 LINE",
"130 340 LINE",
"329 340 LINE",
"452 0 LINE",
"481 0 LINE",
"358 340 LINE",
"496 341 OFFCURVE",
"569 421 OFFCURVE",
"590 518 CURVE SMOOTH",
"615 639 OFFCURVE",
"558 699 OFFCURVE",
"426 699 CURVE SMOOTH",
"178 699 LINE",
"30 0 LINE"
);
},
{
closed = 1;
nodes = (
"201 675 LINE",
"425 675 LINE SMOOTH",
"532 675 OFFCURVE",
"589 638 OFFCURVE",
"564 518 CURVE SMOOTH",
"542 417 OFFCURVE",
"465 364 OFFCURVE",
"358 364 CURVE SMOOTH",
"135 364 LINE"
);
}
);
width = 591;
}
);
note = R;
rightKerningGroup = R;
unicode = 0052;
},
{
glyphname = Racute;
lastChange = "2015-11-29 23:51:24 +0000";
layers = (
{
layerId = "C023BAC7-6FF9-47E4-9D72-1131A8F8A065";
name = "Light Italic";
paths = (
{
closed = 1;
nodes = (
"58 0 LINE",
"130 340 LINE",
"329 340 LINE",
"452 0 LINE",
"481 0 LINE",
"358 340 LINE",
"496 341 OFFCURVE",
"569 421 OFFCURVE",
"590 518 CURVE SMOOTH",
"615 639 OFFCURVE",
"558 699 OFFCURVE",
"426 699 CURVE SMOOTH",
"178 699 LINE",
"30 0 LINE"
);
},
{
closed = 1;
nodes = (
"201 675 LINE",
"425 675 LINE SMOOTH",
"532 675 OFFCURVE",
"589 638 OFFCURVE",
"564 518 CURVE SMOOTH",
"542 417 OFFCURVE",
"465 364 OFFCURVE",
"358 364 CURVE SMOOTH",
"135 364 LINE"
);
},
{
closed = 1;
nodes = (
"369 780 LINE",
"482 947 LINE",
"454 947 LINE",
"347 780 LINE"
);
}
);
width = 591;
}
);
note = Racute;
rightKerningGroup = R;
unicode = 0154;
},
{
glyphname = Rcaron;
lastChange = "2015-11-29 23:51:23 +0000";
layers = (
{
layerId = "C023BAC7-6FF9-47E4-9D72-1131A8F8A065";
name = "Light Italic";
paths = (
{
closed = 1;
nodes = (
"58 0 LINE",
"130 340 LINE",
"329 340 LINE",
"452 0 LINE",
"481 0 LINE",
"358 340 LINE",
"496 341 OFFCURVE",
"569 421 OFFCURVE",
"590 518 CURVE SMOOTH",
"615 639 OFFCURVE",
"558 699 OFFCURVE",
"426 699 CURVE SMOOTH",
"178 699 LINE",
"30 0 LINE"
);
},
{
closed = 1;
nodes = (
"201 675 LINE",
"425 675 LINE SMOOTH",
"532 675 OFFCURVE",
"589 638 OFFCURVE",
"564 518 CURVE SMOOTH",
"542 417 OFFCURVE",
"465 364 OFFCURVE",
"358 364 CURVE SMOOTH",
"135 364 LINE"
);
},
{
closed = 1;
nodes = (
"406 784 LINE",
"566 935 LINE",
"533 935 LINE",
"397 806 LINE",
"317 935 LINE",
"288 935 LINE",
"384 784 LINE"
);
}
);
width = 591;
}
);
note = Rcaron;
rightKerningGroup = R;
unicode = 0158;
},
{
glyphname = Rcommaaccent;
lastChange = "2015-11-29 23:51:22 +0000";
layers = (
{
layerId = "C023BAC7-6FF9-47E4-9D72-1131A8F8A065";
name = "Light Italic";
paths = (
{
closed = 1;
nodes = (
"58 0 LINE",
"130 340 LINE",
"329 340 LINE",
"452 0 LINE",
"481 0 LINE",
"358 340 LINE",
"496 341 OFFCURVE",
"569 421 OFFCURVE",
"590 518 CURVE SMOOTH",
"615 639 OFFCURVE",
"558 699 OFFCURVE",
"426 699 CURVE SMOOTH",
"178 699 LINE",
"30 0 LINE"
);
},
{
closed = 1;
nodes = (
"104 -259 LINE",
"230 -70 LINE",
"199 -70 LINE",
"79 -259 LINE"
);
},
{
closed = 1;
nodes = (
"201 675 LINE",
"425 675 LINE SMOOTH",
"532 675 OFFCURVE",
"589 638 OFFCURVE",
"564 518 CURVE SMOOTH",
"542 417 OFFCURVE",
"465 364 OFFCURVE",
"358 364 CURVE SMOOTH",
"135 364 LINE"
);
}
);
width = 591;
}
);
note = Rcommaaccent;
rightKerningGroup = R;
unicode = 0156;
},
{
glyphname = Rdotbelow;
lastChange = "2015-11-29 23:51:21 +0000";
layers = (
{
layerId = "C023BAC7-6FF9-47E4-9D72-1131A8F8A065";
name = "Light Italic";
paths = (
{
closed = 1;
nodes = (
"58 0 LINE",
"130 340 LINE",
"329 340 LINE",
"452 0 LINE",
"481 0 LINE",
"358 340 LINE",
"496 341 OFFCURVE",
"569 421 OFFCURVE",
"590 518 CURVE SMOOTH",
"615 639 OFFCURVE",
"558 699 OFFCURVE",
"426 699 CURVE SMOOTH",
"178 699 LINE",
"30 0 LINE"
);
},
{
closed = 1;
nodes = (
"228 -121 OFFCURVE",
"243 -108 OFFCURVE",
"246 -93 CURVE SMOOTH",
"249 -78 OFFCURVE",
"239 -65 OFFCURVE",
"225 -65 CURVE SMOOTH",
"210 -65 OFFCURVE",
"194 -78 OFFCURVE",
"191 -93 CURVE SMOOTH",
"188 -108 OFFCURVE",
"198 -121 OFFCURVE",
"213 -121 CURVE SMOOTH"
);
},
{
closed = 1;
nodes = (
"201 675 LINE",
"425 675 LINE SMOOTH",
"532 675 OFFCURVE",
"589 638 OFFCURVE",
"564 518 CURVE SMOOTH",
"542 417 OFFCURVE",
"465 364 OFFCURVE",
"358 364 CURVE SMOOTH",
"135 364 LINE"
);
}
);
width = 591;
}
);
note = Rdotbelow;
rightKerningGroup = R;
unicode = 1E5A;
},
{
glyphname = Rdotbelowmacron;
lastChange = "2015-11-29 23:51:21 +0000";
layers = (
{
layerId = "C023BAC7-6FF9-47E4-9D72-1131A8F8A065";
name = "Light Italic";
paths = (
{
closed = 1;
nodes = (
"58 0 LINE",
"130 340 LINE",
"329 340 LINE",
"452 0 LINE",
"481 0 LINE",
"358 340 LINE",
"496 341 OFFCURVE",
"569 421 OFFCURVE",
"590 518 CURVE SMOOTH",
"615 639 OFFCURVE",
"558 699 OFFCURVE",
"426 699 CURVE SMOOTH",
"178 699 LINE",
"30 0 LINE"
);
},
{
closed = 1;
nodes = (
"204 -121 OFFCURVE",
"219 -108 OFFCURVE",
"222 -93 CURVE SMOOTH",
"225 -78 OFFCURVE",
"215 -65 OFFCURVE",
"201 -65 CURVE SMOOTH",
"186 -65 OFFCURVE",
"170 -78 OFFCURVE",
"167 -93 CURVE SMOOTH",
"164 -108 OFFCURVE",
"174 -121 OFFCURVE",
"189 -121 CURVE SMOOTH"
);
},
{
closed = 1;
nodes = (
"201 675 LINE",
"425 675 LINE SMOOTH",
"532 675 OFFCURVE",
"589 638 OFFCURVE",
"564 518 CURVE SMOOTH",
"542 417 OFFCURVE",
"465 364 OFFCURVE",
"358 364 CURVE SMOOTH",
"135 364 LINE"
);
},
{
closed = 1;
nodes = (
"527 813 LINE",
"533 837 LINE",
"255 837 LINE",
"249 813 LINE"
);
}
);
width = 591;
}
);
note = Rdotbelowmacron;
rightKerningGroup = R;
unicode = 1E5C;
},
{
glyphname = Rlinebelow;
lastChange = "2015-11-29 23:51:21 +0000";
layers = (
{
layerId = "C023BAC7-6FF9-47E4-9D72-1131A8F8A065";
name = "Light Italic";
paths = (
{
closed = 1;
nodes = (
"58 0 LINE",
"130 340 LINE",
"329 340 LINE",
"452 0 LINE",
"481 0 LINE",
"358 340 LINE",
"496 341 OFFCURVE",
"569 421 OFFCURVE",
"590 518 CURVE SMOOTH",
"615 639 OFFCURVE",
"558 699 OFFCURVE",
"426 699 CURVE SMOOTH",
"178 699 LINE",
"30 0 LINE"
);
},
{
closed = 1;
nodes = (
"337 -110 LINE",
"342 -86 LINE",
"65 -86 LINE",
"60 -110 LINE"
);
},
{
closed = 1;
nodes = (
"201 675 LINE",
"425 675 LINE SMOOTH",
"532 675 OFFCURVE",
"589 638 OFFCURVE",
"564 518 CURVE SMOOTH",
"542 417 OFFCURVE",
"465 364 OFFCURVE",
"358 364 CURVE SMOOTH",
"135 364 LINE"
);
}
);
width = 591;
}
);
note = Rlinebelow;
rightKerningGroup = R;
unicode = 1E5E;
},
{
glyphname = S;
lastChange = "2015-11-29 23:51:21 +0000";
layers = (
{
layerId = "C023BAC7-6FF9-47E4-9D72-1131A8F8A065";
name = "Light Italic";
paths = (
{
closed = 1;
nodes = (
"357 -15 OFFCURVE",
"444 49 OFFCURVE",
"468 161 CURVE SMOOTH",
"495 287 OFFCURVE",
"418 319 OFFCURVE",
"305 365 CURVE SMOOTH",
"177 417 OFFCURVE",
"142 461 OFFCURVE",
"161 547 CURVE SMOOTH",
"178 629 OFFCURVE",
"257 690 OFFCURVE",
"376 690 CURVE SMOOTH",
"443 690 OFFCURVE",
"494 679 OFFCURVE",
"544 657 CURVE",
"549 682 LINE",
"500 704 OFFCURVE",
"449 714 OFFCURVE",
"381 714 CURVE SMOOTH",
"249 714 OFFCURVE",
"156 649 OFFCURVE",
"135 547 CURVE SMOOTH",
"114 448 OFFCURVE",
"168 395 OFFCURVE",
"281 348 CURVE SMOOTH",
"421 290 OFFCURVE",
"464 264 OFFCURVE",
"442 161 CURVE SMOOTH",
"421 63 OFFCURVE",
"344 9 OFFCURVE",
"202 9 CURVE SMOOTH",
"134 9 OFFCURVE",
"73 19 OFFCURVE",
"18 42 CURVE",
"13 17 LINE",
"54 -2 OFFCURVE",
"124 -15 OFFCURVE",
"197 -15 CURVE SMOOTH"
);
}
);
width = 544;
}
);
leftKerningGroup = S;
note = S;
rightKerningGroup = S;
unicode = 0053;
},
{
glyphname = Sacute;
lastChange = "2015-11-29 23:51:23 +0000";
layers = (
{
layerId = "C023BAC7-6FF9-47E4-9D72-1131A8F8A065";
name = "Light Italic";
paths = (
{
closed = 1;
nodes = (
"357 -15 OFFCURVE",
"444 49 OFFCURVE",
"468 161 CURVE SMOOTH",
"495 287 OFFCURVE",
"418 319 OFFCURVE",
"305 365 CURVE SMOOTH",
"177 417 OFFCURVE",
"142 461 OFFCURVE",
"161 547 CURVE SMOOTH",
"178 629 OFFCURVE",
"257 690 OFFCURVE",
"376 690 CURVE SMOOTH",
"443 690 OFFCURVE",
"494 679 OFFCURVE",
"544 657 CURVE",
"549 682 LINE",
"500 704 OFFCURVE",
"449 714 OFFCURVE",
"381 714 CURVE SMOOTH",
"249 714 OFFCURVE",
"156 649 OFFCURVE",
"135 547 CURVE SMOOTH",
"114 448 OFFCURVE",
"168 395 OFFCURVE",
"281 348 CURVE SMOOTH",
"421 290 OFFCURVE",
"464 264 OFFCURVE",
"442 161 CURVE SMOOTH",
"421 63 OFFCURVE",
"344 9 OFFCURVE",
"202 9 CURVE SMOOTH",
"134 9 OFFCURVE",
"73 19 OFFCURVE",
"18 42 CURVE",
"13 17 LINE",
"54 -2 OFFCURVE",
"124 -15 OFFCURVE",
"197 -15 CURVE SMOOTH"
);
},
{
closed = 1;
nodes = (
"404 784 LINE",
"517 951 LINE",
"489 951 LINE",
"382 784 LINE"
);
}
);
width = 544;
}
);
leftKerningGroup = S;
note = Sacute;
rightKerningGroup = S;
unicode = 015A;
},
{
glyphname = Scaron;
lastChange = "2015-11-29 23:51:23 +0000";
layers = (
{
layerId = "C023BAC7-6FF9-47E4-9D72-1131A8F8A065";
name = "Light Italic";
paths = (
{
closed = 1;
nodes = (
"357 -15 OFFCURVE",
"444 49 OFFCURVE",
"468 161 CURVE SMOOTH",
"495 287 OFFCURVE",
"418 319 OFFCURVE",
"305 365 CURVE SMOOTH",
"177 417 OFFCURVE",
"142 461 OFFCURVE",
"161 547 CURVE SMOOTH",
"178 629 OFFCURVE",
"257 690 OFFCURVE",
"376 690 CURVE SMOOTH",
"443 690 OFFCURVE",
"494 679 OFFCURVE",
"544 657 CURVE",
"549 682 LINE",
"500 704 OFFCURVE",
"449 714 OFFCURVE",
"381 714 CURVE SMOOTH",
"249 714 OFFCURVE",
"156 649 OFFCURVE",
"135 547 CURVE SMOOTH",
"114 448 OFFCURVE",
"168 395 OFFCURVE",
"281 348 CURVE SMOOTH",
"421 290 OFFCURVE",
"464 264 OFFCURVE",
"442 161 CURVE SMOOTH",
"421 63 OFFCURVE",
"344 9 OFFCURVE",
"202 9 CURVE SMOOTH",
"134 9 OFFCURVE",
"73 19 OFFCURVE",
"18 42 CURVE",
"13 17 LINE",
"54 -2 OFFCURVE",
"124 -15 OFFCURVE",
"197 -15 CURVE SMOOTH"
);
},
{
closed = 1;
nodes = (
"430 784 LINE",
"590 935 LINE",
"557 935 LINE",
"421 806 LINE",
"341 935 LINE",
"312 935 LINE",
"408 784 LINE"
);
}
);
width = 544;
}
);
leftKerningGroup = S;
note = Scaron;
rightKerningGroup = S;
unicode = 0160;
},
{
glyphname = Scedilla;
lastChange = "2015-11-29 23:51:24 +0000";
layers = (
{
layerId = "C023BAC7-6FF9-47E4-9D72-1131A8F8A065";
name = "Light Italic";
paths = (
{
closed = 1;
nodes = (
"226 -248 OFFCURVE",
"266 -212 OFFCURVE",
"277 -162 CURVE SMOOTH",
"287 -113 OFFCURVE",
"265 -77 OFFCURVE",
"200 -74 CURVE",
"236 -13 LINE",
"371 -3 OFFCURVE",
"446 58 OFFCURVE",
"468 161 CURVE SMOOTH",
"495 287 OFFCURVE",
"418 319 OFFCURVE",
"305 365 CURVE SMOOTH",
"177 417 OFFCURVE",
"142 461 OFFCURVE",
"161 547 CURVE SMOOTH",
"178 629 OFFCURVE",
"257 690 OFFCURVE",
"376 690 CURVE SMOOTH",
"443 690 OFFCURVE",
"494 679 OFFCURVE",
"544 657 CURVE",
"549 682 LINE",
"500 704 OFFCURVE",
"449 714 OFFCURVE",
"381 714 CURVE SMOOTH",
"249 714 OFFCURVE",
"156 649 OFFCURVE",
"135 547 CURVE SMOOTH",
"114 448 OFFCURVE",
"168 395 OFFCURVE",
"281 348 CURVE SMOOTH",
"421 290 OFFCURVE",
"464 264 OFFCURVE",
"442 161 CURVE SMOOTH",
"421 63 OFFCURVE",
"344 9 OFFCURVE",
"202 9 CURVE SMOOTH",
"134 9 OFFCURVE",
"73 19 OFFCURVE",
"18 42 CURVE",
"13 17 LINE",
"54 -2 OFFCURVE",
"124 -15 OFFCURVE",
"197 -15 CURVE SMOOTH",
"207 -15 LINE",
"161 -93 LINE",
"242 -93 OFFCURVE",
"261 -117 OFFCURVE",
"251 -161 CURVE SMOOTH",
"242 -205 OFFCURVE",
"210 -224 OFFCURVE",
"162 -224 CURVE SMOOTH",
"144 -224 OFFCURVE",
"120 -221 OFFCURVE",
"109 -216 CURVE",
"103 -240 LINE",
"114 -244 OFFCURVE",
"137 -248 OFFCURVE",
"157 -248 CURVE SMOOTH"
);
}
);
width = 544;
}
);
leftKerningGroup = S;
note = Scedilla;
rightKerningGroup = S;
unicode = 015E;
},
{
glyphname = Scircumflex;
lastChange = "2015-11-29 23:51:20 +0000";
layers = (
{
layerId = "C023BAC7-6FF9-47E4-9D72-1131A8F8A065";
name = "Light Italic";
paths = (
{
closed = 1;
nodes = (
"357 -15 OFFCURVE",
"444 49 OFFCURVE",
"468 161 CURVE SMOOTH",
"495 287 OFFCURVE",
"418 319 OFFCURVE",
"305 365 CURVE SMOOTH",
"177 417 OFFCURVE",
"142 461 OFFCURVE",
"161 547 CURVE SMOOTH",
"178 629 OFFCURVE",
"257 690 OFFCURVE",
"376 690 CURVE SMOOTH",
"443 690 OFFCURVE",
"494 679 OFFCURVE",
"544 657 CURVE",
"549 682 LINE",
"500 704 OFFCURVE",
"449 714 OFFCURVE",
"381 714 CURVE SMOOTH",
"249 714 OFFCURVE",
"156 649 OFFCURVE",
"135 547 CURVE SMOOTH",
"114 448 OFFCURVE",
"168 395 OFFCURVE",
"281 348 CURVE SMOOTH",
"421 290 OFFCURVE",
"464 264 OFFCURVE",
"442 161 CURVE SMOOTH",
"421 63 OFFCURVE",
"344 9 OFFCURVE",
"202 9 CURVE SMOOTH",
"134 9 OFFCURVE",
"73 19 OFFCURVE",
"18 42 CURVE",
"13 17 LINE",
"54 -2 OFFCURVE",
"124 -15 OFFCURVE",
"197 -15 CURVE SMOOTH"
);
},
{
closed = 1;
nodes = (
"289 784 LINE",
"424 913 LINE",
"505 784 LINE",
"534 784 LINE",
"438 935 LINE",
"416 935 LINE",
"257 784 LINE"
);
}
);
width = 544;
}
);
leftKerningGroup = S;
note = Scircumflex;
rightKerningGroup = S;
unicode = 015C;
},
{
glyphname = Scommaaccent;
lastChange = "2015-11-29 23:51:21 +0000";
layers = (
{
layerId = "C023BAC7-6FF9-47E4-9D72-1131A8F8A065";
name = "Light Italic";
paths = (
{
closed = 1;
nodes = (
"357 -15 OFFCURVE",
"444 49 OFFCURVE",
"468 161 CURVE SMOOTH",
"495 287 OFFCURVE",
"418 319 OFFCURVE",
"305 365 CURVE SMOOTH",
"177 417 OFFCURVE",
"142 461 OFFCURVE",
"161 547 CURVE SMOOTH",
"178 629 OFFCURVE",
"257 690 OFFCURVE",
"376 690 CURVE SMOOTH",
"443 690 OFFCURVE",
"494 679 OFFCURVE",
"544 657 CURVE",
"549 682 LINE",
"500 704 OFFCURVE",
"449 714 OFFCURVE",
"381 714 CURVE SMOOTH",
"249 714 OFFCURVE",
"156 649 OFFCURVE",
"135 547 CURVE SMOOTH",
"114 448 OFFCURVE",
"168 395 OFFCURVE",
"281 348 CURVE SMOOTH",
"421 290 OFFCURVE",
"464 264 OFFCURVE",
"442 161 CURVE SMOOTH",
"421 63 OFFCURVE",
"344 9 OFFCURVE",
"202 9 CURVE SMOOTH",
"134 9 OFFCURVE",
"73 19 OFFCURVE",
"18 42 CURVE",
"13 17 LINE",
"54 -2 OFFCURVE",
"124 -15 OFFCURVE",
"197 -15 CURVE SMOOTH"
);
},
{
closed = 1;
nodes = (
"118 -259 LINE",
"243 -70 LINE",
"212 -70 LINE",
"93 -259 LINE"
);
}
);
width = 544;
}
);
leftKerningGroup = S;
note = Scommaaccent;
rightKerningGroup = S;
unicode = 0218;
},
{
glyphname = Sdotaccent;
lastChange = "2015-11-29 23:51:24 +0000";
layers = (
{
layerId = "C023BAC7-6FF9-47E4-9D72-1131A8F8A065";
name = "Light Italic";
paths = (
{
closed = 1;
nodes = (
"357 -15 OFFCURVE",
"444 49 OFFCURVE",
"468 161 CURVE SMOOTH",
"495 287 OFFCURVE",
"418 319 OFFCURVE",
"305 365 CURVE SMOOTH",
"177 417 OFFCURVE",
"142 461 OFFCURVE",
"161 547 CURVE SMOOTH",
"178 629 OFFCURVE",
"257 690 OFFCURVE",
"376 690 CURVE SMOOTH",
"443 690 OFFCURVE",
"494 679 OFFCURVE",
"544 657 CURVE",
"549 682 LINE",
"500 704 OFFCURVE",
"449 714 OFFCURVE",
"381 714 CURVE SMOOTH",
"249 714 OFFCURVE",
"156 649 OFFCURVE",
"135 547 CURVE SMOOTH",
"114 448 OFFCURVE",
"168 395 OFFCURVE",
"281 348 CURVE SMOOTH",
"421 290 OFFCURVE",
"464 264 OFFCURVE",
"442 161 CURVE SMOOTH",
"421 63 OFFCURVE",
"344 9 OFFCURVE",
"202 9 CURVE SMOOTH",
"134 9 OFFCURVE",
"73 19 OFFCURVE",
"18 42 CURVE",
"13 17 LINE",
"54 -2 OFFCURVE",
"124 -15 OFFCURVE",
"197 -15 CURVE SMOOTH"
);
},
{
closed = 1;
nodes = (
"426 790 OFFCURVE",
"441 803 OFFCURVE",
"445 818 CURVE",
"448 833 OFFCURVE",
"437 846 OFFCURVE",
"422 846 CURVE SMOOTH",
"407 846 OFFCURVE",
"392 833 OFFCURVE",
"389 818 CURVE",
"385 803 OFFCURVE",
"396 790 OFFCURVE",
"411 790 CURVE SMOOTH"
);
}
);
width = 544;
}
);
leftKerningGroup = S;
note = Sdotaccent;
rightKerningGroup = S;
unicode = 1E60;
},
{
glyphname = Sdotbelow;
lastChange = "2015-11-29 23:51:23 +0000";
layers = (
{
layerId = "C023BAC7-6FF9-47E4-9D72-1131A8F8A065";
name = "Light Italic";
paths = (
{
closed = 1;
nodes = (
"357 -15 OFFCURVE",
"444 49 OFFCURVE",
"468 161 CURVE SMOOTH",
"495 287 OFFCURVE",
"418 319 OFFCURVE",
"305 365 CURVE SMOOTH",
"177 417 OFFCURVE",
"142 461 OFFCURVE",
"161 547 CURVE SMOOTH",
"178 629 OFFCURVE",
"257 690 OFFCURVE",
"376 690 CURVE SMOOTH",
"443 690 OFFCURVE",
"494 679 OFFCURVE",
"544 657 CURVE",
"549 682 LINE",
"500 704 OFFCURVE",
"449 714 OFFCURVE",
"381 714 CURVE SMOOTH",
"249 714 OFFCURVE",
"156 649 OFFCURVE",
"135 547 CURVE SMOOTH",
"114 448 OFFCURVE",
"168 395 OFFCURVE",
"281 348 CURVE SMOOTH",
"421 290 OFFCURVE",
"464 264 OFFCURVE",
"442 161 CURVE SMOOTH",
"421 63 OFFCURVE",
"344 9 OFFCURVE",
"202 9 CURVE SMOOTH",
"134 9 OFFCURVE",
"73 19 OFFCURVE",
"18 42 CURVE",
"13 17 LINE",
"54 -2 OFFCURVE",
"124 -15 OFFCURVE",
"197 -15 CURVE SMOOTH"
);
},
{
closed = 1;
nodes = (
"212 -121 OFFCURVE",
"227 -108 OFFCURVE",
"230 -93 CURVE SMOOTH",
"233 -78 OFFCURVE",
"223 -65 OFFCURVE",
"209 -65 CURVE SMOOTH",
"194 -65 OFFCURVE",
"178 -78 OFFCURVE",
"175 -93 CURVE SMOOTH",
"172 -108 OFFCURVE",
"182 -121 OFFCURVE",
"197 -121 CURVE SMOOTH"
);
}
);
width = 544;
}
);
leftKerningGroup = S;
note = Sdotbelow;
rightKerningGroup = S;
unicode = 1E62;
},
{
glyphname = Germandbls;
lastChange = "2015-11-29 23:51:24 +0000";
layers = (
{
layerId = "C023BAC7-6FF9-47E4-9D72-1131A8F8A065";
name = "Light Italic";
paths = (
{
closed = 1;
nodes = (
"418 -15 OFFCURVE",
"495 74 OFFCURVE",
"520 191 CURVE SMOOTH",
"547 319 OFFCURVE",
"471 387 OFFCURVE",
"327 387 CURVE",
"518 538 LINE",
"538 631 OFFCURVE",
"491 714 OFFCURVE",
"367 714 CURVE SMOOTH",
"260 714 OFFCURVE",
"166 666 OFFCURVE",
"131 502 CURVE SMOOTH",
"25 0 LINE",
"53 0 LINE",
"160 505 LINE SMOOTH",
"191 651 OFFCURVE",
"279 691 OFFCURVE",
"362 691 CURVE SMOOTH",
"461 691 OFFCURVE",
"513 637 OFFCURVE",
"494 547 CURVE",
"293 388 LINE",
"288 364 LINE",
"324 364 LINE SMOOTH",
"438 364 OFFCURVE",
"522 324 OFFCURVE",
"494 191 CURVE SMOOTH",
"469 72 OFFCURVE",
"386 8 OFFCURVE",
"272 8 CURVE SMOOTH",
"213 8 OFFCURVE",
"177 13 OFFCURVE",
"138 30 CURVE",
"133 6 LINE",
"166 -9 OFFCURVE",
"212 -15 OFFCURVE",
"267 -15 CURVE SMOOTH"
);
}
);
width = 590;
}
);
note = uni1E9E;
unicode = 1E9E;
},
{
glyphname = Schwa;
lastChange = "2015-11-29 23:51:22 +0000";
layers = (
{
layerId = "C023BAC7-6FF9-47E4-9D72-1131A8F8A065";
name = "Light Italic";
paths = (
{
closed = 1;
nodes = (
"585 -15 OFFCURVE",
"731 123 OFFCURVE",
"780 349 CURVE SMOOTH",
"830 580 OFFCURVE",
"720 714 OFFCURVE",
"475 714 CURVE SMOOTH",
"390 714 OFFCURVE",
"281 694 OFFCURVE",
"226 673 CURVE",
"220 649 LINE",
"287 674 OFFCURVE",
"385 691 OFFCURVE",
"476 691 CURVE SMOOTH",
"704 691 OFFCURVE",
"801 571 OFFCURVE",
"755 354 CURVE",
"85 354 LINE",
"79 328 LINE SMOOTH",
"38 134 OFFCURVE",
"123 -15 OFFCURVE",
"355 -15 CURVE SMOOTH"
);
},
{
closed = 1;
nodes = (
"129 8 OFFCURVE",
"68 152 OFFCURVE",
"106 331 CURVE",
"750 331 LINE",
"712 153 OFFCURVE",
"574 8 OFFCURVE",
"360 8 CURVE SMOOTH"
);
}
);
width = 816;
}
);
note = uni018F;
unicode = 018F;
},
{
glyphname = T;
lastChange = "2015-11-29 23:51:23 +0000";
layers = (
{
layerId = "C023BAC7-6FF9-47E4-9D72-1131A8F8A065";
name = "Light Italic";
paths = (
{
closed = 1;
nodes = (
"256 0 LINE",
"399 675 LINE",
"637 675 LINE",
"642 699 LINE",
"138 699 LINE",
"133 675 LINE",
"371 675 LINE",
"228 0 LINE"
);
}
);
width = 584;
}
);
leftKerningGroup = T;
note = T;
rightKerningGroup = T;
unicode = 0054;
},
{
glyphname = Tbar;
lastChange = "2015-11-29 23:51:20 +0000";
layers = (
{
layerId = "C023BAC7-6FF9-47E4-9D72-1131A8F8A065";
name = "Light Italic";
paths = (
{
closed = 1;
nodes = (
"256 0 LINE",
"326 331 LINE",
"467 331 LINE",
"472 355 LINE",
"331 355 LINE",
"399 675 LINE",
"637 675 LINE",
"642 699 LINE",
"138 699 LINE",
"133 675 LINE",
"371 675 LINE",
"303 355 LINE",
"160 355 LINE",
"155 331 LINE",
"298 331 LINE",
"228 0 LINE"
);
}
);
width = 584;
}
);
leftKerningGroup = T;
note = Tbar;
rightKerningGroup = T;
unicode = 0166;
},
{
glyphname = Tcaron;
lastChange = "2015-11-29 23:51:20 +0000";
layers = (
{
layerId = "C023BAC7-6FF9-47E4-9D72-1131A8F8A065";
name = "Light Italic";
paths = (
{
closed = 1;
nodes = (
"256 0 LINE",
"399 675 LINE",
"637 675 LINE",
"642 699 LINE",
"138 699 LINE",
"133 675 LINE",
"371 675 LINE",
"228 0 LINE"
);
},
{
closed = 1;
nodes = (
"419 784 LINE",
"579 935 LINE",
"546 935 LINE",
"410 806 LINE",
"330 935 LINE",
"301 935 LINE",
"397 784 LINE"
);
}
);
width = 584;
}
);
leftKerningGroup = T;
note = Tcaron;
rightKerningGroup = T;
unicode = 0164;
},
{
glyphname = Tcedilla;
lastChange = "2015-11-29 23:51:23 +0000";
layers = (
{
layerId = "C023BAC7-6FF9-47E4-9D72-1131A8F8A065";
name = "Light Italic";
paths = (
{
closed = 1;
nodes = (
"238 -248 OFFCURVE",
"278 -212 OFFCURVE",
"289 -162 CURVE SMOOTH",
"299 -113 OFFCURVE",
"277 -77 OFFCURVE",
"212 -74 CURVE",
"256 0 LINE",
"399 675 LINE",
"637 675 LINE",
"642 699 LINE",
"138 699 LINE",
"133 675 LINE",
"371 675 LINE",
"228 0 LINE",
"173 -93 LINE",
"254 -93 OFFCURVE",
"273 -117 OFFCURVE",
"263 -161 CURVE SMOOTH",
"254 -205 OFFCURVE",
"222 -224 OFFCURVE",
"174 -224 CURVE SMOOTH",
"156 -224 OFFCURVE",
"132 -221 OFFCURVE",
"121 -216 CURVE",
"115 -240 LINE",
"126 -244 OFFCURVE",
"149 -248 OFFCURVE",
"169 -248 CURVE SMOOTH"
);
}
);
width = 584;
}
);
leftKerningGroup = T;
note = Tcedilla;
rightKerningGroup = T;
unicode = 0162;
},
{
glyphname = Tcommaaccent;
lastChange = "2015-11-29 23:51:22 +0000";
layers = (
{
layerId = "C023BAC7-6FF9-47E4-9D72-1131A8F8A065";
name = "Light Italic";
paths = (
{
closed = 1;
nodes = (
"256 0 LINE",
"399 675 LINE",
"637 675 LINE",
"642 699 LINE",
"138 699 LINE",
"133 675 LINE",
"371 675 LINE",
"228 0 LINE"
);
},
{
closed = 1;
nodes = (
"118 -259 LINE",
"244 -70 LINE",
"213 -70 LINE",
"93 -259 LINE"
);
}
);
width = 584;
}
);
leftKerningGroup = T;
note = Tcommaaccent;
rightKerningGroup = T;
unicode = 021A;
},
{
glyphname = Tdotbelow;
lastChange = "2015-11-29 23:51:22 +0000";
layers = (
{
layerId = "C023BAC7-6FF9-47E4-9D72-1131A8F8A065";
name = "Light Italic";
paths = (
{
closed = 1;
nodes = (
"256 0 LINE",
"399 675 LINE",
"637 675 LINE",
"642 699 LINE",
"138 699 LINE",
"133 675 LINE",
"371 675 LINE",
"228 0 LINE"
);
},
{
closed = 1;
nodes = (
"232 -121 OFFCURVE",
"247 -108 OFFCURVE",
"250 -93 CURVE SMOOTH",
"253 -78 OFFCURVE",
"243 -65 OFFCURVE",
"229 -65 CURVE SMOOTH",
"214 -65 OFFCURVE",
"198 -78 OFFCURVE",
"195 -93 CURVE SMOOTH",
"192 -108 OFFCURVE",
"202 -121 OFFCURVE",
"217 -121 CURVE SMOOTH"
);
}
);
width = 584;
}
);
leftKerningGroup = T;
note = Tdotbelow;
rightKerningGroup = T;
unicode = 1E6C;
},
{
glyphname = Tlinebelow;
lastChange = "2015-11-29 23:51:23 +0000";
layers = (
{
layerId = "C023BAC7-6FF9-47E4-9D72-1131A8F8A065";
name = "Light Italic";
paths = (
{
closed = 1;
nodes = (
"256 0 LINE",
"399 675 LINE",
"637 675 LINE",
"642 699 LINE",
"138 699 LINE",
"133 675 LINE",
"371 675 LINE",
"228 0 LINE"
);
},
{
closed = 1;
nodes = (
"357 -110 LINE",
"362 -86 LINE",
"85 -86 LINE",
"80 -110 LINE"
);
}
);
width = 584;
}
);
leftKerningGroup = T;
note = Tlinebelow;
rightKerningGroup = T;
unicode = 1E6E;
},
{
glyphname = U;
lastChange = "2015-11-29 23:51:23 +0000";
layers = (
{
layerId = "C023BAC7-6FF9-47E4-9D72-1131A8F8A065";
name = "Light Italic";
paths = (
{
closed = 1;
nodes = (
"462 -15 OFFCURVE",
"561 79 OFFCURVE",
"593 229 CURVE SMOOTH",
"693 699 LINE",
"665 699 LINE",
"563 219 LINE SMOOTH",
"533 79 OFFCURVE",
"418 9 OFFCURVE",
"286 9 CURVE SMOOTH",
"147 9 OFFCURVE",
"67 69 OFFCURVE",
"99 219 CURVE SMOOTH",
"201 699 LINE",
"173 699 LINE",
"73 229 LINE SMOOTH",
"40 74 OFFCURVE",
"109 -15 OFFCURVE",
"281 -15 CURVE SMOOTH"
);
}
);
width = 670;
}
);
leftKerningGroup = U;
note = U;
rightKerningGroup = U;
unicode = 0055;
},
{
glyphname = Uacute;
lastChange = "2015-11-29 23:51:24 +0000";
layers = (
{
layerId = "C023BAC7-6FF9-47E4-9D72-1131A8F8A065";
name = "Light Italic";
paths = (
{
closed = 1;
nodes = (
"462 -15 OFFCURVE",
"561 79 OFFCURVE",
"593 229 CURVE SMOOTH",
"693 699 LINE",
"665 699 LINE",
"563 219 LINE SMOOTH",
"533 79 OFFCURVE",
"418 9 OFFCURVE",
"286 9 CURVE SMOOTH",
"147 9 OFFCURVE",
"67 69 OFFCURVE",
"99 219 CURVE SMOOTH",
"201 699 LINE",
"173 699 LINE",
"73 229 LINE SMOOTH",
"40 74 OFFCURVE",
"109 -15 OFFCURVE",
"281 -15 CURVE SMOOTH"
);
},
{
closed = 1;
nodes = (
"457 792 LINE",
"570 959 LINE",
"542 959 LINE",
"435 792 LINE"
);
}
);
width = 670;
}
);
leftKerningGroup = U;
note = Uacute;
rightKerningGroup = U;
unicode = 00DA;
},
{
glyphname = Ubreve;
lastChange = "2015-11-29 23:51:22 +0000";
layers = (
{
layerId = "C023BAC7-6FF9-47E4-9D72-1131A8F8A065";
name = "Light Italic";
paths = (
{
closed = 1;
nodes = (
"462 -15 OFFCURVE",
"561 79 OFFCURVE",
"593 229 CURVE SMOOTH",
"693 699 LINE",
"665 699 LINE",
"563 219 LINE SMOOTH",
"533 79 OFFCURVE",
"418 9 OFFCURVE",
"286 9 CURVE SMOOTH",
"147 9 OFFCURVE",
"67 69 OFFCURVE",
"99 219 CURVE SMOOTH",
"201 699 LINE",
"173 699 LINE",
"73 229 LINE SMOOTH",
"40 74 OFFCURVE",
"109 -15 OFFCURVE",
"281 -15 CURVE SMOOTH"
);
},
{
closed = 1;
nodes = (
"515 758 OFFCURVE",
"573 806 OFFCURVE",
"586 866 CURVE",
"560 866 LINE",
"550 818 OFFCURVE",
"507 781 OFFCURVE",
"448 781 CURVE SMOOTH",
"390 781 OFFCURVE",
"362 818 OFFCURVE",
"372 866 CURVE",
"350 866 LINE",
"337 806 OFFCURVE",
"375 758 OFFCURVE",
"445 758 CURVE SMOOTH"
);
}
);
width = 670;
}
);
leftKerningGroup = U;
note = Ubreve;
rightKerningGroup = U;
unicode = 016C;
},
{
glyphname = Ucaron;
lastChange = "2015-11-29 23:51:23 +0000";
layers = (
{
layerId = "C023BAC7-6FF9-47E4-9D72-1131A8F8A065";
name = "Light Italic";
paths = (
{
closed = 1;
nodes = (
"462 -15 OFFCURVE",
"561 79 OFFCURVE",
"593 229 CURVE SMOOTH",
"693 699 LINE",
"665 699 LINE",
"563 219 LINE SMOOTH",
"533 79 OFFCURVE",
"418 9 OFFCURVE",
"286 9 CURVE SMOOTH",
"147 9 OFFCURVE",
"67 69 OFFCURVE",
"99 219 CURVE SMOOTH",
"201 699 LINE",
"173 699 LINE",
"73 229 LINE SMOOTH",
"40 74 OFFCURVE",
"109 -15 OFFCURVE",
"281 -15 CURVE SMOOTH"
);
},
{
closed = 1;
nodes = (
"462 784 LINE",
"622 935 LINE",
"589 935 LINE",
"453 806 LINE",
"373 935 LINE",
"344 935 LINE",
"440 784 LINE"
);
}
);
width = 670;
}
);
leftKerningGroup = U;
note = Ucaron;
rightKerningGroup = U;
unicode = 01D3;
},
{
glyphname = Ucircumflex;
lastChange = "2015-11-29 23:51:21 +0000";
layers = (
{
layerId = "C023BAC7-6FF9-47E4-9D72-1131A8F8A065";
name = "Light Italic";
paths = (
{
closed = 1;
nodes = (
"462 -15 OFFCURVE",
"561 79 OFFCURVE",
"593 229 CURVE SMOOTH",
"693 699 LINE",
"665 699 LINE",
"563 219 LINE SMOOTH",
"533 79 OFFCURVE",
"418 9 OFFCURVE",
"286 9 CURVE SMOOTH",
"147 9 OFFCURVE",
"67 69 OFFCURVE",
"99 219 CURVE SMOOTH",
"201 699 LINE",
"173 699 LINE",
"73 229 LINE SMOOTH",
"40 74 OFFCURVE",
"109 -15 OFFCURVE",
"281 -15 CURVE SMOOTH"
);
},
{
closed = 1;
nodes = (
"348 798 LINE",
"483 927 LINE",
"564 798 LINE",
"593 798 LINE",
"497 949 LINE",
"475 949 LINE",
"316 798 LINE"
);
}
);
width = 670;
}
);
leftKerningGroup = U;
note = Ucircumflex;
rightKerningGroup = U;
unicode = 00DB;
},
{
glyphname = Udieresis;
lastChange = "2015-11-29 23:51:22 +0000";
layers = (
{
layerId = "C023BAC7-6FF9-47E4-9D72-1131A8F8A065";
name = "Light Italic";
paths = (
{
closed = 1;
nodes = (
"462 -15 OFFCURVE",
"561 79 OFFCURVE",
"593 229 CURVE SMOOTH",
"693 699 LINE",
"665 699 LINE",
"563 219 LINE SMOOTH",
"533 79 OFFCURVE",
"418 9 OFFCURVE",
"286 9 CURVE SMOOTH",
"147 9 OFFCURVE",
"67 69 OFFCURVE",
"99 219 CURVE SMOOTH",
"201 699 LINE",
"173 699 LINE",
"73 229 LINE SMOOTH",
"40 74 OFFCURVE",
"109 -15 OFFCURVE",
"281 -15 CURVE SMOOTH"
);
},
{
closed = 1;
nodes = (
"371 802 OFFCURVE",
"386 815 OFFCURVE",
"390 830 CURVE",
"393 845 OFFCURVE",
"382 858 OFFCURVE",
"367 858 CURVE SMOOTH",
"352 858 OFFCURVE",
"337 845 OFFCURVE",
"334 830 CURVE",
"330 815 OFFCURVE",
"341 802 OFFCURVE",
"356 802 CURVE SMOOTH"
);
},
{
closed = 1;
nodes = (
"569 802 OFFCURVE",
"584 815 OFFCURVE",
"588 830 CURVE",
"591 845 OFFCURVE",
"580 858 OFFCURVE",
"565 858 CURVE SMOOTH",
"550 858 OFFCURVE",
"535 845 OFFCURVE",
"532 830 CURVE",
"528 815 OFFCURVE",
"539 802 OFFCURVE",
"554 802 CURVE SMOOTH"
);
}
);
width = 670;
}
);
leftKerningGroup = U;
note = Udieresis;
rightKerningGroup = U;
unicode = 00DC;
},
{
glyphname = Udieresisacute;
lastChange = "2015-11-29 23:51:22 +0000";
layers = (
{
layerId = "C023BAC7-6FF9-47E4-9D72-1131A8F8A065";
name = "Light Italic";
paths = (
{
closed = 1;
nodes = (
"462 -15 OFFCURVE",
"561 79 OFFCURVE",
"593 229 CURVE SMOOTH",
"693 699 LINE",
"665 699 LINE",
"563 219 LINE SMOOTH",
"533 79 OFFCURVE",
"418 9 OFFCURVE",
"286 9 CURVE SMOOTH",
"147 9 OFFCURVE",
"67 69 OFFCURVE",
"99 219 CURVE SMOOTH",
"201 699 LINE",
"173 699 LINE",
"73 229 LINE SMOOTH",
"40 74 OFFCURVE",
"109 -15 OFFCURVE",
"281 -15 CURVE SMOOTH"
);
},
{
closed = 1;
nodes = (
"372 784 OFFCURVE",
"387 797 OFFCURVE",
"391 812 CURVE",
"394 827 OFFCURVE",
"383 840 OFFCURVE",
"368 840 CURVE SMOOTH",
"353 840 OFFCURVE",
"338 827 OFFCURVE",
"335 812 CURVE",
"331 797 OFFCURVE",
"342 784 OFFCURVE",
"357 784 CURVE SMOOTH"
);
},
{
closed = 1;
nodes = (
"569 784 OFFCURVE",
"584 797 OFFCURVE",
"588 812 CURVE",
"591 827 OFFCURVE",
"580 840 OFFCURVE",
"565 840 CURVE SMOOTH",
"550 840 OFFCURVE",
"535 827 OFFCURVE",
"532 812 CURVE",
"528 797 OFFCURVE",
"539 784 OFFCURVE",
"554 784 CURVE SMOOTH"
);
},
{
closed = 1;
nodes = (
"469 831 LINE",
"562 963 LINE",
"534 963 LINE",
"447 831 LINE"
);
}
);
width = 670;
}
);
leftKerningGroup = U;
note = Udieresisacute;
rightKerningGroup = U;
unicode = 01D7;
},
{
glyphname = Udieresiscaron;
lastChange = "2015-11-29 23:51:22 +0000";
layers = (
{
layerId = "C023BAC7-6FF9-47E4-9D72-1131A8F8A065";
name = "Light Italic";
paths = (
{
closed = 1;
nodes = (
"462 -15 OFFCURVE",
"561 79 OFFCURVE",
"593 229 CURVE SMOOTH",
"693 699 LINE",
"665 699 LINE",
"563 219 LINE SMOOTH",
"533 79 OFFCURVE",
"418 9 OFFCURVE",
"286 9 CURVE SMOOTH",
"147 9 OFFCURVE",
"67 69 OFFCURVE",
"99 219 CURVE SMOOTH",
"201 699 LINE",
"173 699 LINE",
"73 229 LINE SMOOTH",
"40 74 OFFCURVE",
"109 -15 OFFCURVE",
"281 -15 CURVE SMOOTH"
);
},
{
closed = 1;
nodes = (
"370 784 OFFCURVE",
"385 797 OFFCURVE",
"389 812 CURVE",
"392 827 OFFCURVE",
"381 840 OFFCURVE",
"366 840 CURVE SMOOTH",
"351 840 OFFCURVE",
"336 827 OFFCURVE",
"333 812 CURVE",
"329 797 OFFCURVE",
"340 784 OFFCURVE",
"355 784 CURVE SMOOTH"
);
},
{
closed = 1;
nodes = (
"567 784 OFFCURVE",
"582 797 OFFCURVE",
"586 812 CURVE",
"589 827 OFFCURVE",
"578 840 OFFCURVE",
"563 840 CURVE SMOOTH",
"548 840 OFFCURVE",
"533 827 OFFCURVE",
"530 812 CURVE",
"526 797 OFFCURVE",
"537 784 OFFCURVE",
"552 784 CURVE SMOOTH"
);
},
{
closed = 1;
nodes = (
"475 831 LINE",
"611 963 LINE",
"580 963 LINE",
"468 853 LINE",
"403 963 LINE",
"372 963 LINE",
"453 831 LINE"
);
}
);
width = 670;
}
);
leftKerningGroup = U;
note = Udieresiscaron;
rightKerningGroup = U;
unicode = 01D9;
},
{
glyphname = Udieresisgrave;
lastChange = "2015-11-29 23:51:22 +0000";
layers = (
{
layerId = "C023BAC7-6FF9-47E4-9D72-1131A8F8A065";
name = "Light Italic";
paths = (
{
closed = 1;
nodes = (
"462 -15 OFFCURVE",
"561 79 OFFCURVE",
"593 229 CURVE SMOOTH",
"693 699 LINE",
"665 699 LINE",
"563 219 LINE SMOOTH",
"533 79 OFFCURVE",
"418 9 OFFCURVE",
"286 9 CURVE SMOOTH",
"147 9 OFFCURVE",
"67 69 OFFCURVE",
"99 219 CURVE SMOOTH",
"201 699 LINE",
"173 699 LINE",
"73 229 LINE SMOOTH",
"40 74 OFFCURVE",
"109 -15 OFFCURVE",
"281 -15 CURVE SMOOTH"
);
},
{
closed = 1;
nodes = (
"367 784 OFFCURVE",
"382 797 OFFCURVE",
"386 812 CURVE",
"389 827 OFFCURVE",
"378 840 OFFCURVE",
"363 840 CURVE SMOOTH",
"348 840 OFFCURVE",
"333 827 OFFCURVE",
"330 812 CURVE",
"326 797 OFFCURVE",
"337 784 OFFCURVE",
"352 784 CURVE SMOOTH"
);
},
{
closed = 1;
nodes = (
"480 831 LINE",
"448 963 LINE",
"420 963 LINE",
"458 831 LINE"
);
},
{
closed = 1;
nodes = (
"564 784 OFFCURVE",
"579 797 OFFCURVE",
"583 812 CURVE",
"586 827 OFFCURVE",
"575 840 OFFCURVE",
"560 840 CURVE SMOOTH",
"545 840 OFFCURVE",
"530 827 OFFCURVE",
"527 812 CURVE",
"523 797 OFFCURVE",
"534 784 OFFCURVE",
"549 784 CURVE SMOOTH"
);
}
);
width = 670;
}
);
leftKerningGroup = U;
note = Udieresisgrave;
rightKerningGroup = U;
unicode = 01DB;
},
{
glyphname = Udieresismacron;
lastChange = "2015-11-29 23:51:23 +0000";
layers = (
{
layerId = "C023BAC7-6FF9-47E4-9D72-1131A8F8A065";
name = "Light Italic";
paths = (
{
closed = 1;
nodes = (
"462 -15 OFFCURVE",
"561 79 OFFCURVE",
"593 229 CURVE SMOOTH",
"693 699 LINE",
"665 699 LINE",
"563 219 LINE SMOOTH",
"533 79 OFFCURVE",
"418 9 OFFCURVE",
"286 9 CURVE SMOOTH",
"147 9 OFFCURVE",
"67 69 OFFCURVE",
"99 219 CURVE SMOOTH",
"201 699 LINE",
"173 699 LINE",
"73 229 LINE SMOOTH",
"40 74 OFFCURVE",
"109 -15 OFFCURVE",
"281 -15 CURVE SMOOTH"
);
},
{
closed = 1;
nodes = (
"362 758 OFFCURVE",
"377 771 OFFCURVE",
"381 786 CURVE",
"384 801 OFFCURVE",
"373 814 OFFCURVE",
"358 814 CURVE SMOOTH",
"343 814 OFFCURVE",
"328 801 OFFCURVE",
"325 786 CURVE",
"321 771 OFFCURVE",
"332 758 OFFCURVE",
"347 758 CURVE SMOOTH"
);
},
{
closed = 1;
nodes = (
"560 758 OFFCURVE",
"575 771 OFFCURVE",
"579 786 CURVE",
"582 801 OFFCURVE",
"571 814 OFFCURVE",
"556 814 CURVE SMOOTH",
"541 814 OFFCURVE",
"526 801 OFFCURVE",
"523 786 CURVE",
"519 771 OFFCURVE",
"530 758 OFFCURVE",
"545 758 CURVE SMOOTH"
);
},
{
closed = 1;
nodes = (
"616 909 LINE",
"622 933 LINE",
"344 933 LINE",
"338 909 LINE"
);
}
);
width = 670;
}
);
leftKerningGroup = U;
note = Udieresismacron;
rightKerningGroup = U;
unicode = 01D5;
},
{
glyphname = Udotbelow;
lastChange = "2015-11-29 23:51:22 +0000";
layers = (
{
layerId = "C023BAC7-6FF9-47E4-9D72-1131A8F8A065";
name = "Light Italic";
paths = (
{
closed = 1;
nodes = (
"462 -15 OFFCURVE",
"561 79 OFFCURVE",
"593 229 CURVE SMOOTH",
"693 699 LINE",
"665 699 LINE",
"563 219 LINE SMOOTH",
"533 79 OFFCURVE",
"418 9 OFFCURVE",
"286 9 CURVE SMOOTH",
"147 9 OFFCURVE",
"67 69 OFFCURVE",
"99 219 CURVE SMOOTH",
"201 699 LINE",
"173 699 LINE",
"73 229 LINE SMOOTH",
"40 74 OFFCURVE",
"109 -15 OFFCURVE",
"281 -15 CURVE SMOOTH"
);
},
{
closed = 1;
nodes = (
"275 -121 OFFCURVE",
"290 -108 OFFCURVE",
"293 -93 CURVE SMOOTH",
"296 -78 OFFCURVE",
"286 -65 OFFCURVE",
"272 -65 CURVE SMOOTH",
"257 -65 OFFCURVE",
"241 -78 OFFCURVE",
"238 -93 CURVE SMOOTH",
"235 -108 OFFCURVE",
"245 -121 OFFCURVE",
"260 -121 CURVE SMOOTH"
);
}
);
width = 670;
}
);
leftKerningGroup = U;
note = Udotbelow;
rightKerningGroup = U;
unicode = 1EE4;
},
{
glyphname = Ugrave;
lastChange = "2015-11-29 23:51:22 +0000";
layers = (
{
layerId = "C023BAC7-6FF9-47E4-9D72-1131A8F8A065";
name = "Light Italic";
paths = (
{
closed = 1;
nodes = (
"462 -15 OFFCURVE",
"561 79 OFFCURVE",
"593 229 CURVE SMOOTH",
"693 699 LINE",
"665 699 LINE",
"563 219 LINE SMOOTH",
"533 79 OFFCURVE",
"418 9 OFFCURVE",
"286 9 CURVE SMOOTH",
"147 9 OFFCURVE",
"67 69 OFFCURVE",
"99 219 CURVE SMOOTH",
"201 699 LINE",
"173 699 LINE",
"73 229 LINE SMOOTH",
"40 74 OFFCURVE",
"109 -15 OFFCURVE",
"281 -15 CURVE SMOOTH"
);
},
{
closed = 1;
nodes = (
"476 792 LINE",
"441 959 LINE",
"413 959 LINE",
"454 792 LINE"
);
}
);
width = 670;
}
);
leftKerningGroup = U;
note = Ugrave;
rightKerningGroup = U;
unicode = 00D9;
},
{
glyphname = Uhookabove;
lastChange = "2015-11-29 23:51:23 +0000";
layers = (
{
layerId = "C023BAC7-6FF9-47E4-9D72-1131A8F8A065";
name = "Light Italic";
paths = (
{
closed = 1;
nodes = (
"462 -15 OFFCURVE",
"561 79 OFFCURVE",
"593 229 CURVE SMOOTH",
"693 699 LINE",
"665 699 LINE",
"563 219 LINE SMOOTH",
"533 79 OFFCURVE",
"418 9 OFFCURVE",
"286 9 CURVE SMOOTH",
"147 9 OFFCURVE",
"67 69 OFFCURVE",
"99 219 CURVE SMOOTH",
"201 699 LINE",
"173 699 LINE",
"73 229 LINE SMOOTH",
"40 74 OFFCURVE",
"109 -15 OFFCURVE",
"281 -15 CURVE SMOOTH"
);
},
{
closed = 1;
nodes = (
"446 744 LINE",
"455 788 LINE",
"521 791 OFFCURVE",
"560 826 OFFCURVE",
"571 875 CURVE SMOOTH",
"581 925 OFFCURVE",
"555 961 OFFCURVE",
"486 961 CURVE SMOOTH",
"466 961 OFFCURVE",
"441 957 OFFCURVE",
"429 953 CURVE",
"424 929 LINE",
"437 934 OFFCURVE",
"463 937 OFFCURVE",
"481 937 CURVE SMOOTH",
"529 937 OFFCURVE",
"554 918 OFFCURVE",
"544 874 CURVE SMOOTH",
"535 830 OFFCURVE",
"508 807 OFFCURVE",
"436 807 CURVE",
"423 744 LINE"
);
}
);
width = 670;
}
);
leftKerningGroup = U;
note = Uhookabove;
rightKerningGroup = U;
unicode = 1EE6;
},
{
glyphname = Uhorn;
lastChange = "2015-11-29 23:51:23 +0000";
layers = (
{
layerId = "C023BAC7-6FF9-47E4-9D72-1131A8F8A065";
name = "Light Italic";
paths = (
{
closed = 1;
nodes = (
"458 -15 OFFCURVE",
"560 74 OFFCURVE",
"593 229 CURVE SMOOTH",
"671 597 LINE",
"741 597 OFFCURVE",
"811 650 OFFCURVE",
"823 710 CURVE SMOOTH",
"831 747 LINE",
"807 747 LINE",
"799 710 LINE SMOOTH",
"789 662 OFFCURVE",
"735 620 OFFCURVE",
"676 620 CURVE",
"693 699 LINE",
"665 699 LINE",
"563 219 LINE SMOOTH",
"531 69 OFFCURVE",
"418 9 OFFCURVE",
"286 9 CURVE SMOOTH",
"148 9 OFFCURVE",
"67 69 OFFCURVE",
"99 219 CURVE SMOOTH",
"201 699 LINE",
"173 699 LINE",
"73 229 LINE SMOOTH",
"40 74 OFFCURVE",
"114 -15 OFFCURVE",
"281 -15 CURVE SMOOTH"
);
}
);
width = 753;
}
);
leftKerningGroup = U;
note = Uhorn;
rightKerningGroup = U;
unicode = 01AF;
},
{
glyphname = Uhornacute;
lastChange = "2015-11-29 23:51:24 +0000";
layers = (
{
layerId = "C023BAC7-6FF9-47E4-9D72-1131A8F8A065";
name = "Light Italic";
paths = (
{
closed = 1;
nodes = (
"458 -15 OFFCURVE",
"560 74 OFFCURVE",
"593 229 CURVE SMOOTH",
"671 597 LINE",
"741 597 OFFCURVE",
"811 650 OFFCURVE",
"823 710 CURVE SMOOTH",
"831 747 LINE",
"807 747 LINE",
"799 710 LINE SMOOTH",
"789 662 OFFCURVE",
"735 620 OFFCURVE",
"676 620 CURVE",
"693 699 LINE",
"665 699 LINE",
"563 219 LINE SMOOTH",
"531 69 OFFCURVE",
"418 9 OFFCURVE",
"286 9 CURVE SMOOTH",
"148 9 OFFCURVE",
"67 69 OFFCURVE",
"99 219 CURVE SMOOTH",
"201 699 LINE",
"173 699 LINE",
"73 229 LINE SMOOTH",
"40 74 OFFCURVE",
"114 -15 OFFCURVE",
"281 -15 CURVE SMOOTH"
);
},
{
closed = 1;
nodes = (
"452 784 LINE",
"565 951 LINE",
"537 951 LINE",
"430 784 LINE"
);
}
);
width = 790;
}
);
leftKerningGroup = U;
note = Uhornacute;
rightKerningGroup = U;
unicode = 1EE8;
},
{
glyphname = Uhorndotbelow;
lastChange = "2015-11-29 23:51:21 +0000";
layers = (
{
layerId = "C023BAC7-6FF9-47E4-9D72-1131A8F8A065";
name = "Light Italic";
paths = (
{
closed = 1;
nodes = (
"458 -15 OFFCURVE",
"560 74 OFFCURVE",
"593 229 CURVE SMOOTH",
"671 597 LINE",
"741 597 OFFCURVE",
"811 650 OFFCURVE",
"823 710 CURVE SMOOTH",
"831 747 LINE",
"807 747 LINE",
"799 710 LINE SMOOTH",
"789 662 OFFCURVE",
"735 620 OFFCURVE",
"676 620 CURVE",
"693 699 LINE",
"665 699 LINE",
"563 219 LINE SMOOTH",
"531 69 OFFCURVE",
"418 9 OFFCURVE",
"286 9 CURVE SMOOTH",
"148 9 OFFCURVE",
"67 69 OFFCURVE",
"99 219 CURVE SMOOTH",
"201 699 LINE",
"173 699 LINE",
"73 229 LINE SMOOTH",
"40 74 OFFCURVE",
"114 -15 OFFCURVE",
"281 -15 CURVE SMOOTH"
);
},
{
closed = 1;
nodes = (
"279 -121 OFFCURVE",
"294 -108 OFFCURVE",
"297 -93 CURVE SMOOTH",
"300 -78 OFFCURVE",
"290 -65 OFFCURVE",
"276 -65 CURVE SMOOTH",
"261 -65 OFFCURVE",
"245 -78 OFFCURVE",
"242 -93 CURVE SMOOTH",
"239 -108 OFFCURVE",
"249 -121 OFFCURVE",
"264 -121 CURVE SMOOTH"
);
}
);
width = 763;
}
);
leftKerningGroup = U;
note = Uhorndotbelow;
rightKerningGroup = U;
unicode = 1EF0;
},
{
glyphname = Uhorngrave;
lastChange = "2015-11-29 23:51:21 +0000";
layers = (
{
layerId = "C023BAC7-6FF9-47E4-9D72-1131A8F8A065";
name = "Light Italic";
paths = (
{
closed = 1;
nodes = (
"458 -15 OFFCURVE",
"560 74 OFFCURVE",
"593 229 CURVE SMOOTH",
"671 597 LINE",
"741 597 OFFCURVE",
"811 650 OFFCURVE",
"823 710 CURVE SMOOTH",
"831 747 LINE",
"807 747 LINE",
"799 710 LINE SMOOTH",
"789 662 OFFCURVE",
"735 620 OFFCURVE",
"676 620 CURVE",
"693 699 LINE",
"665 699 LINE",
"563 219 LINE SMOOTH",
"531 69 OFFCURVE",
"418 9 OFFCURVE",
"286 9 CURVE SMOOTH",
"148 9 OFFCURVE",
"67 69 OFFCURVE",
"99 219 CURVE SMOOTH",
"201 699 LINE",
"173 699 LINE",
"73 229 LINE SMOOTH",
"40 74 OFFCURVE",
"114 -15 OFFCURVE",
"281 -15 CURVE SMOOTH"
);
},
{
closed = 1;
nodes = (
"490 784 LINE",
"455 951 LINE",
"427 951 LINE",
"468 784 LINE"
);
}
);
width = 763;
}
);
leftKerningGroup = U;
note = Uhorngrave;
rightKerningGroup = U;
unicode = 1EEA;
},
{
glyphname = Uhornhookabove;
lastChange = "2015-11-29 23:51:22 +0000";
layers = (
{
layerId = "C023BAC7-6FF9-47E4-9D72-1131A8F8A065";
name = "Light Italic";
paths = (
{
closed = 1;
nodes = (
"458 -15 OFFCURVE",
"560 74 OFFCURVE",
"593 229 CURVE SMOOTH",
"671 597 LINE",
"741 597 OFFCURVE",
"811 650 OFFCURVE",
"823 710 CURVE SMOOTH",
"831 747 LINE",
"807 747 LINE",
"799 710 LINE SMOOTH",
"789 662 OFFCURVE",
"735 620 OFFCURVE",
"676 620 CURVE",
"693 699 LINE",
"665 699 LINE",
"563 219 LINE SMOOTH",
"531 69 OFFCURVE",
"418 9 OFFCURVE",
"286 9 CURVE SMOOTH",
"148 9 OFFCURVE",
"67 69 OFFCURVE",
"99 219 CURVE SMOOTH",
"201 699 LINE",
"173 699 LINE",
"73 229 LINE SMOOTH",
"40 74 OFFCURVE",
"114 -15 OFFCURVE",
"281 -15 CURVE SMOOTH"
);
},
{
closed = 1;
nodes = (
"463 784 LINE",
"472 828 LINE",
"538 831 OFFCURVE",
"577 866 OFFCURVE",
"588 915 CURVE SMOOTH",
"598 965 OFFCURVE",
"572 1001 OFFCURVE",
"503 1001 CURVE SMOOTH",
"483 1001 OFFCURVE",
"458 997 OFFCURVE",
"446 993 CURVE",
"441 969 LINE",
"454 974 OFFCURVE",
"480 977 OFFCURVE",
"498 977 CURVE SMOOTH",
"546 977 OFFCURVE",
"571 958 OFFCURVE",
"561 914 CURVE SMOOTH",
"552 870 OFFCURVE",
"525 847 OFFCURVE",
"453 847 CURVE",
"440 784 LINE"
);
}
);
width = 763;
}
);
leftKerningGroup = U;
note = Uhornhookabove;
rightKerningGroup = U;
unicode = 1EEC;
},
{
glyphname = Uhorntilde;
lastChange = "2015-11-29 23:51:23 +0000";
layers = (
{
layerId = "C023BAC7-6FF9-47E4-9D72-1131A8F8A065";
name = "Light Italic";
paths = (
{
closed = 1;
nodes = (
"458 -15 OFFCURVE",
"560 74 OFFCURVE",
"593 229 CURVE SMOOTH",
"671 597 LINE",
"741 597 OFFCURVE",
"811 650 OFFCURVE",
"823 710 CURVE SMOOTH",
"831 747 LINE",
"807 747 LINE",
"799 710 LINE SMOOTH",
"789 662 OFFCURVE",
"735 620 OFFCURVE",
"676 620 CURVE",
"693 699 LINE",
"665 699 LINE",
"563 219 LINE SMOOTH",
"531 69 OFFCURVE",
"418 9 OFFCURVE",
"286 9 CURVE SMOOTH",
"148 9 OFFCURVE",
"67 69 OFFCURVE",
"99 219 CURVE SMOOTH",
"201 699 LINE",
"173 699 LINE",
"73 229 LINE SMOOTH",
"40 74 OFFCURVE",
"114 -15 OFFCURVE",
"281 -15 CURVE SMOOTH"
);
},
{
closed = 1;
nodes = (
"316 827 OFFCURVE",
"348 838 OFFCURVE",
"381 838 CURVE SMOOTH",
"445 838 OFFCURVE",
"471 788 OFFCURVE",
"544 788 CURVE SMOOTH",
"581 788 OFFCURVE",
"617 800 OFFCURVE",
"643 833 CURVE",
"650 866 LINE",
"616 823 OFFCURVE",
"582 812 OFFCURVE",
"549 812 CURVE SMOOTH",
"484 812 OFFCURVE",
"454 862 OFFCURVE",
"386 862 CURVE SMOOTH",
"349 862 OFFCURVE",
"313 850 OFFCURVE",
"286 817 CURVE",
"279 784 LINE"
);
}
);
width = 763;
}
);
leftKerningGroup = U;
note = Uhorntilde;
rightKerningGroup = U;
unicode = 1EEE;
},
{
glyphname = Uhungarumlaut;
lastChange = "2015-11-29 23:51:22 +0000";
layers = (
{
layerId = "C023BAC7-6FF9-47E4-9D72-1131A8F8A065";
name = "Light Italic";
paths = (
{
closed = 1;
nodes = (
"462 -15 OFFCURVE",
"561 79 OFFCURVE",
"593 229 CURVE SMOOTH",
"693 699 LINE",
"665 699 LINE",
"563 219 LINE SMOOTH",
"533 79 OFFCURVE",
"418 9 OFFCURVE",
"286 9 CURVE SMOOTH",
"147 9 OFFCURVE",
"67 69 OFFCURVE",
"99 219 CURVE SMOOTH",
"201 699 LINE",
"173 699 LINE",
"73 229 LINE SMOOTH",
"40 74 OFFCURVE",
"109 -15 OFFCURVE",
"281 -15 CURVE SMOOTH"
);
},
{
closed = 1;
nodes = (
"360 780 LINE",
"473 947 LINE",
"445 947 LINE",
"339 780 LINE"
);
},
{
closed = 1;
nodes = (
"527 780 LINE",
"640 947 LINE",
"612 947 LINE",
"505 780 LINE"
);
}
);
width = 670;
}
);
leftKerningGroup = U;
note = Uhungarumlaut;
rightKerningGroup = U;
unicode = 0170;
},
{
glyphname = Umacron;
lastChange = "2015-11-29 23:51:20 +0000";
layers = (
{
layerId = "C023BAC7-6FF9-47E4-9D72-1131A8F8A065";
name = "Light Italic";
paths = (
{
closed = 1;
nodes = (
"462 -15 OFFCURVE",
"561 79 OFFCURVE",
"593 229 CURVE SMOOTH",
"693 699 LINE",
"665 699 LINE",
"563 219 LINE SMOOTH",
"533 79 OFFCURVE",
"418 9 OFFCURVE",
"286 9 CURVE SMOOTH",
"147 9 OFFCURVE",
"67 69 OFFCURVE",
"99 219 CURVE SMOOTH",
"201 699 LINE",
"173 699 LINE",
"73 229 LINE SMOOTH",
"40 74 OFFCURVE",
"109 -15 OFFCURVE",
"281 -15 CURVE SMOOTH"
);
},
{
closed = 1;
nodes = (
"595 813 LINE",
"601 837 LINE",
"323 837 LINE",
"317 813 LINE"
);
}
);
width = 670;
}
);
leftKerningGroup = U;
note = Umacron;
rightKerningGroup = U;
unicode = 016A;
},
{
glyphname = Uogonek;
lastChange = "2015-11-29 23:51:21 +0000";
layers = (
{
layerId = "C023BAC7-6FF9-47E4-9D72-1131A8F8A065";
name = "Light Italic";
paths = (
{
closed = 1;
nodes = (
"297 -206 OFFCURVE",
"311 -203 OFFCURVE",
"323 -198 CURVE",
"329 -174 LINE",
"315 -179 OFFCURVE",
"299 -182 OFFCURVE",
"282 -182 CURVE SMOOTH",
"251 -182 OFFCURVE",
"230 -164 OFFCURVE",
"238 -125 CURVE SMOOTH",
"247 -82 OFFCURVE",
"279 -45 OFFCURVE",
"324 -13 CURVE",
"478 1 OFFCURVE",
"563 91 OFFCURVE",
"593 229 CURVE SMOOTH",
"693 699 LINE",
"665 699 LINE",
"563 219 LINE SMOOTH",
"533 79 OFFCURVE",
"418 9 OFFCURVE",
"286 9 CURVE SMOOTH",
"147 9 OFFCURVE",
"67 69 OFFCURVE",
"99 219 CURVE SMOOTH",
"201 699 LINE",
"173 699 LINE",
"73 229 LINE SMOOTH",
"40 74 OFFCURVE",
"109 -15 OFFCURVE",
"281 -15 CURVE SMOOTH",
"292 -15 LINE",
"254 -42 OFFCURVE",
"221 -81 OFFCURVE",
"212 -125 CURVE SMOOTH",
"200 -179 OFFCURVE",
"234 -206 OFFCURVE",
"277 -206 CURVE SMOOTH"
);
}
);
width = 670;
}
);
leftKerningGroup = U;
note = Uogonek;
rightKerningGroup = U;
unicode = 0172;
},
{
glyphname = Uring;
lastChange = "2015-11-29 23:51:23 +0000";
layers = (
{
layerId = "C023BAC7-6FF9-47E4-9D72-1131A8F8A065";
name = "Light Italic";
paths = (
{
closed = 1;
nodes = (
"462 -15 OFFCURVE",
"561 79 OFFCURVE",
"593 229 CURVE SMOOTH",
"693 699 LINE",
"665 699 LINE",
"563 219 LINE SMOOTH",
"533 79 OFFCURVE",
"418 9 OFFCURVE",
"286 9 CURVE SMOOTH",
"147 9 OFFCURVE",
"67 69 OFFCURVE",
"99 219 CURVE SMOOTH",
"201 699 LINE",
"173 699 LINE",
"73 229 LINE SMOOTH",
"40 74 OFFCURVE",
"109 -15 OFFCURVE",
"281 -15 CURVE SMOOTH"
);
},
{
closed = 1;
nodes = (
"495 760 OFFCURVE",
"545 801 OFFCURVE",
"556 851 CURVE SMOOTH",
"566 901 OFFCURVE",
"534 942 OFFCURVE",
"484 942 CURVE SMOOTH",
"434 942 OFFCURVE",
"384 901 OFFCURVE",
"374 851 CURVE SMOOTH",
"363 801 OFFCURVE",
"395 760 OFFCURVE",
"445 760 CURVE SMOOTH"
);
},
{
closed = 1;
nodes = (
"412 781 OFFCURVE",
"387 813 OFFCURVE",
"396 851 CURVE SMOOTH",
"404 889 OFFCURVE",
"440 921 OFFCURVE",
"479 921 CURVE SMOOTH",
"518 921 OFFCURVE",
"542 889 OFFCURVE",
"534 851 CURVE SMOOTH",
"525 813 OFFCURVE",
"489 781 OFFCURVE",
"450 781 CURVE SMOOTH"
);
}
);
width = 670;
}
);
leftKerningGroup = U;
note = Uring;
rightKerningGroup = U;
unicode = 016E;
},
{
glyphname = Utilde;
lastChange = "2015-11-29 23:51:21 +0000";
layers = (
{
layerId = "C023BAC7-6FF9-47E4-9D72-1131A8F8A065";
name = "Light Italic";
paths = (
{
closed = 1;
nodes = (
"462 -15 OFFCURVE",
"561 79 OFFCURVE",
"593 229 CURVE SMOOTH",
"693 699 LINE",
"665 699 LINE",
"563 219 LINE SMOOTH",
"533 79 OFFCURVE",
"418 9 OFFCURVE",
"286 9 CURVE SMOOTH",
"147 9 OFFCURVE",
"67 69 OFFCURVE",
"99 219 CURVE SMOOTH",
"201 699 LINE",
"173 699 LINE",
"73 229 LINE SMOOTH",
"40 74 OFFCURVE",
"109 -15 OFFCURVE",
"281 -15 CURVE SMOOTH"
);
},
{
closed = 1;
nodes = (
"347 827 OFFCURVE",
"379 838 OFFCURVE",
"412 838 CURVE SMOOTH",
"476 838 OFFCURVE",
"502 788 OFFCURVE",
"575 788 CURVE SMOOTH",
"612 788 OFFCURVE",
"648 800 OFFCURVE",
"674 833 CURVE",
"681 866 LINE",
"647 823 OFFCURVE",
"613 812 OFFCURVE",
"580 812 CURVE SMOOTH",
"515 812 OFFCURVE",
"485 862 OFFCURVE",
"417 862 CURVE SMOOTH",
"380 862 OFFCURVE",
"344 850 OFFCURVE",
"317 817 CURVE",
"310 784 LINE"
);
}
);
width = 670;
}
);
leftKerningGroup = U;
note = Utilde;
rightKerningGroup = U;
unicode = 0168;
},
{
glyphname = V;
lastChange = "2015-11-29 23:51:21 +0000";
layers = (
{
layerId = "C023BAC7-6FF9-47E4-9D72-1131A8F8A065";
name = "Light Italic";
paths = (
{
closed = 1;
nodes = (
"311 0 LINE",
"738 699 LINE",
"709 699 LINE",
"307 42 LINE",
"185 699 LINE",
"158 699 LINE",
"289 0 LINE"
);
}
);
width = 700;
}
);
note = V;
unicode = 0056;
},
{
glyphname = W;
lastChange = "2015-11-29 23:51:22 +0000";
layers = (
{
layerId = "C023BAC7-6FF9-47E4-9D72-1131A8F8A065";
name = "Light Italic";
paths = (
{
closed = 1;
nodes = (
"251 0 LINE",
"597 665 LINE",
"662 0 LINE",
"684 0 LINE",
"1051 699 LINE",
"1023 699 LINE",
"682 47 LINE",
"619 699 LINE",
"590 699 LINE",
"249 47 LINE",
"186 699 LINE",
"158 699 LINE",
"229 0 LINE"
);
}
);
width = 1013;
}
);
leftKerningGroup = W;
note = W;
rightKerningGroup = W;
unicode = 0057;
},
{
glyphname = Wacute;
lastChange = "2015-11-29 23:51:22 +0000";
layers = (
{
layerId = "C023BAC7-6FF9-47E4-9D72-1131A8F8A065";
name = "Light Italic";
paths = (
{
closed = 1;
nodes = (
"251 0 LINE",
"597 665 LINE",
"662 0 LINE",
"684 0 LINE",
"1051 699 LINE",
"1023 699 LINE",
"682 47 LINE",
"619 699 LINE",
"590 699 LINE",
"249 47 LINE",
"186 699 LINE",
"158 699 LINE",
"229 0 LINE"
);
},
{
closed = 1;
nodes = (
"630 783 LINE",
"743 950 LINE",
"715 950 LINE",
"608 783 LINE"
);
}
);
width = 1013;
}
);
leftKerningGroup = W;
note = Wacute;
rightKerningGroup = W;
unicode = 1E82;
},
{
glyphname = Wcircumflex;
lastChange = "2015-11-29 23:51:24 +0000";
layers = (
{
layerId = "C023BAC7-6FF9-47E4-9D72-1131A8F8A065";
name = "Light Italic";
paths = (
{
closed = 1;
nodes = (
"251 0 LINE",
"597 665 LINE",
"662 0 LINE",
"684 0 LINE",
"1051 699 LINE",
"1023 699 LINE",
"682 47 LINE",
"619 699 LINE",
"590 699 LINE",
"249 47 LINE",
"186 699 LINE",
"158 699 LINE",
"229 0 LINE"
);
},
{
closed = 1;
nodes = (
"516 784 LINE",
"651 913 LINE",
"732 784 LINE",
"761 784 LINE",
"665 935 LINE",
"643 935 LINE",
"484 784 LINE"
);
}
);
width = 1013;
}
);
leftKerningGroup = W;
note = Wcircumflex;
rightKerningGroup = W;
unicode = 0174;
},
{
glyphname = Wdieresis;
lastChange = "2015-11-29 23:51:21 +0000";
layers = (
{
layerId = "C023BAC7-6FF9-47E4-9D72-1131A8F8A065";
name = "Light Italic";
paths = (
{
closed = 1;
nodes = (
"251 0 LINE",
"597 665 LINE",
"662 0 LINE",
"684 0 LINE",
"1051 699 LINE",
"1023 699 LINE",
"682 47 LINE",
"619 699 LINE",
"590 699 LINE",
"249 47 LINE",
"186 699 LINE",
"158 699 LINE",
"229 0 LINE"
);
},
{
closed = 1;
nodes = (
"539 790 OFFCURVE",
"554 803 OFFCURVE",
"558 818 CURVE",
"561 833 OFFCURVE",
"550 846 OFFCURVE",
"535 846 CURVE SMOOTH",
"520 846 OFFCURVE",
"505 833 OFFCURVE",
"502 818 CURVE",
"498 803 OFFCURVE",
"509 790 OFFCURVE",
"524 790 CURVE SMOOTH"
);
},
{
closed = 1;
nodes = (
"737 790 OFFCURVE",
"752 803 OFFCURVE",
"756 818 CURVE",
"759 833 OFFCURVE",
"748 846 OFFCURVE",
"733 846 CURVE SMOOTH",
"718 846 OFFCURVE",
"703 833 OFFCURVE",
"700 818 CURVE",
"696 803 OFFCURVE",
"707 790 OFFCURVE",
"722 790 CURVE SMOOTH"
);
}
);
width = 1013;
}
);
leftKerningGroup = W;
note = Wdieresis;
rightKerningGroup = W;
unicode = 1E84;
},
{
glyphname = Wgrave;
lastChange = "2015-11-29 23:51:24 +0000";
layers = (
{
layerId = "C023BAC7-6FF9-47E4-9D72-1131A8F8A065";
name = "Light Italic";
paths = (
{
closed = 1;
nodes = (
"251 0 LINE",
"597 665 LINE",
"662 0 LINE",
"684 0 LINE",
"1051 699 LINE",
"1023 699 LINE",
"682 47 LINE",
"619 699 LINE",
"590 699 LINE",
"249 47 LINE",
"186 699 LINE",
"158 699 LINE",
"229 0 LINE"
);
},
{
closed = 1;
nodes = (
"630 783 LINE",
"595 950 LINE",
"567 950 LINE",
"608 783 LINE"
);
}
);
width = 1013;
}
);
leftKerningGroup = W;
note = Wgrave;
rightKerningGroup = W;
unicode = 1E80;
},
{
glyphname = X;
lastChange = "2015-11-29 23:51:21 +0000";
layers = (
{
layerId = "C023BAC7-6FF9-47E4-9D72-1131A8F8A065";
name = "Light Italic";
paths = (
{
closed = 1;
nodes = (
"41 0 LINE",
"370 341 LINE",
"553 0 LINE",
"582 0 LINE",
"387 361 LINE",
"712 699 LINE",
"681 699 LINE",
"377 382 LINE",
"207 699 LINE",
"178 699 LINE",
"358 361 LINE",
"10 0 LINE"
);
}
);
width = 692;
}
);
note = X;
unicode = 0058;
},
{
glyphname = Y;
lastChange = "2015-11-29 23:51:21 +0000";
layers = (
{
layerId = "C023BAC7-6FF9-47E4-9D72-1131A8F8A065";
name = "Light Italic";
paths = (
{
closed = 1;
nodes = (
"293 0 LINE",
"349 265 LINE",
"696 699 LINE",
"666 699 LINE",
"338 289 LINE",
"184 699 LINE",
"158 699 LINE",
"321 265 LINE",
"265 0 LINE"
);
}
);
width = 658;
}
);
leftKerningGroup = Y;
note = Y;
rightKerningGroup = Y;
unicode = 0059;
},
{
glyphname = Yacute;
lastChange = "2015-11-29 23:51:23 +0000";
layers = (
{
layerId = "C023BAC7-6FF9-47E4-9D72-1131A8F8A065";
name = "Light Italic";
paths = (
{
closed = 1;
nodes = (
"293 0 LINE",
"349 265 LINE",
"696 699 LINE",
"666 699 LINE",
"338 289 LINE",
"184 699 LINE",
"158 699 LINE",
"321 265 LINE",
"265 0 LINE"
);
},
{
closed = 1;
nodes = (
"450 792 LINE",
"563 959 LINE",
"535 959 LINE",
"428 792 LINE"
);
}
);
width = 658;
}
);
leftKerningGroup = Y;
note = Yacute;
rightKerningGroup = Y;
unicode = 00DD;
},
{
glyphname = Ycircumflex;
lastChange = "2015-11-29 23:51:21 +0000";
layers = (
{
layerId = "C023BAC7-6FF9-47E4-9D72-1131A8F8A065";
name = "Light Italic";
paths = (
{
closed = 1;
nodes = (
"293 0 LINE",
"349 265 LINE",
"696 699 LINE",
"666 699 LINE",
"338 289 LINE",
"184 699 LINE",
"158 699 LINE",
"321 265 LINE",
"265 0 LINE"
);
},
{
closed = 1;
nodes = (
"339 784 LINE",
"474 913 LINE",
"555 784 LINE",
"584 784 LINE",
"488 935 LINE",
"466 935 LINE",
"307 784 LINE"
);
}
);
width = 658;
}
);
leftKerningGroup = Y;
note = Ycircumflex;
rightKerningGroup = Y;
unicode = 0176;
},
{
glyphname = Ydieresis;
lastChange = "2015-11-29 23:51:22 +0000";
layers = (
{
layerId = "C023BAC7-6FF9-47E4-9D72-1131A8F8A065";
name = "Light Italic";
paths = (
{
closed = 1;
nodes = (
"293 0 LINE",
"349 265 LINE",
"696 699 LINE",
"666 699 LINE",
"338 289 LINE",
"184 699 LINE",
"158 699 LINE",
"321 265 LINE",
"265 0 LINE"
);
},
{
closed = 1;
nodes = (
"365 802 OFFCURVE",
"380 815 OFFCURVE",
"384 830 CURVE",
"387 845 OFFCURVE",
"376 858 OFFCURVE",
"361 858 CURVE SMOOTH",
"346 858 OFFCURVE",
"331 845 OFFCURVE",
"328 830 CURVE",
"324 815 OFFCURVE",
"335 802 OFFCURVE",
"350 802 CURVE SMOOTH"
);
},
{
closed = 1;
nodes = (
"563 802 OFFCURVE",
"578 815 OFFCURVE",
"582 830 CURVE",
"585 845 OFFCURVE",
"574 858 OFFCURVE",
"559 858 CURVE SMOOTH",
"544 858 OFFCURVE",
"529 845 OFFCURVE",
"526 830 CURVE",
"522 815 OFFCURVE",
"533 802 OFFCURVE",
"548 802 CURVE SMOOTH"
);
}
);
width = 658;
}
);
leftKerningGroup = Y;
note = Ydieresis;
rightKerningGroup = Y;
unicode = 0178;
},
{
glyphname = Ydotaccent;
lastChange = "2015-11-29 23:51:24 +0000";
layers = (
{
layerId = "C023BAC7-6FF9-47E4-9D72-1131A8F8A065";
name = "Light Italic";
paths = (
{
closed = 1;
nodes = (
"293 0 LINE",
"349 265 LINE",
"696 699 LINE",
"666 699 LINE",
"338 289 LINE",
"184 699 LINE",
"158 699 LINE",
"321 265 LINE",
"265 0 LINE"
);
},
{
closed = 1;
nodes = (
"461 790 OFFCURVE",
"476 803 OFFCURVE",
"480 818 CURVE",
"483 833 OFFCURVE",
"472 846 OFFCURVE",
"457 846 CURVE SMOOTH",
"442 846 OFFCURVE",
"427 833 OFFCURVE",
"424 818 CURVE",
"420 803 OFFCURVE",
"431 790 OFFCURVE",
"446 790 CURVE SMOOTH"
);
}
);
width = 658;
}
);
leftKerningGroup = Y;
note = Ydotaccent;
rightKerningGroup = Y;
unicode = 1E8E;
},
{
glyphname = Ydotbelow;
lastChange = "2015-11-29 23:51:21 +0000";
layers = (
{
layerId = "C023BAC7-6FF9-47E4-9D72-1131A8F8A065";
name = "Light Italic";
paths = (
{
closed = 1;
nodes = (
"293 0 LINE",
"349 265 LINE",
"696 699 LINE",
"666 699 LINE",
"338 289 LINE",
"184 699 LINE",
"158 699 LINE",
"321 265 LINE",
"265 0 LINE"
);
},
{
closed = 1;
nodes = (
"269 -121 OFFCURVE",
"284 -108 OFFCURVE",
"287 -93 CURVE SMOOTH",
"290 -78 OFFCURVE",
"280 -65 OFFCURVE",
"266 -65 CURVE SMOOTH",
"251 -65 OFFCURVE",
"235 -78 OFFCURVE",
"232 -93 CURVE SMOOTH",
"229 -108 OFFCURVE",
"239 -121 OFFCURVE",
"254 -121 CURVE SMOOTH"
);
}
);
width = 658;
}
);
leftKerningGroup = Y;
note = Ydotbelow;
rightKerningGroup = Y;
unicode = 1EF4;
},
{
glyphname = Ygrave;
lastChange = "2015-11-29 23:51:23 +0000";
layers = (
{
layerId = "C023BAC7-6FF9-47E4-9D72-1131A8F8A065";
name = "Light Italic";
paths = (
{
closed = 1;
nodes = (
"293 0 LINE",
"349 265 LINE",
"696 699 LINE",
"666 699 LINE",
"338 289 LINE",
"184 699 LINE",
"158 699 LINE",
"321 265 LINE",
"265 0 LINE"
);
},
{
closed = 1;
nodes = (
"465 784 LINE",
"430 951 LINE",
"402 951 LINE",
"443 784 LINE"
);
}
);
width = 658;
}
);
leftKerningGroup = Y;
note = Ygrave;
rightKerningGroup = Y;
unicode = 1EF2;
},
{
glyphname = Yhookabove;
lastChange = "2015-11-29 23:51:22 +0000";
layers = (
{
layerId = "C023BAC7-6FF9-47E4-9D72-1131A8F8A065";
name = "Light Italic";
paths = (
{
closed = 1;
nodes = (
"293 0 LINE",
"349 265 LINE",
"696 699 LINE",
"666 699 LINE",
"338 289 LINE",
"184 699 LINE",
"158 699 LINE",
"321 265 LINE",
"265 0 LINE"
);
},
{
closed = 1;
nodes = (
"445 784 LINE",
"454 828 LINE",
"520 831 OFFCURVE",
"559 866 OFFCURVE",
"570 915 CURVE SMOOTH",
"580 965 OFFCURVE",
"554 1001 OFFCURVE",
"485 1001 CURVE SMOOTH",
"465 1001 OFFCURVE",
"440 997 OFFCURVE",
"428 993 CURVE",
"423 969 LINE",
"436 974 OFFCURVE",
"462 977 OFFCURVE",
"480 977 CURVE SMOOTH",
"528 977 OFFCURVE",
"553 958 OFFCURVE",
"543 914 CURVE SMOOTH",
"534 870 OFFCURVE",
"507 847 OFFCURVE",
"435 847 CURVE",
"422 784 LINE"
);
}
);
width = 658;
}
);
leftKerningGroup = Y;
note = Yhookabove;
rightKerningGroup = Y;
unicode = 1EF6;
},
{
glyphname = Ytilde;
lastChange = "2015-11-29 23:51:22 +0000";
layers = (
{
layerId = "C023BAC7-6FF9-47E4-9D72-1131A8F8A065";
name = "Light Italic";
paths = (
{
closed = 1;
nodes = (
"293 0 LINE",
"349 265 LINE",
"696 699 LINE",
"666 699 LINE",
"338 289 LINE",
"184 699 LINE",
"158 699 LINE",
"321 265 LINE",
"265 0 LINE"
);
},
{
closed = 1;
nodes = (
"305 827 OFFCURVE",
"337 838 OFFCURVE",
"370 838 CURVE SMOOTH",
"434 838 OFFCURVE",
"460 788 OFFCURVE",
"533 788 CURVE SMOOTH",
"570 788 OFFCURVE",
"606 800 OFFCURVE",
"632 833 CURVE",
"639 866 LINE",
"605 823 OFFCURVE",
"571 812 OFFCURVE",
"538 812 CURVE SMOOTH",
"473 812 OFFCURVE",
"443 862 OFFCURVE",
"375 862 CURVE SMOOTH",
"338 862 OFFCURVE",
"302 850 OFFCURVE",
"275 817 CURVE",
"268 784 LINE"
);
}
);
width = 658;
}
);
leftKerningGroup = Y;
note = Ytilde;
rightKerningGroup = Y;
unicode = 1EF8;
},
{
glyphname = Z;
lastChange = "2015-11-29 23:51:22 +0000";
layers = (
{
layerId = "C023BAC7-6FF9-47E4-9D72-1131A8F8A065";
name = "Light Italic";
paths = (
{
closed = 1;
nodes = (
"505 0 LINE",
"510 24 LINE",
"47 24 LINE",
"637 673 LINE",
"642 699 LINE",
"170 699 LINE",
"165 675 LINE",
"605 675 LINE",
"15 26 LINE",
"10 0 LINE"
);
}
);
width = 615;
}
);
leftKerningGroup = Z;
note = Z;
rightKerningGroup = Z;
unicode = 005A;
},
{
glyphname = Zacute;
lastChange = "2015-11-29 23:51:21 +0000";
layers = (
{
layerId = "C023BAC7-6FF9-47E4-9D72-1131A8F8A065";
name = "Light Italic";
paths = (
{
closed = 1;
nodes = (
"505 0 LINE",
"510 24 LINE",
"47 24 LINE",
"637 673 LINE",
"642 699 LINE",
"170 699 LINE",
"165 675 LINE",
"605 675 LINE",
"15 26 LINE",
"10 0 LINE"
);
},
{
closed = 1;
nodes = (
"408 784 LINE",
"521 951 LINE",
"493 951 LINE",
"386 784 LINE"
);
}
);
width = 615;
}
);
leftKerningGroup = Z;
note = Zacute;
rightKerningGroup = Z;
unicode = 0179;
},
{
glyphname = Zcaron;
lastChange = "2015-11-29 23:51:24 +0000";
layers = (
{
layerId = "C023BAC7-6FF9-47E4-9D72-1131A8F8A065";
name = "Light Italic";
paths = (
{
closed = 1;
nodes = (
"505 0 LINE",
"510 24 LINE",
"47 24 LINE",
"637 673 LINE",
"642 699 LINE",
"170 699 LINE",
"165 675 LINE",
"605 675 LINE",
"15 26 LINE",
"10 0 LINE"
);
},
{
closed = 1;
nodes = (
"442 784 LINE",
"602 935 LINE",
"569 935 LINE",
"433 806 LINE",
"353 935 LINE",
"324 935 LINE",
"420 784 LINE"
);
}
);
width = 615;
}
);
leftKerningGroup = Z;
note = Zcaron;
rightKerningGroup = Z;
unicode = 017D;
},
{
glyphname = Zdotaccent;
lastChange = "2015-11-29 23:51:23 +0000";
layers = (
{
layerId = "C023BAC7-6FF9-47E4-9D72-1131A8F8A065";
name = "Light Italic";
paths = (
{
closed = 1;
nodes = (
"505 0 LINE",
"510 24 LINE",
"47 24 LINE",
"637 673 LINE",
"642 699 LINE",
"170 699 LINE",
"165 675 LINE",
"605 675 LINE",
"15 26 LINE",
"10 0 LINE"
);
},
{
closed = 1;
nodes = (
"432 790 OFFCURVE",
"447 803 OFFCURVE",
"451 818 CURVE",
"454 833 OFFCURVE",
"443 846 OFFCURVE",
"428 846 CURVE SMOOTH",
"413 846 OFFCURVE",
"398 833 OFFCURVE",
"395 818 CURVE",
"391 803 OFFCURVE",
"402 790 OFFCURVE",
"417 790 CURVE SMOOTH"
);
}
);
width = 615;
}
);
leftKerningGroup = Z;
note = Zdotaccent;
rightKerningGroup = Z;
unicode = 017B;
},
{
glyphname = Zdotbelow;
lastChange = "2015-11-29 23:51:21 +0000";
layers = (
{
layerId = "C023BAC7-6FF9-47E4-9D72-1131A8F8A065";
name = "Light Italic";
paths = (
{
closed = 1;
nodes = (
"505 0 LINE",
"510 24 LINE",
"47 24 LINE",
"637 673 LINE",
"642 699 LINE",
"170 699 LINE",
"165 675 LINE",
"605 675 LINE",
"15 26 LINE",
"10 0 LINE"
);
},
{
closed = 1;
nodes = (
"256 -121 OFFCURVE",
"271 -108 OFFCURVE",
"274 -93 CURVE SMOOTH",
"277 -78 OFFCURVE",
"267 -65 OFFCURVE",
"253 -65 CURVE SMOOTH",
"238 -65 OFFCURVE",
"222 -78 OFFCURVE",
"219 -93 CURVE SMOOTH",
"216 -108 OFFCURVE",
"226 -121 OFFCURVE",
"241 -121 CURVE SMOOTH"
);
}
);
width = 615;
}
);
leftKerningGroup = Z;
note = Zdotbelow;
rightKerningGroup = Z;
unicode = 1E92;
},
{
glyphname = a;
lastChange = "2015-11-29 23:51:22 +0000";
layers = (
{
layerId = "C023BAC7-6FF9-47E4-9D72-1131A8F8A065";
name = "Light Italic";
paths = (
{
closed = 1;
nodes = (
"359 -15 OFFCURVE",
"451 27 OFFCURVE",
"513 113 CURVE",
"489 0 LINE",
"516 0 LINE",
"618 480 LINE",
"591 480 LINE",
"566 365 LINE",
"540 450 OFFCURVE",
"458 495 OFFCURVE",
"364 495 CURVE SMOOTH",
"225 495 OFFCURVE",
"92 399 OFFCURVE",
"59 239 CURVE SMOOTH",
"27 82 OFFCURVE",
"118 -15 OFFCURVE",
"255 -15 CURVE SMOOTH"
);
},
{
closed = 1;
nodes = (
"130 9 OFFCURVE",
"55 98 OFFCURVE",
"85 239 CURVE SMOOTH",
"115 381 OFFCURVE",
"237 471 OFFCURVE",
"359 471 CURVE SMOOTH",
"474 471 OFFCURVE",
"542 413 OFFCURVE",
"554 310 CURVE",
"524 168 LINE",
"472 66 OFFCURVE",
"370 9 OFFCURVE",
"260 9 CURVE SMOOTH"
);
}
);
width = 623;
}
);
leftKerningGroup = a;
note = a;
rightKerningGroup = a;
unicode = 0061;
},
{
glyphname = aacute;
lastChange = "2015-11-29 23:51:21 +0000";
layers = (
{
layerId = "C023BAC7-6FF9-47E4-9D72-1131A8F8A065";
name = "Light Italic";
paths = (
{
closed = 1;
nodes = (
"359 -15 OFFCURVE",
"451 27 OFFCURVE",
"513 113 CURVE",
"489 0 LINE",
"516 0 LINE",
"618 480 LINE",
"591 480 LINE",
"566 365 LINE",
"540 450 OFFCURVE",
"458 495 OFFCURVE",
"364 495 CURVE SMOOTH",
"225 495 OFFCURVE",
"92 399 OFFCURVE",
"59 239 CURVE SMOOTH",
"27 82 OFFCURVE",
"118 -15 OFFCURVE",
"255 -15 CURVE SMOOTH"
);
},
{
closed = 1;
nodes = (
"130 9 OFFCURVE",
"55 98 OFFCURVE",
"85 239 CURVE SMOOTH",
"115 381 OFFCURVE",
"237 471 OFFCURVE",
"359 471 CURVE SMOOTH",
"474 471 OFFCURVE",
"542 413 OFFCURVE",
"554 310 CURVE",
"524 168 LINE",
"472 66 OFFCURVE",
"370 9 OFFCURVE",
"260 9 CURVE SMOOTH"
);
},
{
closed = 1;
nodes = (
"472 562 LINE",
"585 729 LINE",
"557 729 LINE",
"450 562 LINE"
);
}
);
width = 623;
}
);
leftKerningGroup = a;
note = aacute;
rightKerningGroup = a;
unicode = 00E1;
},
{
glyphname = abreve;
lastChange = "2015-11-29 23:51:22 +0000";
layers = (
{
layerId = "C023BAC7-6FF9-47E4-9D72-1131A8F8A065";
name = "Light Italic";
paths = (
{
closed = 1;
nodes = (
"359 -15 OFFCURVE",
"451 27 OFFCURVE",
"513 113 CURVE",
"489 0 LINE",
"516 0 LINE",
"618 480 LINE",
"591 480 LINE",
"566 365 LINE",
"540 450 OFFCURVE",
"458 495 OFFCURVE",
"364 495 CURVE SMOOTH",
"225 495 OFFCURVE",
"92 399 OFFCURVE",
"59 239 CURVE SMOOTH",
"27 82 OFFCURVE",
"118 -15 OFFCURVE",
"255 -15 CURVE SMOOTH"
);
},
{
closed = 1;
nodes = (
"130 9 OFFCURVE",
"55 98 OFFCURVE",
"85 239 CURVE SMOOTH",
"115 381 OFFCURVE",
"237 471 OFFCURVE",
"359 471 CURVE SMOOTH",
"474 471 OFFCURVE",
"542 413 OFFCURVE",
"554 310 CURVE",
"524 168 LINE",
"472 66 OFFCURVE",
"370 9 OFFCURVE",
"260 9 CURVE SMOOTH"
);
},
{
closed = 1;
nodes = (
"517 580 OFFCURVE",
"575 628 OFFCURVE",
"588 688 CURVE",
"562 688 LINE",
"552 640 OFFCURVE",
"509 603 OFFCURVE",
"450 603 CURVE SMOOTH",
"392 603 OFFCURVE",
"364 640 OFFCURVE",
"374 688 CURVE",
"352 688 LINE",
"339 628 OFFCURVE",
"377 580 OFFCURVE",
"447 580 CURVE SMOOTH"
);
}
);
width = 623;
}
);
leftKerningGroup = a;
note = abreve;
rightKerningGroup = a;
unicode = 0103;
},
{
glyphname = abreveacute;
lastChange = "2015-11-29 23:51:22 +0000";
layers = (
{
layerId = "C023BAC7-6FF9-47E4-9D72-1131A8F8A065";
name = "Light Italic";
paths = (
{
closed = 1;
nodes = (
"359 -15 OFFCURVE",
"451 27 OFFCURVE",
"513 113 CURVE",
"489 0 LINE",
"516 0 LINE",
"618 480 LINE",
"591 480 LINE",
"566 365 LINE",
"540 450 OFFCURVE",
"458 495 OFFCURVE",
"364 495 CURVE SMOOTH",
"225 495 OFFCURVE",
"92 399 OFFCURVE",
"59 239 CURVE SMOOTH",
"27 82 OFFCURVE",
"118 -15 OFFCURVE",
"255 -15 CURVE SMOOTH"
);
},
{
closed = 1;
nodes = (
"130 9 OFFCURVE",
"55 98 OFFCURVE",
"85 239 CURVE SMOOTH",
"115 381 OFFCURVE",
"237 471 OFFCURVE",
"359 471 CURVE SMOOTH",
"474 471 OFFCURVE",
"542 413 OFFCURVE",
"554 310 CURVE",
"524 168 LINE",
"472 66 OFFCURVE",
"370 9 OFFCURVE",
"260 9 CURVE SMOOTH"
);
},
{
closed = 1;
nodes = (
"498 565 OFFCURVE",
"556 613 OFFCURVE",
"569 673 CURVE",
"545 673 LINE",
"535 625 OFFCURVE",
"492 588 OFFCURVE",
"433 588 CURVE SMOOTH",
"375 588 OFFCURVE",
"347 625 OFFCURVE",
"357 673 CURVE",
"333 673 LINE",
"320 613 OFFCURVE",
"358 565 OFFCURVE",
"428 565 CURVE SMOOTH"
);
},
{
closed = 1;
nodes = (
"439 639 LINE",
"524 759 LINE",
"496 759 LINE",
"417 639 LINE"
);
}
);
width = 623;
}
);
leftKerningGroup = a;
note = abreveacute;
rightKerningGroup = a;
unicode = 1EAF;
},
{
glyphname = abrevedotbelow;
lastChange = "2015-11-29 23:51:21 +0000";
layers = (
{
layerId = "C023BAC7-6FF9-47E4-9D72-1131A8F8A065";
name = "Light Italic";
paths = (
{
closed = 1;
nodes = (
"359 -15 OFFCURVE",
"451 27 OFFCURVE",
"513 113 CURVE",
"489 0 LINE",
"516 0 LINE",
"618 480 LINE",
"591 480 LINE",
"566 365 LINE",
"540 450 OFFCURVE",
"458 495 OFFCURVE",
"364 495 CURVE SMOOTH",
"225 495 OFFCURVE",
"92 399 OFFCURVE",
"59 239 CURVE SMOOTH",
"27 82 OFFCURVE",
"118 -15 OFFCURVE",
"255 -15 CURVE SMOOTH"
);
},
{
closed = 1;
nodes = (
"294 -121 OFFCURVE",
"309 -108 OFFCURVE",
"312 -93 CURVE SMOOTH",
"315 -78 OFFCURVE",
"305 -65 OFFCURVE",
"291 -65 CURVE SMOOTH",
"276 -65 OFFCURVE",
"260 -78 OFFCURVE",
"257 -93 CURVE SMOOTH",
"254 -108 OFFCURVE",
"264 -121 OFFCURVE",
"279 -121 CURVE SMOOTH"
);
},
{
closed = 1;
nodes = (
"130 9 OFFCURVE",
"55 98 OFFCURVE",
"85 239 CURVE SMOOTH",
"115 381 OFFCURVE",
"237 471 OFFCURVE",
"359 471 CURVE SMOOTH",
"474 471 OFFCURVE",
"542 413 OFFCURVE",
"554 310 CURVE",
"524 168 LINE",
"472 66 OFFCURVE",
"370 9 OFFCURVE",
"260 9 CURVE SMOOTH"
);
},
{
closed = 1;
nodes = (
"492 560 OFFCURVE",
"550 608 OFFCURVE",
"563 668 CURVE",
"537 668 LINE",
"527 620 OFFCURVE",
"484 583 OFFCURVE",
"425 583 CURVE SMOOTH",
"367 583 OFFCURVE",
"339 620 OFFCURVE",
"349 668 CURVE",
"327 668 LINE",
"314 608 OFFCURVE",
"352 560 OFFCURVE",
"422 560 CURVE SMOOTH"
);
}
);
width = 623;
}
);
leftKerningGroup = a;
note = abrevedotbelow;
rightKerningGroup = a;
unicode = 1EB7;
},
{
glyphname = abrevegrave;
lastChange = "2015-11-29 23:51:21 +0000";
layers = (
{
layerId = "C023BAC7-6FF9-47E4-9D72-1131A8F8A065";
name = "Light Italic";
paths = (
{
closed = 1;
nodes = (
"359 -15 OFFCURVE",
"451 27 OFFCURVE",
"513 113 CURVE",
"489 0 LINE",
"516 0 LINE",
"618 480 LINE",
"591 480 LINE",
"566 365 LINE",
"540 450 OFFCURVE",
"458 495 OFFCURVE",
"364 495 CURVE SMOOTH",
"225 495 OFFCURVE",
"92 399 OFFCURVE",
"59 239 CURVE SMOOTH",
"27 82 OFFCURVE",
"118 -15 OFFCURVE",
"255 -15 CURVE SMOOTH"
);
},
{
closed = 1;
nodes = (
"130 9 OFFCURVE",
"55 98 OFFCURVE",
"85 239 CURVE SMOOTH",
"115 381 OFFCURVE",
"237 471 OFFCURVE",
"359 471 CURVE SMOOTH",
"474 471 OFFCURVE",
"542 413 OFFCURVE",
"554 310 CURVE",
"524 168 LINE",
"472 66 OFFCURVE",
"370 9 OFFCURVE",
"260 9 CURVE SMOOTH"
);
},
{
closed = 1;
nodes = (
"497 565 OFFCURVE",
"555 613 OFFCURVE",
"568 673 CURVE",
"544 673 LINE",
"534 625 OFFCURVE",
"490 588 OFFCURVE",
"432 588 CURVE SMOOTH",
"373 588 OFFCURVE",
"346 625 OFFCURVE",
"356 673 CURVE",
"332 673 LINE",
"319 613 OFFCURVE",
"357 565 OFFCURVE",
"427 565 CURVE SMOOTH"
);
},
{
closed = 1;
nodes = (
"470 639 LINE",
"441 759 LINE",
"413 759 LINE",
"448 639 LINE"
);
}
);
width = 623;
}
);
leftKerningGroup = a;
note = abrevegrave;
rightKerningGroup = a;
unicode = 1EB1;
},
{
glyphname = abrevehookabove;
lastChange = "2015-11-29 23:51:23 +0000";
layers = (
{
layerId = "C023BAC7-6FF9-47E4-9D72-1131A8F8A065";
name = "Light Italic";
paths = (
{
closed = 1;
nodes = (
"359 -15 OFFCURVE",
"451 27 OFFCURVE",
"513 113 CURVE",
"489 0 LINE",
"516 0 LINE",
"618 480 LINE",
"591 480 LINE",
"566 365 LINE",
"540 450 OFFCURVE",
"458 495 OFFCURVE",
"364 495 CURVE SMOOTH",
"225 495 OFFCURVE",
"92 399 OFFCURVE",
"59 239 CURVE SMOOTH",
"27 82 OFFCURVE",
"118 -15 OFFCURVE",
"255 -15 CURVE SMOOTH"
);
},
{
closed = 1;
nodes = (
"130 9 OFFCURVE",
"55 98 OFFCURVE",
"85 239 CURVE SMOOTH",
"115 381 OFFCURVE",
"237 471 OFFCURVE",
"359 471 CURVE SMOOTH",
"474 471 OFFCURVE",
"542 413 OFFCURVE",
"554 310 CURVE",
"524 168 LINE",
"472 66 OFFCURVE",
"370 9 OFFCURVE",
"260 9 CURVE SMOOTH"
);
},
{
closed = 1;
nodes = (
"500 565 OFFCURVE",
"558 613 OFFCURVE",
"571 673 CURVE",
"547 673 LINE",
"537 625 OFFCURVE",
"494 588 OFFCURVE",
"435 588 CURVE SMOOTH",
"377 588 OFFCURVE",
"349 625 OFFCURVE",
"359 673 CURVE",
"335 673 LINE",
"322 613 OFFCURVE",
"360 565 OFFCURVE",
"430 565 CURVE SMOOTH"
);
},
{
closed = 1;
nodes = (
"446 624 LINE",
"452 656 LINE",
"497 658 OFFCURVE",
"528 681 OFFCURVE",
"535 716 CURVE SMOOTH",
"543 753 OFFCURVE",
"527 778 OFFCURVE",
"478 778 CURVE SMOOTH",
"460 778 OFFCURVE",
"440 774 OFFCURVE",
"428 770 CURVE",
"423 747 LINE",
"435 752 OFFCURVE",
"457 756 OFFCURVE",
"474 756 CURVE SMOOTH",
"504 756 OFFCURVE",
"518 746 OFFCURVE",
"511 716 CURVE",
"505 685 OFFCURVE",
"483 674 OFFCURVE",
"435 674 CURVE",
"425 624 LINE"
);
}
);
width = 623;
}
);
leftKerningGroup = a;
note = abrevehookabove;
rightKerningGroup = a;
unicode = 1EB3;
},
{
glyphname = abrevetilde;
lastChange = "2015-11-29 23:51:24 +0000";
layers = (
{
layerId = "C023BAC7-6FF9-47E4-9D72-1131A8F8A065";
name = "Light Italic";
paths = (
{
closed = 1;
nodes = (
"359 -15 OFFCURVE",
"451 27 OFFCURVE",
"513 113 CURVE",
"489 0 LINE",
"516 0 LINE",
"618 480 LINE",
"591 480 LINE",
"566 365 LINE",
"540 450 OFFCURVE",
"458 495 OFFCURVE",
"364 495 CURVE SMOOTH",
"225 495 OFFCURVE",
"92 399 OFFCURVE",
"59 239 CURVE SMOOTH",
"27 82 OFFCURVE",
"118 -15 OFFCURVE",
"255 -15 CURVE SMOOTH"
);
},
{
closed = 1;
nodes = (
"130 9 OFFCURVE",
"55 98 OFFCURVE",
"85 239 CURVE SMOOTH",
"115 381 OFFCURVE",
"237 471 OFFCURVE",
"359 471 CURVE SMOOTH",
"474 471 OFFCURVE",
"542 413 OFFCURVE",
"554 310 CURVE",
"524 168 LINE",
"472 66 OFFCURVE",
"370 9 OFFCURVE",
"260 9 CURVE SMOOTH"
);
},
{
closed = 1;
nodes = (
"505 565 OFFCURVE",
"563 613 OFFCURVE",
"576 673 CURVE",
"552 673 LINE",
"542 625 OFFCURVE",
"499 588 OFFCURVE",
"440 588 CURVE SMOOTH",
"382 588 OFFCURVE",
"354 625 OFFCURVE",
"364 673 CURVE",
"340 673 LINE",
"327 613 OFFCURVE",
"365 565 OFFCURVE",
"435 565 CURVE SMOOTH"
);
},
{
closed = 1;
nodes = (
"569 701 OFFCURVE",
"591 712 OFFCURVE",
"611 738 CURVE",
"617 768 LINE",
"591 733 OFFCURVE",
"570 723 OFFCURVE",
"540 723 CURVE SMOOTH",
"498 723 OFFCURVE",
"452 769 OFFCURVE",
"407 769 CURVE SMOOTH",
"373 769 OFFCURVE",
"350 758 OFFCURVE",
"331 732 CURVE",
"324 702 LINE",
"353 737 OFFCURVE",
"373 747 OFFCURVE",
"403 747 CURVE SMOOTH",
"444 747 OFFCURVE",
"486 701 OFFCURVE",
"535 701 CURVE SMOOTH"
);
}
);
width = 623;
}
);
leftKerningGroup = a;
note = abrevetilde;
rightKerningGroup = a;
unicode = 1EB5;
},
{
glyphname = acaron;
lastChange = "2015-11-29 23:51:21 +0000";
layers = (
{
layerId = "C023BAC7-6FF9-47E4-9D72-1131A8F8A065";
name = "Light Italic";
paths = (
{
closed = 1;
nodes = (
"359 -15 OFFCURVE",
"451 27 OFFCURVE",
"513 113 CURVE",
"489 0 LINE",
"516 0 LINE",
"618 480 LINE",
"591 480 LINE",
"566 365 LINE",
"540 450 OFFCURVE",
"458 495 OFFCURVE",
"364 495 CURVE SMOOTH",
"225 495 OFFCURVE",
"92 399 OFFCURVE",
"59 239 CURVE SMOOTH",
"27 82 OFFCURVE",
"118 -15 OFFCURVE",
"255 -15 CURVE SMOOTH"
);
},
{
closed = 1;
nodes = (
"130 9 OFFCURVE",
"55 98 OFFCURVE",
"85 239 CURVE SMOOTH",
"115 381 OFFCURVE",
"237 471 OFFCURVE",
"359 471 CURVE SMOOTH",
"474 471 OFFCURVE",
"542 413 OFFCURVE",
"554 310 CURVE",
"524 168 LINE",
"472 66 OFFCURVE",
"370 9 OFFCURVE",
"260 9 CURVE SMOOTH"
);
},
{
closed = 1;
nodes = (
"448 562 LINE",
"608 713 LINE",
"575 713 LINE",
"439 584 LINE",
"359 713 LINE",
"330 713 LINE",
"426 562 LINE"
);
}
);
width = 623;
}
);
leftKerningGroup = a;
note = acaron;
rightKerningGroup = a;
unicode = 01CE;
},
{
glyphname = acircumflex;
lastChange = "2015-11-29 23:51:21 +0000";
layers = (
{
layerId = "C023BAC7-6FF9-47E4-9D72-1131A8F8A065";
name = "Light Italic";
paths = (
{
closed = 1;
nodes = (
"359 -15 OFFCURVE",
"451 27 OFFCURVE",
"513 113 CURVE",
"489 0 LINE",
"516 0 LINE",
"618 480 LINE",
"591 480 LINE",
"566 365 LINE",
"540 450 OFFCURVE",
"458 495 OFFCURVE",
"364 495 CURVE SMOOTH",
"225 495 OFFCURVE",
"92 399 OFFCURVE",
"59 239 CURVE SMOOTH",
"27 82 OFFCURVE",
"118 -15 OFFCURVE",
"255 -15 CURVE SMOOTH"
);
},
{
closed = 1;
nodes = (
"130 9 OFFCURVE",
"55 98 OFFCURVE",
"85 239 CURVE SMOOTH",
"115 381 OFFCURVE",
"237 471 OFFCURVE",
"359 471 CURVE SMOOTH",
"474 471 OFFCURVE",
"542 413 OFFCURVE",
"554 310 CURVE",
"524 168 LINE",
"472 66 OFFCURVE",
"370 9 OFFCURVE",
"260 9 CURVE SMOOTH"
);
},
{
closed = 1;
nodes = (
"358 562 LINE",
"493 691 LINE",
"574 562 LINE",
"603 562 LINE",
"507 713 LINE",
"485 713 LINE",
"326 562 LINE"
);
}
);
width = 623;
}
);
leftKerningGroup = a;
note = acircumflex;
rightKerningGroup = a;
unicode = 00E2;
},
{
glyphname = acircumflexacute;
lastChange = "2015-11-29 23:51:21 +0000";
layers = (
{
layerId = "C023BAC7-6FF9-47E4-9D72-1131A8F8A065";
name = "Light Italic";
paths = (
{
closed = 1;
nodes = (
"359 -15 OFFCURVE",
"451 27 OFFCURVE",
"513 113 CURVE",
"489 0 LINE",
"516 0 LINE",
"618 480 LINE",
"591 480 LINE",
"566 365 LINE",
"540 450 OFFCURVE",
"458 495 OFFCURVE",
"364 495 CURVE SMOOTH",
"225 495 OFFCURVE",
"92 399 OFFCURVE",
"59 239 CURVE SMOOTH",
"27 82 OFFCURVE",
"118 -15 OFFCURVE",
"255 -15 CURVE SMOOTH"
);
},
{
closed = 1;
nodes = (
"130 9 OFFCURVE",
"55 98 OFFCURVE",
"85 239 CURVE SMOOTH",
"115 381 OFFCURVE",
"237 471 OFFCURVE",
"359 471 CURVE SMOOTH",
"474 471 OFFCURVE",
"542 413 OFFCURVE",
"554 310 CURVE",
"524 168 LINE",
"472 66 OFFCURVE",
"370 9 OFFCURVE",
"260 9 CURVE SMOOTH"
);
},
{
closed = 1;
nodes = (
"314 558 LINE",
"443 660 LINE",
"530 558 LINE",
"561 558 LINE",
"458 679 LINE",
"436 679 LINE",
"283 558 LINE"
);
},
{
closed = 1;
nodes = (
"543 641 LINE",
"636 749 LINE",
"608 749 LINE",
"521 641 LINE"
);
}
);
width = 623;
}
);
leftKerningGroup = a;
note = acircumflexacute;
rightKerningGroup = a;
unicode = 1EA5;
},
{
glyphname = acircumflexdotbelow;
lastChange = "2015-11-29 23:51:21 +0000";
layers = (
{
layerId = "C023BAC7-6FF9-47E4-9D72-1131A8F8A065";
name = "Light Italic";
paths = (
{
closed = 1;
nodes = (
"359 -15 OFFCURVE",
"451 27 OFFCURVE",
"513 113 CURVE",
"489 0 LINE",
"516 0 LINE",
"618 480 LINE",
"591 480 LINE",
"566 365 LINE",
"540 450 OFFCURVE",
"458 495 OFFCURVE",
"364 495 CURVE SMOOTH",
"225 495 OFFCURVE",
"92 399 OFFCURVE",
"59 239 CURVE SMOOTH",
"27 82 OFFCURVE",
"118 -15 OFFCURVE",
"255 -15 CURVE SMOOTH"
);
},
{
closed = 1;
nodes = (
"295 -121 OFFCURVE",
"310 -108 OFFCURVE",
"313 -93 CURVE SMOOTH",
"316 -78 OFFCURVE",
"306 -65 OFFCURVE",
"292 -65 CURVE SMOOTH",
"277 -65 OFFCURVE",
"261 -78 OFFCURVE",
"258 -93 CURVE SMOOTH",
"255 -108 OFFCURVE",
"265 -121 OFFCURVE",
"280 -121 CURVE SMOOTH"
);
},
{
closed = 1;
nodes = (
"130 9 OFFCURVE",
"55 98 OFFCURVE",
"85 239 CURVE SMOOTH",
"115 381 OFFCURVE",
"237 471 OFFCURVE",
"359 471 CURVE SMOOTH",
"474 471 OFFCURVE",
"542 413 OFFCURVE",
"554 310 CURVE",
"524 168 LINE",
"472 66 OFFCURVE",
"370 9 OFFCURVE",
"260 9 CURVE SMOOTH"
);
},
{
closed = 1;
nodes = (
"318 568 LINE",
"453 697 LINE",
"534 568 LINE",
"563 568 LINE",
"467 719 LINE",
"445 719 LINE",
"286 568 LINE"
);
}
);
width = 623;
}
);
leftKerningGroup = a;
note = acircumflexdotbelow;
rightKerningGroup = a;
unicode = 1EAD;
},
{
glyphname = acircumflexgrave;
lastChange = "2015-11-29 23:51:24 +0000";
layers = (
{
layerId = "C023BAC7-6FF9-47E4-9D72-1131A8F8A065";
name = "Light Italic";
paths = (
{
closed = 1;
nodes = (
"359 -15 OFFCURVE",
"451 27 OFFCURVE",
"513 113 CURVE",
"489 0 LINE",
"516 0 LINE",
"618 480 LINE",
"591 480 LINE",
"566 365 LINE",
"540 450 OFFCURVE",
"458 495 OFFCURVE",
"364 495 CURVE SMOOTH",
"225 495 OFFCURVE",
"92 399 OFFCURVE",
"59 239 CURVE SMOOTH",
"27 82 OFFCURVE",
"118 -15 OFFCURVE",
"255 -15 CURVE SMOOTH"
);
},
{
closed = 1;
nodes = (
"130 9 OFFCURVE",
"55 98 OFFCURVE",
"85 239 CURVE SMOOTH",
"115 381 OFFCURVE",
"237 471 OFFCURVE",
"359 471 CURVE SMOOTH",
"474 471 OFFCURVE",
"542 413 OFFCURVE",
"554 310 CURVE",
"524 168 LINE",
"472 66 OFFCURVE",
"370 9 OFFCURVE",
"260 9 CURVE SMOOTH"
);
},
{
closed = 1;
nodes = (
"364 641 LINE",
"322 749 LINE",
"294 749 LINE",
"342 641 LINE"
);
},
{
closed = 1;
nodes = (
"321 558 LINE",
"450 660 LINE",
"537 558 LINE",
"567 558 LINE",
"465 679 LINE",
"443 679 LINE",
"290 558 LINE"
);
}
);
width = 623;
}
);
leftKerningGroup = a;
note = acircumflexgrave;
rightKerningGroup = a;
unicode = 1EA7;
},
{
glyphname = acircumflexhookabove;
lastChange = "2015-11-29 23:51:20 +0000";
layers = (
{
layerId = "C023BAC7-6FF9-47E4-9D72-1131A8F8A065";
name = "Light Italic";
paths = (
{
closed = 1;
nodes = (
"359 -15 OFFCURVE",
"451 27 OFFCURVE",
"513 113 CURVE",
"489 0 LINE",
"516 0 LINE",
"618 480 LINE",
"591 480 LINE",
"566 365 LINE",
"540 450 OFFCURVE",
"458 495 OFFCURVE",
"364 495 CURVE SMOOTH",
"225 495 OFFCURVE",
"92 399 OFFCURVE",
"59 239 CURVE SMOOTH",
"27 82 OFFCURVE",
"118 -15 OFFCURVE",
"255 -15 CURVE SMOOTH"
);
},
{
closed = 1;
nodes = (
"130 9 OFFCURVE",
"55 98 OFFCURVE",
"85 239 CURVE SMOOTH",
"115 381 OFFCURVE",
"237 471 OFFCURVE",
"359 471 CURVE SMOOTH",
"474 471 OFFCURVE",
"542 413 OFFCURVE",
"554 310 CURVE",
"524 168 LINE",
"472 66 OFFCURVE",
"370 9 OFFCURVE",
"260 9 CURVE SMOOTH"
);
},
{
closed = 1;
nodes = (
"319 558 LINE",
"448 660 LINE",
"535 558 LINE",
"565 558 LINE",
"463 679 LINE",
"441 679 LINE",
"288 558 LINE"
);
},
{
closed = 1;
nodes = (
"547 631 LINE",
"553 658 LINE",
"596 660 OFFCURVE",
"627 683 OFFCURVE",
"635 718 CURVE",
"642 755 OFFCURVE",
"627 780 OFFCURVE",
"578 780 CURVE SMOOTH",
"560 780 OFFCURVE",
"540 776 OFFCURVE",
"528 772 CURVE",
"523 749 LINE",
"535 754 OFFCURVE",
"556 758 OFFCURVE",
"573 758 CURVE SMOOTH",
"603 758 OFFCURVE",
"617 748 OFFCURVE",
"611 718 CURVE SMOOTH",
"604 687 OFFCURVE",
"583 676 OFFCURVE",
"536 676 CURVE",
"526 631 LINE"
);
}
);
width = 623;
}
);
leftKerningGroup = a;
note = acircumflexhookabove;
rightKerningGroup = a;
unicode = 1EA9;
},
{
glyphname = acircumflextilde;
lastChange = "2015-11-29 23:51:20 +0000";
layers = (
{
layerId = "C023BAC7-6FF9-47E4-9D72-1131A8F8A065";
name = "Light Italic";
paths = (
{
closed = 1;
nodes = (
"359 -15 OFFCURVE",
"451 27 OFFCURVE",
"513 113 CURVE",
"489 0 LINE",
"516 0 LINE",
"618 480 LINE",
"591 480 LINE",
"566 365 LINE",
"540 450 OFFCURVE",
"458 495 OFFCURVE",
"364 495 CURVE SMOOTH",
"225 495 OFFCURVE",
"92 399 OFFCURVE",
"59 239 CURVE SMOOTH",
"27 82 OFFCURVE",
"118 -15 OFFCURVE",
"255 -15 CURVE SMOOTH"
);
},
{
closed = 1;
nodes = (
"130 9 OFFCURVE",
"55 98 OFFCURVE",
"85 239 CURVE SMOOTH",
"115 381 OFFCURVE",
"237 471 OFFCURVE",
"359 471 CURVE SMOOTH",
"474 471 OFFCURVE",
"542 413 OFFCURVE",
"554 310 CURVE",
"524 168 LINE",
"472 66 OFFCURVE",
"370 9 OFFCURVE",
"260 9 CURVE SMOOTH"
);
},
{
closed = 1;
nodes = (
"317 558 LINE",
"446 660 LINE",
"533 558 LINE",
"563 558 LINE",
"461 679 LINE",
"439 679 LINE",
"286 558 LINE"
);
},
{
closed = 1;
nodes = (
"557 692 OFFCURVE",
"580 703 OFFCURVE",
"600 729 CURVE",
"606 759 LINE",
"580 724 OFFCURVE",
"558 714 OFFCURVE",
"529 714 CURVE SMOOTH",
"487 714 OFFCURVE",
"442 760 OFFCURVE",
"397 760 CURVE SMOOTH",
"363 760 OFFCURVE",
"339 749 OFFCURVE",
"320 723 CURVE",
"313 693 LINE",
"342 728 OFFCURVE",
"362 738 OFFCURVE",
"392 738 CURVE SMOOTH",
"433 738 OFFCURVE",
"475 692 OFFCURVE",
"524 692 CURVE SMOOTH"
);
}
);
width = 623;
}
);
leftKerningGroup = a;
note = acircumflextilde;
rightKerningGroup = a;
unicode = 1EAB;
},
{
glyphname = adieresis;
lastChange = "2015-11-29 23:51:23 +0000";
layers = (
{
layerId = "C023BAC7-6FF9-47E4-9D72-1131A8F8A065";
name = "Light Italic";
paths = (
{
closed = 1;
nodes = (
"359 -15 OFFCURVE",
"451 27 OFFCURVE",
"513 113 CURVE",
"489 0 LINE",
"516 0 LINE",
"618 480 LINE",
"591 480 LINE",
"566 365 LINE",
"540 450 OFFCURVE",
"458 495 OFFCURVE",
"364 495 CURVE SMOOTH",
"225 495 OFFCURVE",
"92 399 OFFCURVE",
"59 239 CURVE SMOOTH",
"27 82 OFFCURVE",
"118 -15 OFFCURVE",
"255 -15 CURVE SMOOTH"
);
},
{
closed = 1;
nodes = (
"130 9 OFFCURVE",
"55 98 OFFCURVE",
"85 239 CURVE SMOOTH",
"115 381 OFFCURVE",
"237 471 OFFCURVE",
"359 471 CURVE SMOOTH",
"474 471 OFFCURVE",
"542 413 OFFCURVE",
"554 310 CURVE",
"524 168 LINE",
"472 66 OFFCURVE",
"370 9 OFFCURVE",
"260 9 CURVE SMOOTH"
);
},
{
closed = 1;
nodes = (
"352 572 OFFCURVE",
"367 585 OFFCURVE",
"371 600 CURVE",
"374 615 OFFCURVE",
"363 628 OFFCURVE",
"348 628 CURVE SMOOTH",
"333 628 OFFCURVE",
"318 615 OFFCURVE",
"315 600 CURVE",
"311 585 OFFCURVE",
"322 572 OFFCURVE",
"337 572 CURVE SMOOTH"
);
},
{
closed = 1;
nodes = (
"550 572 OFFCURVE",
"565 585 OFFCURVE",
"569 600 CURVE",
"572 615 OFFCURVE",
"561 628 OFFCURVE",
"546 628 CURVE SMOOTH",
"531 628 OFFCURVE",
"516 615 OFFCURVE",
"513 600 CURVE",
"509 585 OFFCURVE",
"520 572 OFFCURVE",
"535 572 CURVE SMOOTH"
);
}
);
width = 623;
}
);
leftKerningGroup = a;
note = adieresis;
rightKerningGroup = a;
unicode = 00E4;
},
{
glyphname = adotbelow;
lastChange = "2015-11-29 23:51:20 +0000";
layers = (
{
layerId = "C023BAC7-6FF9-47E4-9D72-1131A8F8A065";
name = "Light Italic";
paths = (
{
closed = 1;
nodes = (
"359 -15 OFFCURVE",
"451 27 OFFCURVE",
"513 113 CURVE",
"489 0 LINE",
"516 0 LINE",
"618 480 LINE",
"591 480 LINE",
"566 365 LINE",
"540 450 OFFCURVE",
"458 495 OFFCURVE",
"364 495 CURVE SMOOTH",
"225 495 OFFCURVE",
"92 399 OFFCURVE",
"59 239 CURVE SMOOTH",
"27 82 OFFCURVE",
"118 -15 OFFCURVE",
"255 -15 CURVE SMOOTH"
);
},
{
closed = 1;
nodes = (
"283 -121 OFFCURVE",
"298 -108 OFFCURVE",
"301 -93 CURVE SMOOTH",
"304 -78 OFFCURVE",
"294 -65 OFFCURVE",
"280 -65 CURVE SMOOTH",
"265 -65 OFFCURVE",
"249 -78 OFFCURVE",
"246 -93 CURVE SMOOTH",
"243 -108 OFFCURVE",
"253 -121 OFFCURVE",
"268 -121 CURVE SMOOTH"
);
},
{
closed = 1;
nodes = (
"130 9 OFFCURVE",
"55 98 OFFCURVE",
"85 239 CURVE SMOOTH",
"115 381 OFFCURVE",
"237 471 OFFCURVE",
"359 471 CURVE SMOOTH",
"474 471 OFFCURVE",
"542 413 OFFCURVE",
"554 310 CURVE",
"524 168 LINE",
"472 66 OFFCURVE",
"370 9 OFFCURVE",
"260 9 CURVE SMOOTH"
);
}
);
width = 623;
}
);
leftKerningGroup = a;
note = adotbelow;
rightKerningGroup = a;
unicode = 1EA1;
},
{
glyphname = agrave;
lastChange = "2015-11-29 23:51:21 +0000";
layers = (
{
layerId = "C023BAC7-6FF9-47E4-9D72-1131A8F8A065";
name = "Light Italic";
paths = (
{
closed = 1;
nodes = (
"359 -15 OFFCURVE",
"451 27 OFFCURVE",
"513 113 CURVE",
"489 0 LINE",
"516 0 LINE",
"618 480 LINE",
"591 480 LINE",
"566 365 LINE",
"540 450 OFFCURVE",
"458 495 OFFCURVE",
"364 495 CURVE SMOOTH",
"225 495 OFFCURVE",
"92 399 OFFCURVE",
"59 239 CURVE SMOOTH",
"27 82 OFFCURVE",
"118 -15 OFFCURVE",
"255 -15 CURVE SMOOTH"
);
},
{
closed = 1;
nodes = (
"130 9 OFFCURVE",
"55 98 OFFCURVE",
"85 239 CURVE SMOOTH",
"115 381 OFFCURVE",
"237 471 OFFCURVE",
"359 471 CURVE SMOOTH",
"474 471 OFFCURVE",
"542 413 OFFCURVE",
"554 310 CURVE",
"524 168 LINE",
"472 66 OFFCURVE",
"370 9 OFFCURVE",
"260 9 CURVE SMOOTH"
);
},
{
closed = 1;
nodes = (
"504 562 LINE",
"469 729 LINE",
"441 729 LINE",
"482 562 LINE"
);
}
);
width = 623;
}
);
leftKerningGroup = a;
note = agrave;
rightKerningGroup = a;
unicode = 00E0;
},
{
glyphname = ahookabove;
lastChange = "2015-11-29 23:51:22 +0000";
layers = (
{
layerId = "C023BAC7-6FF9-47E4-9D72-1131A8F8A065";
name = "Light Italic";
paths = (
{
closed = 1;
nodes = (
"359 -15 OFFCURVE",
"451 27 OFFCURVE",
"513 113 CURVE",
"489 0 LINE",
"516 0 LINE",
"618 480 LINE",
"591 480 LINE",
"566 365 LINE",
"540 450 OFFCURVE",
"458 495 OFFCURVE",
"364 495 CURVE SMOOTH",
"225 495 OFFCURVE",
"92 399 OFFCURVE",
"59 239 CURVE SMOOTH",
"27 82 OFFCURVE",
"118 -15 OFFCURVE",
"255 -15 CURVE SMOOTH"
);
},
{
closed = 1;
nodes = (
"130 9 OFFCURVE",
"55 98 OFFCURVE",
"85 239 CURVE SMOOTH",
"115 381 OFFCURVE",
"237 471 OFFCURVE",
"359 471 CURVE SMOOTH",
"474 471 OFFCURVE",
"542 413 OFFCURVE",
"554 310 CURVE",
"524 168 LINE",
"472 66 OFFCURVE",
"370 9 OFFCURVE",
"260 9 CURVE SMOOTH"
);
},
{
closed = 1;
nodes = (
"445 562 LINE",
"454 606 LINE",
"520 609 OFFCURVE",
"559 644 OFFCURVE",
"570 693 CURVE SMOOTH",
"580 743 OFFCURVE",
"554 779 OFFCURVE",
"485 779 CURVE SMOOTH",
"465 779 OFFCURVE",
"440 775 OFFCURVE",
"428 771 CURVE",
"423 747 LINE",
"436 752 OFFCURVE",
"462 755 OFFCURVE",
"480 755 CURVE SMOOTH",
"528 755 OFFCURVE",
"553 736 OFFCURVE",
"543 692 CURVE SMOOTH",
"534 648 OFFCURVE",
"507 625 OFFCURVE",
"435 625 CURVE",
"422 562 LINE"
);
}
);
width = 623;
}
);
leftKerningGroup = a;
note = ahookabove;
rightKerningGroup = a;
unicode = 1EA3;
},
{
glyphname = "alpha-latin";
lastChange = "2015-11-29 23:51:21 +0000";
layers = (
{
layerId = "C023BAC7-6FF9-47E4-9D72-1131A8F8A065";
name = "Light Italic";
paths = (
{
closed = 1;
nodes = (
"359 -15 OFFCURVE",
"451 27 OFFCURVE",
"513 113 CURVE",
"489 0 LINE",
"516 0 LINE",
"618 480 LINE",
"591 480 LINE",
"566 365 LINE",
"540 450 OFFCURVE",
"458 495 OFFCURVE",
"364 495 CURVE SMOOTH",
"225 495 OFFCURVE",
"92 399 OFFCURVE",
"59 239 CURVE SMOOTH",
"27 82 OFFCURVE",
"118 -15 OFFCURVE",
"255 -15 CURVE SMOOTH"
);
},
{
closed = 1;
nodes = (
"130 9 OFFCURVE",
"55 98 OFFCURVE",
"85 239 CURVE SMOOTH",
"115 381 OFFCURVE",
"237 471 OFFCURVE",
"359 471 CURVE SMOOTH",
"474 471 OFFCURVE",
"542 413 OFFCURVE",
"554 310 CURVE",
"524 168 LINE",
"472 66 OFFCURVE",
"370 9 OFFCURVE",
"260 9 CURVE SMOOTH"
);
}
);
width = 623;
}
);
leftKerningGroup = a;
note = ascript;
rightKerningGroup = a;
unicode = 0251;
},
{
glyphname = amacron;
lastChange = "2015-11-29 23:51:21 +0000";
layers = (
{
layerId = "C023BAC7-6FF9-47E4-9D72-1131A8F8A065";
name = "Light Italic";
paths = (
{
closed = 1;
nodes = (
"359 -15 OFFCURVE",
"451 27 OFFCURVE",
"513 113 CURVE",
"489 0 LINE",
"516 0 LINE",
"618 480 LINE",
"591 480 LINE",
"566 365 LINE",
"540 450 OFFCURVE",
"458 495 OFFCURVE",
"364 495 CURVE SMOOTH",
"225 495 OFFCURVE",
"92 399 OFFCURVE",
"59 239 CURVE SMOOTH",
"27 82 OFFCURVE",
"118 -15 OFFCURVE",
"255 -15 CURVE SMOOTH"
);
},
{
closed = 1;
nodes = (
"130 9 OFFCURVE",
"55 98 OFFCURVE",
"85 239 CURVE SMOOTH",
"115 381 OFFCURVE",
"237 471 OFFCURVE",
"359 471 CURVE SMOOTH",
"474 471 OFFCURVE",
"542 413 OFFCURVE",
"554 310 CURVE",
"524 168 LINE",
"472 66 OFFCURVE",
"370 9 OFFCURVE",
"260 9 CURVE SMOOTH"
);
},
{
closed = 1;
nodes = (
"578 595 LINE",
"584 619 LINE",
"306 619 LINE",
"300 595 LINE"
);
}
);
width = 623;
}
);
leftKerningGroup = a;
note = amacron;
rightKerningGroup = a;
unicode = 0101;
},
{
glyphname = aogonek;
lastChange = "2015-11-29 23:51:21 +0000";
layers = (
{
layerId = "C023BAC7-6FF9-47E4-9D72-1131A8F8A065";
name = "Light Italic";
paths = (
{
closed = 1;
nodes = (
"470 -206 OFFCURVE",
"484 -203 OFFCURVE",
"496 -198 CURVE",
"502 -174 LINE",
"488 -179 OFFCURVE",
"472 -182 OFFCURVE",
"455 -182 CURVE SMOOTH",
"424 -182 OFFCURVE",
"403 -164 OFFCURVE",
"411 -125 CURVE SMOOTH",
"421 -76 OFFCURVE",
"462 -36 OFFCURVE",
"516 0 CURVE",
"618 480 LINE",
"591 480 LINE",
"566 365 LINE",
"540 450 OFFCURVE",
"458 495 OFFCURVE",
"364 495 CURVE SMOOTH",
"225 495 OFFCURVE",
"92 399 OFFCURVE",
"59 239 CURVE SMOOTH",
"27 82 OFFCURVE",
"118 -15 OFFCURVE",
"255 -15 CURVE SMOOTH",
"359 -15 OFFCURVE",
"451 27 OFFCURVE",
"513 113 CURVE",
"489 0 LINE",
"442 -27 OFFCURVE",
"396 -73 OFFCURVE",
"385 -125 CURVE SMOOTH",
"373 -179 OFFCURVE",
"407 -206 OFFCURVE",
"450 -206 CURVE SMOOTH"
);
},
{
closed = 1;
nodes = (
"130 9 OFFCURVE",
"55 98 OFFCURVE",
"85 239 CURVE SMOOTH",
"115 381 OFFCURVE",
"237 471 OFFCURVE",
"359 471 CURVE SMOOTH",
"474 471 OFFCURVE",
"542 413 OFFCURVE",
"554 310 CURVE",
"524 168 LINE",
"472 66 OFFCURVE",
"370 9 OFFCURVE",
"260 9 CURVE SMOOTH"
);
}
);
width = 645;
}
);
leftKerningGroup = a;
note = aogonek;
rightKerningGroup = a;
unicode = 0105;
},
